<svg width="96" height="36" viewBox="0 0 96 36" fill="none" xmlns="http://www.w3.org/2000/svg">
<g clip-path="url(#clip0_1_2)">
<g clip-path="url(#clip1_1_2)">
<path d="M30.4907 27.6383L32.5046 18.439L27.3478 0H35.646L37.9822 10.8861H38.2641L43.9861 2.10052C44.8391 0.790036 46.2992 0 47.8663 0H53.8543L40.8027 18.439L38.8294 27.6383H30.4907Z" fill="white"/>
<path d="M96 0H89.0897C87.6787 0 86.3444 0.642986 85.4668 1.74587L80.8132 7.59185H80.4503L77.8727 0H68.7288L74.4494 13.4566L70.3176 18.0901L71.1532 27.6455L77.9537 19.885H78.3556L81.0951 27.6383H90.2L84.4794 13.8184L96 0Z" fill="white"/>
<path d="M3.90619 33.9489C3.7862 33.7614 3.61417 33.6072 3.38575 33.4875C3.15733 33.3693 2.78869 33.2569 2.27981 33.1487C1.79551 33.0507 1.49047 32.9599 1.35458 32.8748C1.22158 32.7912 1.15218 32.6917 1.15218 32.5692C1.15218 32.4466 1.2288 32.3414 1.37626 32.2592C1.52372 32.177 1.73768 32.1338 2.00947 32.1338C2.28125 32.1338 2.49232 32.1814 2.64123 32.2765C2.7858 32.3731 2.8841 32.5375 2.92892 32.7811L3.94378 32.7407C3.92643 32.3068 3.75006 31.9723 3.41755 31.7388C3.08505 31.5067 2.62677 31.3899 2.0326 31.3899C1.64082 31.3899 1.30976 31.4375 1.03942 31.5384C0.773417 31.6379 0.562348 31.7864 0.409107 31.9781C0.258757 32.1742 0.183581 32.3933 0.183581 32.6369C0.183581 32.846 0.241408 33.0377 0.359954 33.2179C0.479945 33.4025 0.637523 33.5481 0.841363 33.6591C1.03942 33.7701 1.35602 33.8725 1.78973 33.9676C2.27403 34.0743 2.57617 34.1507 2.7005 34.1954C2.82627 34.243 2.9188 34.3021 2.98096 34.3727C3.04313 34.4434 3.07348 34.5284 3.07348 34.6293C3.07348 34.8023 2.98674 34.9451 2.80893 35.0633C2.63545 35.1801 2.39113 35.2377 2.08464 35.2377C1.46589 35.2377 1.10014 34.9537 0.988822 34.3814L-0.00146484 34.4693C0.13732 35.4886 0.824015 35.996 2.05573 35.996C2.7511 35.996 3.26431 35.8663 3.59393 35.6025C3.92354 35.3386 4.0869 35.0128 4.0869 34.625C4.0869 34.3569 4.02908 34.132 3.90619 33.9445V33.9489Z" fill="white"/>
<path d="M5.92441 31.4659H4.90955V35.9222H5.92441V31.4659Z" fill="white"/>
<path d="M10.5447 33.9485C10.4248 33.7611 10.2527 33.6068 10.0229 33.4872C9.79588 33.3689 9.42724 33.2565 8.91836 33.1484C8.43839 33.0503 8.12758 32.9595 7.99313 32.8744C7.86013 32.7908 7.79218 32.6914 7.79218 32.5688C7.79218 32.4463 7.86591 32.341 8.01481 32.2589C8.16083 32.1752 8.37479 32.1334 8.64657 32.1334C8.91836 32.1334 9.13087 32.181 9.27833 32.2762C9.42724 32.3727 9.52265 32.5371 9.56747 32.7807L10.5838 32.7404C10.5635 32.3064 10.3886 31.972 10.0561 31.7384C9.72504 31.5063 9.26388 31.3895 8.67115 31.3895C8.27937 31.3895 7.94831 31.4371 7.67942 31.538C7.41197 31.6375 7.2009 31.786 7.04766 31.9777C6.89875 32.1738 6.82213 32.3929 6.82213 32.6366C6.82213 32.8456 6.87851 33.0374 6.9985 33.2176C7.11705 33.4021 7.27607 33.5477 7.47991 33.6587C7.67942 33.7697 7.99602 33.8721 8.42828 33.9672C8.91113 34.0739 9.21328 34.1503 9.3405 34.195C9.46482 34.2426 9.55879 34.3017 9.61951 34.3723C9.68023 34.443 9.71203 34.528 9.71203 34.629C9.71203 34.802 9.62529 34.9447 9.44603 35.0629C9.27399 35.1797 9.02968 35.2374 8.72319 35.2374C8.10444 35.2374 7.74013 34.9533 7.62737 34.381L6.63708 34.4689C6.77587 35.4882 7.45967 35.9957 8.69428 35.9957C9.39109 35.9957 9.90286 35.8659 10.2339 35.6021C10.5578 35.3383 10.724 35.0124 10.724 34.6246C10.724 34.3565 10.6662 34.1316 10.5447 33.9442V33.9485Z" fill="white"/>
<path d="M11.217 31.4659V32.2214H12.7089V35.9222H13.7223V32.2214H15.2128V31.4659H11.217Z" fill="white"/>
<path d="M16.8855 35.171V33.9572H19.4139V33.2075H16.8855V32.2214H19.6077V31.4659H15.8749V35.9222H19.6973V35.171H16.8855Z" fill="white"/>
<path d="M23.8782 31.4659L22.9732 34.5079L22.061 31.4659H20.5402V35.9222H21.49V32.4131L22.4803 35.9222H23.459L24.4579 32.4131V35.9222H25.4005V31.4659H23.8782Z" fill="white"/>
<path d="M28.9323 31.4659H27.8567L25.8993 35.9222H26.9763L27.3912 34.9087H29.3978L29.8359 35.9222H30.9404L28.9309 31.4659H28.9323ZM27.7006 34.1604L28.3815 32.5054L29.0711 34.1604H27.6992H27.7006Z" fill="white"/>
<path d="M35.1314 33.9485C35.0099 33.7611 34.835 33.6068 34.608 33.4872C34.3825 33.3689 34.0124 33.2565 33.5035 33.1484C33.0221 33.0503 32.7128 32.9595 32.5798 32.8744C32.4439 32.7908 32.3774 32.6914 32.3774 32.5688C32.3774 32.4463 32.4511 32.341 32.6 32.2589C32.746 32.1752 32.9585 32.1334 33.2318 32.1334C33.505 32.1334 33.7161 32.181 33.8621 32.2762C34.0124 32.3727 34.1078 32.5371 34.1512 32.7807L35.169 32.7404C35.1487 32.3064 34.9738 31.972 34.6413 31.7384C34.3102 31.5063 33.8491 31.3895 33.2563 31.3895C32.8617 31.3895 32.5321 31.4371 32.2632 31.538C31.9972 31.6375 31.7875 31.786 31.6343 31.9777C31.4825 32.1738 31.4073 32.3929 31.4073 32.6366C31.4073 32.8456 31.4637 33.0374 31.5837 33.2176C31.7037 33.4021 31.8613 33.5477 32.0622 33.6587C32.2632 33.7697 32.5798 33.8721 33.0135 33.9672C33.4963 34.0739 33.7985 34.1503 33.9242 34.195C34.05 34.2426 34.144 34.3017 34.2033 34.3723C34.2698 34.443 34.2958 34.528 34.2958 34.629C34.2958 34.802 34.209 34.9447 34.0312 35.0629C33.8563 35.1797 33.6149 35.2374 33.3084 35.2374C32.6882 35.2374 32.3224 34.9533 32.214 34.381L31.2208 34.4689C31.3596 35.4882 32.0463 35.9957 33.2795 35.9957C33.9763 35.9957 34.488 35.8659 34.8191 35.6021C35.1458 35.3383 35.3092 35.0124 35.3092 34.6246C35.3092 34.3565 35.2499 34.1316 35.1314 33.9442V33.9485Z" fill="white"/>
<path d="M42.1573 32.6683C42.0431 32.3785 41.887 32.1435 41.6846 31.9648C41.4822 31.7846 41.2653 31.6562 41.0268 31.5813C40.7854 31.5049 40.4312 31.4659 39.9642 31.4659H38.1138V35.9222H40.0192C40.4326 35.9222 40.7651 35.8789 41.0282 35.7967C41.287 35.7102 41.5097 35.5877 41.6933 35.4219C41.8754 35.2532 42.0301 35.0269 42.1515 34.7443C42.2715 34.4589 42.3308 34.1229 42.3308 33.738C42.3308 33.3113 42.2759 32.9537 42.1588 32.6683H42.1573ZM41.1873 34.4747C41.1266 34.6722 41.0485 34.8121 40.9545 34.9014C40.862 34.9923 40.7406 35.0571 40.596 35.1047C40.4485 35.148 40.2114 35.171 39.8862 35.171H39.1243V32.2214H39.5869C39.9931 32.2214 40.2678 32.2344 40.4095 32.2589C40.5974 32.292 40.7593 32.367 40.8924 32.4751C41.0254 32.5847 41.1222 32.7346 41.1844 32.9235C41.2465 33.1123 41.2812 33.3747 41.2812 33.7049C41.2812 34.035 41.2494 34.2815 41.1873 34.4747Z" fill="white"/>
<path d="M44.203 35.171V33.9572H46.7314V33.2075H44.203V32.2214H46.9223V31.4659H43.191V35.9222H47.0133V35.171H44.203Z" fill="white"/>
<path d="M53.477 33.9485C53.3584 33.7611 53.1835 33.6068 52.9551 33.4872C52.7281 33.3689 52.3609 33.2565 51.8506 33.1484C51.3677 33.0503 51.0598 32.9595 50.9268 32.8744C50.7938 32.7908 50.723 32.6914 50.723 32.5688C50.723 32.4463 50.7996 32.341 50.9485 32.2589C51.096 32.1752 51.307 32.1334 51.5803 32.1334C51.8535 32.1334 52.066 32.181 52.2106 32.2762C52.358 32.3727 52.4563 32.5371 52.4983 32.7807L53.5146 32.7404C53.4972 32.3064 53.3223 31.972 52.9869 31.7384C52.6573 31.5063 52.1947 31.3895 51.6034 31.3895C51.2102 31.3895 50.8791 31.4371 50.6116 31.538C50.3428 31.6375 50.1346 31.786 49.9813 31.9777C49.8324 32.1738 49.7558 32.3929 49.7558 32.6366C49.7558 32.8456 49.8122 33.0374 49.9307 33.2176C50.0493 33.4021 50.2098 33.5477 50.4107 33.6587C50.6117 33.7697 50.9283 33.8721 51.3591 33.9672C51.8434 34.0739 52.1455 34.1503 52.2713 34.195C52.3999 34.2426 52.4896 34.3017 52.5532 34.3723C52.6125 34.443 52.6443 34.528 52.6443 34.629C52.6443 34.802 52.5546 34.9447 52.3783 35.0629C52.2033 35.1797 51.9648 35.2374 51.6569 35.2374C51.0381 35.2374 50.6695 34.9533 50.561 34.381L49.5679 34.4689C49.7067 35.4882 50.3934 35.9957 51.6294 35.9957C52.3219 35.9957 52.8365 35.8659 53.1647 35.6021C53.4929 35.3383 53.6577 35.0124 53.6577 34.6246C53.6577 34.3565 53.5984 34.1316 53.477 33.9442V33.9485Z" fill="white"/>
<path d="M55.443 35.171V33.9572H57.9686V33.2075H55.443V32.2214H58.1638V31.4659H54.4296V35.9222H58.2534V35.171H55.443Z" fill="white"/>
<path d="M61.4542 33.5318V34.2829H62.618V34.8481C62.4488 34.9663 62.2595 35.0586 62.0484 35.1278C61.8315 35.197 61.6262 35.2301 61.4282 35.2301C61.0061 35.2301 60.6692 35.109 60.422 34.8668C60.13 34.5871 59.9869 34.1777 59.9869 33.6443C59.9869 33.1426 60.1213 32.7692 60.3873 32.5255C60.6533 32.2819 61.0061 32.1579 61.4354 32.1579C61.7159 32.1579 61.9573 32.2199 62.1597 32.3396C62.3592 32.4621 62.498 32.6365 62.5703 32.8658L63.5765 32.7C63.4724 32.2689 63.2382 31.9431 62.8811 31.7211C62.5197 31.5005 62.0383 31.3881 61.4369 31.3881C60.941 31.3881 60.5102 31.4746 60.1502 31.6447C59.7931 31.8191 59.5011 32.0786 59.2785 32.4289C59.0515 32.7764 58.9402 33.1959 58.9402 33.6875C58.9402 34.1791 59.0515 34.5799 59.2727 34.9331C59.4953 35.2892 59.796 35.5545 60.1748 35.7318C60.555 35.9077 60.993 35.9971 61.4904 35.9971C61.8951 35.9971 62.2999 35.9279 62.7047 35.7924C63.1095 35.6583 63.4218 35.4939 63.6415 35.3051V33.5289H61.4542V33.5318Z" fill="white"/>
<path d="M67.4899 31.4659V33.9312C67.4899 34.3752 67.4624 34.6635 67.4075 34.7991C67.354 34.9346 67.2513 35.0413 67.1053 35.1148C66.955 35.1926 66.7641 35.2301 66.5299 35.2301C66.2553 35.2301 66.0341 35.1782 65.8678 35.0687C65.6958 34.9605 65.5888 34.8077 65.5454 34.6116C65.5194 34.4978 65.5093 34.2556 65.5093 33.8778V31.4645H64.4973V33.8404C64.4973 34.5064 64.5609 34.9663 64.6939 35.2143C64.824 35.4622 65.0409 35.6554 65.3344 35.7909C65.6278 35.9279 66.037 35.9971 66.5603 35.9971C67.0836 35.9971 67.4725 35.9135 67.779 35.7491C68.0898 35.5848 68.2864 35.3685 68.3761 35.1018C68.4614 34.8351 68.5062 34.4026 68.5062 33.8043V31.4645H67.4899V31.4659Z" fill="white"/>
<path d="M73.3651 35.0542C73.1179 34.7039 72.9271 34.4631 72.784 34.3262C72.6423 34.1921 72.4616 34.0696 72.2462 33.9542C72.6683 33.9009 72.995 33.7668 73.2278 33.5549C73.4562 33.3415 73.5704 33.0575 73.5704 32.713C73.5704 32.4361 73.4967 32.2026 73.3449 32.0022C73.1945 31.8061 73.0023 31.6663 72.7681 31.587C72.5353 31.5077 72.1421 31.4673 71.5956 31.4673H69.4575V35.9236H70.4723V34.0624H70.6834C70.919 34.0624 71.0867 34.0782 71.1923 34.1114C71.2978 34.1445 71.399 34.208 71.493 34.2959C71.5898 34.3824 71.7676 34.6015 72.0351 34.9519L72.7695 35.9221H73.9781L73.368 35.0528L73.3651 35.0542ZM71.2226 33.3516H70.4694V32.2213H71.2631C71.7199 32.2213 71.9961 32.2314 72.0886 32.2531C72.223 32.2848 72.3286 32.3453 72.4052 32.4304C72.4847 32.5183 72.5237 32.6308 72.5237 32.7735C72.5237 32.9162 72.4847 33.0388 72.4052 33.1296C72.3271 33.219 72.2259 33.2766 72.1016 33.3055C71.9758 33.3358 71.6823 33.3502 71.2212 33.3502L71.2226 33.3516Z" fill="white"/>
<path d="M75.5076 31.4659H74.4941V35.9222H75.5076V31.4659Z" fill="white"/>
<path d="M80.5197 32.6683C80.4041 32.3785 80.2465 32.1435 80.0455 31.9648C79.8446 31.7846 79.6263 31.6562 79.3878 31.5813C79.1463 31.5049 78.7936 31.4659 78.3252 31.4659H76.4747V35.9222H78.3816C78.7907 35.9222 79.1275 35.8789 79.3892 35.7967C79.6494 35.7102 79.8692 35.5877 80.0528 35.4219C80.2364 35.2532 80.394 35.0269 80.5125 34.7443C80.631 34.4589 80.6918 34.1229 80.6918 33.738C80.6918 33.3113 80.6339 32.9537 80.5212 32.6683H80.5197ZM79.5482 34.4747C79.4861 34.6722 79.408 34.8121 79.3155 34.9014C79.2215 34.9923 79.1001 35.0571 78.9541 35.1047C78.8095 35.148 78.571 35.171 78.2471 35.171H77.4824V32.2214H77.9464C78.3527 32.2214 78.6273 32.2344 78.7661 32.2589C78.957 32.292 79.1203 32.367 79.2504 32.4751C79.3849 32.5847 79.4832 32.7346 79.5439 32.9235C79.6061 33.1123 79.6379 33.3747 79.6379 33.7049C79.6379 34.035 79.6104 34.2815 79.5482 34.4747Z" fill="white"/>
<path d="M83.8303 31.4659H82.7562L80.7988 35.9222H81.8787L82.2921 34.9087H84.2987L84.7382 35.9222H85.8384L83.8289 31.4659H83.8303ZM82.6001 34.1604L83.2824 32.5054L83.9735 34.1604H82.5986H82.6001Z" fill="white"/>
<path d="M90.4212 32.6683C90.3041 32.3785 90.1479 32.1435 89.947 31.9648C89.7446 31.7846 89.5234 31.6562 89.2877 31.5813C89.0492 31.5049 88.6921 31.4659 88.2266 31.4659H86.3762V35.9222H88.2816C88.6936 35.9222 89.0275 35.8789 89.2892 35.7967C89.5509 35.7102 89.7706 35.5877 89.9557 35.4219C90.1393 35.2532 90.2939 35.0269 90.4139 34.7443C90.5339 34.4589 90.5918 34.1229 90.5918 33.738C90.5918 33.3113 90.5354 32.9537 90.4226 32.6683H90.4212ZM89.4482 34.4747C89.3875 34.6722 89.3109 34.8121 89.214 34.9014C89.1229 34.9923 89.003 35.0571 88.8555 35.1047C88.7109 35.148 88.4738 35.171 88.1486 35.171H87.3838V32.2214H87.8479C88.2541 32.2214 88.5259 32.2344 88.6719 32.2589C88.8613 32.292 89.0203 32.367 89.1547 32.4751C89.2878 32.5847 89.3817 32.7346 89.4453 32.9235C89.5075 33.1123 89.5407 33.3747 89.5407 33.7049C89.5407 34.035 89.5089 34.2815 89.4482 34.4747Z" fill="white"/>
<path d="M67.075 0H58.4573C56.7239 0 55.1366 0.965921 54.3429 2.50274L41.3738 27.6383H46.8023C48.5602 27.6383 50.1664 26.645 50.947 25.0736L52.0501 22.8577L54.8012 17.0723L54.9241 16.8157L56.0199 14.5075L59.8235 6.8292H60.1459L60.8311 17.0723H59.5864C57.7995 17.0723 56.1717 18.0988 55.4069 19.7091L53.9092 22.8577H61.0725L61.4759 27.6383H69.4921L67.075 0Z" fill="white"/>
<path d="M25.7012 0H17.0835C15.3502 0 13.7628 0.965921 12.9691 2.50274L0 27.6383H5.42851C7.18645 27.6383 8.79259 26.645 9.57326 25.0736L10.6763 22.8577L13.4274 17.0723L13.5503 16.8157L14.6461 14.5075L18.4497 6.8292H18.7721L19.4573 17.0723H18.2126C16.4258 17.0723 14.7979 18.0988 14.0332 19.7091L12.5354 22.8577H19.6988L20.1021 27.6383H28.1184L25.7012 0Z" fill="white"/>
</g>
</g>
<defs>
<clipPath id="clip0_1_2">
<rect width="96" height="36" fill="white"/>
</clipPath>
<clipPath id="clip1_1_2">
<rect width="96" height="36" fill="white"/>
</clipPath>
</defs>
</svg>
