<svg width="80" height="80" viewBox="0 0 80 80" fill="none" xmlns="http://www.w3.org/2000/svg">
<mask id="mask0_989_784" style="mask-type:alpha" maskUnits="userSpaceOnUse" x="18" y="18" width="44" height="44">
<rect x="18.668" y="18.667" width="42.6667" height="42.6667" fill="#D9D9D9"/>
</mask>
<g mask="url(#mask0_989_784)">
</g>
<g clip-path="url(#clip0_989_784)">
<path d="M61.3271 44.4071C61.2871 44.1162 61.0688 43.8297 60.6821 43.5531C60.1356 43.1639 59.5162 42.7219 58.887 42.3327C58.6087 42.1616 58.359 41.9862 58.3418 41.7125C58.3261 41.4401 58.563 41.2149 58.7699 41.0481C59.1681 40.7301 59.3664 40.4079 59.3593 40.0914C59.3493 39.6836 58.9868 39.3386 58.6843 39.1205C54.088 35.7985 49.4889 32.4794 44.8897 29.1631C41.5121 26.7266 38.1344 24.29 34.7596 21.8505C34.2773 21.5027 33.7835 21.333 33.2498 21.333C32.8717 21.3359 32.5264 21.4243 32.2024 21.6025C31.8785 21.7793 31.576 22.0473 31.2849 22.4137C30.0049 24.0134 28.7206 25.6116 27.4349 27.2085C26.1906 28.7554 24.9448 30.3023 23.7062 31.8521C23.1511 32.545 22.9142 33.2194 23.0013 33.8552C23.0912 34.5039 23.515 35.1056 24.2613 35.6431L24.8292 36.0509C26.3418 37.1401 27.9072 38.2665 29.4655 39.3415C29.6924 39.4983 29.905 39.6779 29.9464 39.9374C29.9863 40.1969 29.8351 40.4321 29.6981 40.6118C29.2215 41.2306 28.7663 41.8878 28.3268 42.5208C28.1841 42.7262 28.0428 42.9315 27.9001 43.1353C27.5277 43.6657 27.3907 44.0093 27.442 44.2888C27.4906 44.5625 27.7417 44.8434 28.2526 45.197C28.4481 45.3324 28.675 45.5206 28.6821 45.7715C28.6892 46.0225 28.4837 46.2035 28.254 46.3803C26.8156 47.5009 25.1746 48.0784 23.3766 48.0969C23.1725 48.0997 22.9513 48.1254 22.7159 48.1539C22.068 48.2338 21.4002 48.3136 20.9579 47.8788C20.5925 47.5195 20.6582 46.9264 20.721 46.3532C20.7495 46.1037 20.7766 45.8457 20.7666 45.6261C20.7652 45.589 20.7652 45.5491 20.7652 45.512C20.7666 45.4921 20.7666 45.4707 20.7666 45.4507C20.7538 44.5967 20.3714 44.1077 19.7192 44.1063H19.7178C19.0657 44.1063 18.6761 44.6067 18.6718 45.445C18.6676 46.731 18.669 48.0185 18.669 49.3059V50.8229C18.6704 51.4787 18.669 52.1332 18.669 52.7904C18.6676 54.46 18.6661 56.1851 18.6761 57.8831C18.6804 58.5917 19.0885 59.048 19.7164 59.048H19.7207C20.34 59.0465 20.7395 58.596 20.7624 57.8703C20.7666 57.7791 20.7695 57.6892 20.7738 57.5966C20.7895 57.253 20.8052 56.8965 20.7581 56.5658C20.6896 56.0924 20.7452 55.7688 20.9379 55.5521C21.1976 55.2584 21.6514 55.227 22.0638 55.2341C26.7414 55.3225 30.7041 53.777 33.8506 50.6376C34.5798 49.9104 35.0978 49.8762 35.9012 50.5007C36.3179 50.8243 36.6446 50.9555 36.9286 50.9127C37.2211 50.8685 37.5094 50.629 37.8347 50.1628L38.0131 49.9047C38.5368 49.1548 39.0748 48.3778 39.5742 47.5979C39.6984 47.404 39.8568 47.1987 40.0936 47.1573C40.3319 47.1146 40.5546 47.2529 40.7201 47.3783C41.4478 47.9272 42.2056 48.4633 42.9419 48.9794C43.2929 49.2275 43.6454 49.477 43.9936 49.7265C44.1662 49.8506 44.3261 49.966 44.4716 50.0715C45.3064 50.6775 45.7245 50.9797 46.1112 50.9427C46.5122 50.9042 46.9888 50.5035 47.9392 49.708L48.0433 49.621C48.5171 49.2232 48.8952 49.2118 49.3861 49.5825C50.6947 50.5691 51.9861 51.4859 53.5372 52.5823C54.255 53.0912 54.7302 53.047 55.2353 52.4326C57.2345 49.9846 59.1709 47.5865 60.9903 45.3053C61.25 44.9802 61.3628 44.678 61.3242 44.4057L61.3271 44.4071ZM31.8685 49.6566C31.7358 49.765 31.586 49.8876 31.4205 50.0259C28.9418 52.0818 25.9195 53.1383 22.4405 53.1597C22.3734 53.1611 22.3063 53.1611 22.245 53.1611C20.9136 53.1611 20.8237 53.0228 20.7566 51.6641L20.7495 51.5115C20.7224 50.9783 20.7995 50.6604 21.0121 50.4508C21.2204 50.2441 21.5458 50.1642 22.0623 50.1956C25.4443 50.3938 28.1313 49.4699 30.2746 47.3698C30.6028 47.0476 30.9096 47.0276 31.2678 47.3013C31.6145 47.5665 31.8999 47.7561 32.1311 47.9073C32.5492 48.1839 32.7804 48.335 32.7946 48.5973C32.8089 48.891 32.5535 49.1006 31.8714 49.6566H31.8685ZM37.9218 46.3347C37.7791 46.5172 37.6478 46.7482 37.5194 46.972C37.2497 47.4439 36.97 47.9344 36.5262 48.0855C36.4406 48.1154 36.3564 48.1283 36.2722 48.1283C35.8355 48.1283 35.4303 47.7661 35.0664 47.4425C34.8894 47.2857 34.7225 47.136 34.5584 47.0276C33.9805 46.6426 33.4025 46.2377 32.8446 45.8471C32.1668 45.3709 31.4647 44.8776 30.7583 44.4228C30.53 44.2759 30.2646 44.0692 30.2204 43.7698C30.179 43.4747 30.3716 43.2081 30.5429 43.0085C30.7812 42.7333 30.9924 42.421 31.1964 42.1174C31.3006 41.9648 31.4019 41.8137 31.5075 41.664C31.5218 41.6454 31.5346 41.6241 31.5475 41.6041C31.6288 41.4772 31.7644 41.2662 32.0754 41.2819L32.134 41.2847L32.2795 41.3803C32.3608 41.4302 32.4436 41.4858 32.5264 41.5428C33.0115 41.8892 33.4967 42.2371 33.9819 42.5836C35.2034 43.4576 36.4648 44.3615 37.7149 45.2354C37.9075 45.3723 38.0916 45.5291 38.1258 45.7615C38.1601 45.9954 38.0245 46.2007 37.9203 46.3361L37.9218 46.3347ZM49.282 45.9654C48.3872 46.6811 47.4911 47.3954 46.595 48.1112C46.4865 48.1981 46.3709 48.2737 46.261 48.3507C46.2097 48.3849 46.1569 48.4191 46.1055 48.4576L45.9828 48.5432L45.6845 48.3421C45.5661 48.2637 45.4562 48.191 45.3492 48.1126L41.2438 45.1841C36.1523 41.5513 30.8868 37.7945 25.7011 34.1119C25.4928 33.9636 25.2944 33.7939 25.2616 33.5544C25.2302 33.3149 25.3786 33.0953 25.5285 32.91C27.8387 30.0742 30.1847 27.1614 32.6962 24.0063C33.0415 23.5728 33.3526 23.4032 33.922 23.8152C41.3223 29.1788 48.6841 34.4897 55.8047 39.6052C56.0087 39.7521 56.2185 39.9346 56.2242 40.1755C56.2299 40.4165 56.0373 40.5904 55.8018 40.7757C53.6257 42.4995 51.4181 44.2617 49.2834 45.9654H49.282ZM57.3601 46.4716L56.6908 47.3013C56.0301 48.1226 55.3466 48.9694 54.6688 49.8007C54.6431 49.8306 54.6203 49.8648 54.596 49.9019C54.4947 50.053 54.3449 50.2797 54.021 50.2797H53.941L53.8012 50.1842C53.7341 50.1414 53.6671 50.0972 53.6043 50.0516C53.3503 49.8691 53.0963 49.6852 52.8437 49.5027C52.27 49.0878 51.6764 48.6586 51.0842 48.2495C50.9073 48.1268 50.7246 47.9714 50.7175 47.7519C50.7104 47.5295 50.8816 47.3641 51.05 47.2315C52.5997 46.0168 54.1851 44.7507 55.7619 43.4647C56.16 43.141 56.4711 43.2195 56.8164 43.4376L56.8407 43.4533C57.7725 44.0407 58.2391 44.3358 58.3104 44.7692C58.3832 45.2027 58.0393 45.6261 57.3572 46.4701L57.3601 46.4716Z" fill="#FF6700"/>
<path d="M50.8496 39.6386C50.6583 39.8468 50.4001 39.9665 50.1204 39.9737C49.5639 39.9879 49.0958 39.5488 49.0644 38.9928C49.0473 38.7076 49.1457 38.4353 49.3398 38.2243C49.531 38.0161 49.7907 37.8964 50.0676 37.8892C50.6184 37.8707 51.0936 38.3141 51.125 38.8701C51.1421 39.1553 51.0436 39.4276 50.8496 39.6386Z" fill="#FF6700"/>
</g>
<defs>
<clipPath id="clip0_989_784">
<rect width="42.6667" height="37.7164" fill="white" transform="translate(18.668 21.334)"/>
</clipPath>
</defs>
</svg>
