<svg width="24" height="24" viewBox="0 0 24 24" fill="none" xmlns="http://www.w3.org/2000/svg">
<mask id="mask0_1220_4842" style="mask-type:alpha" maskUnits="userSpaceOnUse" x="0" y="0" width="24" height="24">
<rect width="24" height="24" fill="#D9D9D9"/>
</mask>
<g mask="url(#mask0_1220_4842)">
<path d="M14.6417 0.769682C14.1778 0.282453 13.5043 0.00954011 12.7442 0.00311864C12.2634 -0.00169746 11.7802 -9.2091e-05 11.3267 0.00231596C10.5151 0.00632938 9.83607 0.271215 9.36409 0.767274C8.89854 1.25611 8.67138 1.93357 8.7067 2.72662C8.7669 4.07594 8.84797 5.44772 8.92663 6.77376C8.95874 7.31958 8.99165 7.86541 9.02215 8.41043H9.03018L9.0366 8.53244C9.05265 8.8198 9.06791 9.10716 9.08396 9.39372C9.11847 10.0238 9.15379 10.6764 9.19312 11.3169C9.2148 11.6782 9.23486 12.0386 9.25413 12.3998C9.3055 13.3437 9.35767 14.3206 9.46202 15.2734C9.58563 16.4052 10.5737 17.305 11.7601 17.366C13.1215 17.4358 14.1714 16.7423 14.4981 15.5535C14.5839 15.2413 14.6008 14.9202 14.6193 14.5799L14.6257 14.4538C14.6883 13.359 14.7533 12.2625 14.8175 11.1676C14.8689 10.312 14.9187 9.45633 14.9684 8.59906C14.9981 8.08374 15.0294 7.56922 15.0591 7.05389C15.1458 5.61067 15.2341 4.11928 15.2967 2.65117C15.328 1.91511 15.0945 1.24728 14.6409 0.768076L14.6417 0.769682ZM14.1184 2.65358C14.0622 3.87286 13.99 5.1114 13.9201 6.309L13.8856 6.90379C13.7909 8.53966 13.693 10.1771 13.5966 11.813L13.4457 14.3591C13.4417 14.4249 13.4401 14.4908 13.4377 14.5566C13.4337 14.6802 13.4297 14.807 13.4144 14.9338C13.3181 15.7325 12.802 16.19 11.9985 16.19H11.9905C11.1757 16.1868 10.6524 15.7076 10.5906 14.9074C10.5248 14.0645 10.4782 13.2073 10.4325 12.3781C10.4164 12.0723 10.3996 11.7656 10.3811 11.4598C10.3377 10.7093 10.2944 9.95881 10.2495 9.2083C10.1299 7.16225 10.0062 5.04558 9.89627 2.96422C9.85935 2.25705 9.95166 1.83966 10.2069 1.57156C10.4654 1.29785 10.8924 1.18226 11.6333 1.18226H12.0121C12.0884 1.18146 12.1647 1.18226 12.2409 1.18146C12.4014 1.18066 12.562 1.18066 12.7225 1.18306C13.1833 1.18949 13.5405 1.32434 13.7845 1.5828C14.0261 1.83886 14.1393 2.20006 14.1176 2.65358H14.1184Z" fill="#FF6700"/>
<path d="M2.62293 20.7133C2.7955 21.0769 2.70801 21.4036 2.39175 21.5649C2.08914 21.7198 1.79135 21.6123 1.59469 21.2767C0.998295 20.2613 0.560032 19.1368 0.293541 17.936C0.0872517 17.0105 -0.00826968 16.1452 0.000559839 15.2895C0.0206269 13.1857 0.540766 11.2143 1.54573 9.42752C1.66613 9.21321 1.85636 8.98926 2.12767 8.98926C2.19831 8.98926 2.27536 9.00451 2.35724 9.03983C2.52099 9.11046 2.63336 9.22204 2.68232 9.36572C2.74253 9.5407 2.70641 9.76064 2.58279 9.98539C1.97355 11.0835 1.56018 12.2441 1.35228 13.4321C0.930872 15.8482 1.30572 18.2001 2.46721 20.4259C2.48888 20.4684 2.51296 20.5086 2.53624 20.5503C2.56754 20.6057 2.59804 20.6587 2.62373 20.7125L2.62293 20.7133Z" fill="#FF6700"/>
<path d="M24.0016 15.2206C24.0016 15.2559 24.0008 15.2929 24.0008 15.3282C23.9839 17.3927 23.4742 19.3528 22.4845 21.1541C22.275 21.5353 22.0631 21.667 21.7541 21.6068C21.567 21.5715 21.429 21.4703 21.3567 21.3162C21.266 21.122 21.2917 20.8699 21.4282 20.6235C22.1426 19.3247 22.5857 17.9409 22.7454 16.5113C22.9902 14.3184 22.58 12.1881 21.5253 10.1814C21.5101 10.1525 21.494 10.1228 21.4771 10.0947C21.4627 10.0682 21.4483 10.0417 21.4338 10.0152C21.2749 9.71341 21.1745 9.30565 21.5984 9.07448C21.6971 9.0207 21.7886 8.99902 21.8729 8.99902C22.1642 8.99902 22.3673 9.26953 22.4757 9.46057C23.0408 10.4687 23.4558 11.5524 23.7062 12.6817C23.9037 13.5703 24.0008 14.4019 24.0008 15.2198L24.0016 15.2206Z" fill="#FF6700"/>
<path d="M12.0278 19.0314C11.3568 19.0249 10.7315 19.281 10.2587 19.749C9.78592 20.2169 9.52424 20.8422 9.52344 21.5093C9.52103 22.869 10.6207 23.9831 11.9756 23.9952H11.9965C12.6563 23.9952 13.276 23.7407 13.7448 23.2768C14.2175 22.808 14.4792 22.1835 14.4808 21.5165C14.4824 20.1575 13.3827 19.0434 12.0278 19.0314ZM13.2961 21.5189C13.2953 21.8761 13.1532 22.2076 12.8971 22.454C12.6539 22.6884 12.3377 22.816 12.0029 22.816C11.9877 22.816 11.9724 22.8152 11.9564 22.8152C11.2516 22.7903 10.6905 22.1923 10.7074 21.482C10.7243 20.7716 11.3142 20.2033 12.0198 20.2113C12.7245 20.2217 13.2961 20.8053 13.2961 21.5133V21.5189Z" fill="#FF6700"/>
<path d="M4.88257 20.1226C4.7429 20.2045 4.60564 20.227 4.47561 20.1925C4.29581 20.1435 4.12323 19.9813 3.97794 19.7245C3.21459 18.3712 2.84375 16.7554 2.84375 14.7848C2.85338 13.6434 3.29085 12.1512 3.98517 10.8885C4.12162 10.6413 4.41621 10.26 4.85688 10.4888C5.00458 10.5659 5.1001 10.6686 5.14023 10.797C5.19562 10.9712 5.15227 11.2016 5.01581 11.4641C3.68336 14.0214 3.68496 16.6149 5.02143 19.173C5.2526 19.6153 5.20525 19.9348 4.88177 20.1226H4.88257Z" fill="#FF6700"/>
<path d="M21.1601 15.3527C21.1424 16.9035 20.7611 18.3716 20.0251 19.7153C19.887 19.9681 19.7177 20.1287 19.537 20.18C19.403 20.217 19.2633 20.1945 19.1229 20.1134C18.8002 19.9272 18.7528 19.6069 18.984 19.163C20.3156 16.6033 20.314 14.0098 18.9792 11.4524C18.8202 11.1474 18.7175 10.7365 19.1293 10.5069C19.2232 10.4539 19.3171 10.4282 19.4094 10.4282C19.4552 10.4282 19.4993 10.4346 19.5443 10.4467C19.7201 10.4981 19.8806 10.6466 20.0082 10.8777C20.766 12.2487 21.1537 13.7545 21.1609 15.3535L21.1601 15.3527Z" fill="#FF6700"/>
<path d="M7.33091 18.7017C7.18642 18.7828 7.04355 18.8021 6.90629 18.7619C6.7313 18.709 6.57638 18.5605 6.45759 18.3317C5.41972 16.3298 5.42052 14.2942 6.45919 12.2827C6.60448 12.0001 6.78508 11.8661 7.04355 11.8452C7.25064 11.8444 7.42964 11.9367 7.53158 12.1037C7.65118 12.2995 7.64716 12.558 7.52114 12.7948C7.12382 13.5421 6.9103 14.2798 6.86936 15.0519C6.8204 15.9758 7.02669 16.8853 7.48181 17.7546C7.71299 18.1969 7.66161 18.5155 7.3301 18.7009L7.33091 18.7017Z" fill="#FF6700"/>
<path d="M18.3225 15.3182C18.3072 16.4035 18.0576 17.3827 17.5575 18.3123C17.4443 18.5234 17.3023 18.6695 17.1473 18.7337C16.9988 18.7947 16.8431 18.7826 16.6834 18.6967C16.2668 18.472 16.3647 18.0602 16.5213 17.7536C17.3464 16.1362 17.3472 14.4963 16.5245 12.8797C16.3679 12.5715 16.2668 12.1573 16.677 11.9325C16.7709 11.8812 16.8632 11.8555 16.9539 11.8555C17.0005 11.8555 17.0446 11.8627 17.0896 11.8755C17.271 11.9301 17.4395 12.0939 17.576 12.3499C18.0616 13.2594 18.3136 14.2579 18.3233 15.319L18.3225 15.3182Z" fill="#FF6700"/>
</g>
</svg>
