<svg width="24" height="24" viewBox="0 0 24 24" fill="none" xmlns="http://www.w3.org/2000/svg">
<mask id="mask0_1220_5431" style="mask-type:alpha" maskUnits="userSpaceOnUse" x="0" y="0" width="24" height="24">
<rect width="24" height="23.9999" fill="#D9D9D9"/>
</mask>
<g mask="url(#mask0_1220_5431)">
<path d="M23.9993 2.26988C23.9993 0.808209 23.1854 0.00232328 21.7084 0.00152061C19.4216 -8.47407e-05 17.1348 0.000717934 14.8479 0.000717934H9.18344C6.85809 -8.47406e-05 4.53272 -0.000887415 2.20817 0.00232328C0.828363 0.00392863 0.00321071 0.830684 0.00240804 2.21369C-0.000802678 6.45182 -0.000802678 10.9885 0.00240804 16.0815C0.00321071 17.4998 0.815521 18.3145 2.23145 18.3178C3.48603 18.3202 4.73982 18.3194 5.9944 18.3186H7.62625C8.04605 18.3186 8.25715 18.3186 8.38959 18.4478C8.52284 18.5786 8.52284 18.7857 8.52284 19.1983C8.52284 19.9127 8.47307 19.964 7.76752 19.9793C6.52176 20.005 5.70383 20.8309 5.68377 22.0807C5.67654 22.539 5.67734 22.9396 5.68457 23.3064C5.695 23.7751 5.9037 23.9943 6.34036 23.9951C9.94117 24.0015 13.7475 24.0015 17.6517 23.9959C18.086 23.9951 18.3027 23.788 18.3139 23.3626C18.3276 22.8834 18.3372 22.3721 18.3059 21.8592C18.2425 20.8486 17.4518 20.0612 16.4252 19.9865C15.5302 19.9207 15.4764 19.8637 15.478 18.9711C15.478 18.9591 15.478 18.9471 15.4789 18.9358C15.4797 18.9206 15.4805 18.9061 15.4789 18.8981C15.4572 18.7713 15.4403 18.5891 15.5503 18.4598C15.6643 18.3242 15.8682 18.3089 16.0335 18.3105C17.5602 18.325 19.1118 18.3226 20.6128 18.3202L21.7125 18.3186C23.1854 18.317 23.9985 17.5095 23.9985 16.0454C24.0001 11.4541 24.0009 6.86278 23.9985 2.27148L23.9993 2.26988ZM16.1098 21.16C16.7407 21.16 17.0762 21.4185 17.1356 21.9491C17.1781 22.3207 17.203 22.5438 17.0802 22.6819C16.9566 22.82 16.7342 22.82 16.3642 22.82H12.0105C11.6132 22.82 11.2158 22.8192 10.8177 22.8184C9.68913 22.8167 8.52123 22.8159 7.37421 22.8264H7.35574C7.21929 22.8264 7.06919 22.8103 6.96966 22.7108C6.86611 22.6064 6.85407 22.4499 6.85568 22.3103C6.86852 21.4394 7.13902 21.1608 7.9706 21.16C10.6836 21.1592 13.3975 21.1584 16.1106 21.1608L16.1098 21.16ZM9.69716 19.4656V19.4319C9.69796 18.3707 9.75174 18.3186 10.8466 18.3186H12.0265C12.1975 18.3186 12.3677 18.3194 12.5386 18.3194C12.9576 18.3218 13.3919 18.3234 13.8165 18.3137C14.0477 18.3097 14.2965 18.3386 14.3069 18.7576V18.7937C14.3222 19.3556 14.3294 19.6382 14.1641 19.8075C13.9971 19.9785 13.7081 19.9785 13.1334 19.9785C12.8589 19.9785 12.5852 19.9777 12.3115 19.9769C11.622 19.9745 10.9092 19.9713 10.2093 19.9865H10.178C10.056 19.9865 9.91308 19.9705 9.81595 19.8749C9.7108 19.7722 9.69636 19.6181 9.69716 19.4664V19.4656ZM22.0785 17.1274C22.0143 17.137 21.95 17.1394 21.8874 17.1394C21.8609 17.1394 21.8337 17.1386 21.8072 17.1386C21.7815 17.1378 21.7558 17.1378 21.7309 17.1378H20.5863C14.4835 17.1378 8.37996 17.1386 2.2764 17.1378C1.85579 17.1378 1.54515 17.0198 1.35251 16.7879C1.15425 16.5479 1.09565 16.2027 1.17994 15.7596C1.23612 15.4659 1.44643 15.4739 1.5596 15.4779C1.57566 15.4787 1.59171 15.4787 1.60937 15.4795C2.05646 15.4763 2.50275 15.4771 2.94984 15.4771H13.8895C16.5665 15.4763 19.3357 15.4755 22.0592 15.4899C22.0921 15.4867 22.1475 15.4779 22.2045 15.4659C22.3458 15.4345 22.5208 15.3952 22.6596 15.4972C22.7551 15.5686 22.8081 15.6882 22.8209 15.8648C22.8787 16.6337 22.6363 17.0463 22.0801 17.1274H22.0785ZM22.6957 14.1719C22.5745 14.2931 22.3923 14.306 22.1981 14.306H22.178C19.5444 14.2956 16.8667 14.2964 14.2764 14.2972C12.7321 14.298 11.1869 14.298 9.64338 14.2972C7.08043 14.2964 4.43078 14.2956 1.82449 14.306C1.62221 14.306 1.43198 14.2972 1.30756 14.1719C1.20963 14.074 1.1687 13.9279 1.1695 13.6839C1.18555 10.8529 1.18475 7.97449 1.18315 5.19001C1.18315 4.21958 1.18234 3.24834 1.18234 2.27791C1.18315 1.45838 1.46489 1.18145 2.29807 1.18145C8.76685 1.18065 15.2364 1.18065 21.7052 1.18145C22.5384 1.18145 22.8202 1.45757 22.8202 2.27791C22.821 3.24754 22.8201 4.21797 22.8193 5.1876C22.8185 7.97288 22.8169 10.8521 22.833 13.6839C22.8346 13.9279 22.7929 14.074 22.6957 14.1719Z" fill="#FF6700"/>
<path d="M19.0297 8.78213C19.0297 8.45062 19.0289 8.11912 19.0289 7.78761V6.79792C19.0297 6.02414 19.0305 5.25036 19.0281 4.47658C19.0273 4.0311 18.9334 3.74775 18.7503 3.63457C18.5697 3.523 18.28 3.56474 17.8899 3.75899L17.34 4.0327C16.6465 4.37705 15.9297 4.73344 15.2306 5.09223C15.1174 5.15083 14.985 5.20862 14.859 5.16206C14.7353 5.11551 14.6711 4.98869 14.623 4.86989C14.2891 4.03832 13.6638 3.59043 12.8153 3.57758C11.9179 3.56394 10.8656 3.55029 9.74269 3.55029C8.81399 3.55029 7.83713 3.55912 6.86107 3.58401C5.78869 3.6113 5.0422 4.35217 5.00528 5.42614C4.9515 6.96006 4.9515 8.51644 5.00448 10.052C5.0414 11.1267 5.78789 11.8684 6.86027 11.8949C9.00984 11.9503 11.1715 11.927 12.8137 11.9021C13.6622 11.8893 14.2875 11.4422 14.623 10.6098C14.6711 10.4918 14.7362 10.3634 14.8598 10.3176C14.9858 10.2703 15.1158 10.3289 15.2298 10.3867C16.0285 10.7968 16.8456 11.203 17.6362 11.5963L17.9308 11.7424C18.1796 11.866 18.5232 11.984 18.7487 11.8443C18.9293 11.7336 19.0257 11.4582 19.0281 11.0513C19.0313 10.2952 19.0305 9.52541 19.0297 8.78213ZM13.5835 9.69718C13.5795 10.4308 13.2801 10.7342 12.5497 10.7423C11.9099 10.7495 11.2589 10.7479 10.6288 10.7463C10.3551 10.7455 10.0806 10.7447 9.8069 10.7447C9.55165 10.7447 9.2964 10.7455 9.04034 10.7463C8.76663 10.7471 8.4873 10.7479 8.20797 10.7479C7.8588 10.7479 7.50643 10.7463 7.15806 10.7431C6.44127 10.735 6.16033 10.4509 6.15552 9.73009C6.14749 8.43056 6.14749 7.0933 6.15471 5.75685C6.15953 5.00474 6.43164 4.73665 7.19659 4.73424C8.94162 4.72862 10.7228 4.72862 12.4919 4.73424C13.2849 4.73665 13.5811 5.03123 13.5843 5.81945C13.5891 7.26186 13.5891 8.53009 13.5835 9.69638V9.69718ZM17.8441 7.13825C17.8449 7.33571 17.8449 7.53477 17.8449 7.73303V8.33102C17.8441 8.81504 17.8433 9.31591 17.8473 9.80795C17.8481 9.95724 17.8337 10.1049 17.7181 10.1756C17.6796 10.1997 17.637 10.2093 17.5945 10.2093C17.5086 10.2093 17.4203 10.1708 17.3457 10.1322C16.5558 9.72367 15.7531 9.32795 15.0725 8.99403C14.9304 8.9242 14.745 8.79979 14.7691 8.51243C14.7707 8.49798 14.7699 8.48434 14.7691 8.46908C14.7683 8.45383 14.7683 8.44099 14.7683 8.42574C14.7707 8.2636 14.7578 8.08862 14.7458 7.92005C14.7169 7.5139 14.6864 7.09491 14.8437 6.74735C15.0099 6.38293 15.4064 6.23524 15.7909 6.09156C15.9602 6.02895 16.1352 5.96313 16.2813 5.88126C16.4675 5.77691 16.6634 5.683 16.8512 5.5915C17.0117 5.51364 17.1771 5.43417 17.3344 5.34909C17.4484 5.28728 17.5953 5.22467 17.7149 5.29772C17.8345 5.36915 17.8489 5.52648 17.8473 5.65491C17.8425 6.14775 17.8433 6.64942 17.8441 7.13584V7.13825Z" fill="#FF6700"/>
</g>
</svg>
