<svg width="41" height="42" viewBox="0 0 41 42" fill="none" xmlns="http://www.w3.org/2000/svg">
<g clip-path="url(#clip0_992_4882)">
<path d="M20.4879 41.606C15.8626 41.606 11.2357 41.6076 6.61047 41.606C5.26709 41.606 4.85386 41.1902 4.84589 39.8351C4.8395 38.5249 4.83631 37.2131 4.84589 35.9014C4.85705 34.6153 5.31336 34.1561 6.57059 34.1288C7.84909 34.101 8.48834 33.447 8.48834 32.1668C8.48834 28.7148 8.47558 25.2644 8.49313 21.8124C8.52663 15.4382 13.8874 10.1575 20.2182 9.99208C25.9172 9.84437 31.5269 14.0157 32.4539 20.422C32.5305 20.9486 32.5305 21.4881 32.5321 22.0227C32.5384 25.7413 32.5544 29.4614 32.5209 33.1799C32.5145 33.9169 32.7315 34.1465 33.467 34.1433C36.0772 34.1288 36.1809 34.2605 36.1809 36.9145C36.1809 37.9581 36.1953 39.0018 36.1745 40.0454C36.1538 41.142 35.6879 41.6028 34.603 41.6028C29.8979 41.6092 25.1913 41.606 20.4863 41.606H20.4879ZM20.4783 34.1272C23.3741 34.1272 26.2698 34.1128 29.1656 34.1385C29.8134 34.1449 30.0687 33.949 30.0399 33.2714C29.9937 32.2037 30.0463 31.1328 30.024 30.0635C29.9618 26.992 30.225 23.9109 29.8772 20.849C29.3778 16.4369 25.6141 12.4695 20.3491 12.5867C14.9755 12.7055 11.0666 16.872 11.006 22.2941C10.9661 25.9564 11.0124 29.6203 10.9837 33.2827C10.9789 33.9715 11.2325 34.1449 11.8691 34.1385C14.7378 34.1144 17.608 34.1272 20.4767 34.1272H20.4783ZM20.515 39.0804C24.5563 39.0804 28.596 39.082 32.6374 39.0772C32.9198 39.0772 33.3314 39.2025 33.4463 38.9054C33.6792 38.3017 33.6616 37.6226 33.4718 37.0189C33.3346 36.5822 32.8192 36.7732 32.473 36.7732C24.4973 36.7636 16.5231 36.7652 8.54737 36.7652C8.41495 36.7652 8.28093 36.7764 8.14851 36.7652C7.62041 36.7218 7.42895 36.9884 7.46245 37.4893C7.47681 37.7029 7.48639 37.9196 7.45926 38.1299C7.36992 38.8524 7.63955 39.1029 8.39261 39.0965C12.4323 39.0612 16.4737 39.0804 20.515 39.0804Z" fill="#FF6700"/>
<path d="M9.68341 3.30762C10.1445 3.32367 10.545 3.55648 10.8018 4.00444C11.574 5.34189 12.3526 6.67613 13.0961 8.02803C13.5093 8.77945 13.3019 9.51801 12.6414 9.89051C12.0144 10.2437 11.3283 10.0463 10.8864 9.30929C10.0934 7.98468 9.31486 6.65044 8.57616 5.29533C8.07199 4.37372 8.64636 3.33812 9.68341 3.30762Z" fill="#FF6700"/>
<path d="M29.0381 10.0588C28.1367 10.0765 27.4108 9.11796 27.8128 8.33282C28.5994 6.79468 29.4657 5.29345 30.3735 3.82435C30.7325 3.24312 31.3707 3.14518 31.9977 3.49038C32.5801 3.8115 32.8465 4.53562 32.5163 5.14414C31.7281 6.59398 30.8889 8.01492 30.056 9.44068C29.8263 9.83404 29.4386 10.0091 29.0381 10.0604V10.0588Z" fill="#FF6700"/>
<path d="M7.1669 14.8917C7.1669 15.9354 6.26226 16.5664 5.37837 16.1072C3.89778 15.3381 2.46026 14.4743 1.04029 13.5944C0.47869 13.246 0.363816 12.6359 0.654191 12.0354C0.962117 11.398 1.55882 11.0961 2.17946 11.3884C3.76216 12.1334 5.26031 13.0501 6.73133 14.0006C7.0584 14.211 7.18285 14.5835 7.16849 14.8901L7.1669 14.8917Z" fill="#FF6700"/>
<path d="M40.4999 12.5591C40.5015 13.0889 40.2558 13.4727 39.8074 13.7344C38.5007 14.497 37.2036 15.2757 35.8826 16.0127C35.112 16.4414 34.3573 16.2519 34.0063 15.6145C33.6441 14.9594 33.8659 14.2289 34.6094 13.7841C35.8842 13.0215 37.1621 12.2604 38.4641 11.5443C39.4596 10.9968 40.4839 11.5331 40.4999 12.5591Z" fill="#FF6700"/>
<path d="M21.6863 4.0575C21.6863 4.83139 21.7023 5.60367 21.6815 6.37756C21.6592 7.23013 21.187 7.72144 20.4323 7.71983C19.6792 7.71983 19.1974 7.22692 19.1862 6.37435C19.1671 4.82818 19.1671 3.282 19.1862 1.73582C19.1974 0.884863 19.6824 0.393555 20.4355 0.393555C21.1885 0.393555 21.6608 0.884863 21.6815 1.73903C21.7007 2.51132 21.6863 3.28521 21.6863 4.0591V4.0575Z" fill="#FF6700"/>
</g>
<defs>
<clipPath id="clip0_992_4882">
<rect width="40" height="41.2121" fill="white" transform="translate(0.5 0.393555)"/>
</clipPath>
</defs>
</svg>
