<svg width="28" height="44" viewBox="0 0 28 44" fill="none" xmlns="http://www.w3.org/2000/svg">
<path d="M0.670664 22.0006C0.670664 16.2184 0.669237 10.4377 0.670664 4.65562C0.670664 2.11846 2.11905 0.670071 4.65336 0.668644C10.8022 0.66579 16.9496 0.66579 23.0985 0.668644C25.6342 0.668644 27.0812 2.11703 27.0812 4.6542C27.084 16.217 27.084 27.7798 27.0812 39.3441C27.0812 41.8812 25.6328 43.3296 23.0985 43.331C16.9496 43.3339 10.8022 43.3339 4.65336 43.331C2.11905 43.331 0.670664 41.8812 0.669237 39.3441C0.666383 33.5619 0.669237 27.7812 0.669237 21.9991L0.670664 22.0006ZM25.0477 22.0291C25.0477 20.5636 25.0477 19.0967 25.0477 17.6311C25.0477 13.2603 25.052 8.8909 25.0449 4.52006C25.0435 3.28287 24.467 2.72207 23.2298 2.70637C22.8074 2.70066 22.3836 2.70637 21.9612 2.70637C20.89 2.70637 20.3406 3.23911 20.313 4.30458C20.2774 5.69303 19.3641 6.73473 18.0341 6.75328C15.2715 6.79181 12.5075 6.7861 9.74482 6.75614C8.54473 6.74329 7.61434 5.82574 7.45167 4.66561C7.36177 4.02062 7.77702 3.13161 7.21622 2.78913C6.72106 2.48661 5.90197 2.7135 5.22558 2.70779C5.05577 2.70637 4.88739 2.70779 4.71758 2.70779C3.21354 2.7135 2.70839 3.22294 2.70839 4.75409C2.70839 16.257 2.70839 27.7613 2.70839 39.2641C2.70839 40.7853 3.21782 41.2962 4.73042 41.2976C10.8208 41.299 16.9111 41.299 23 41.2976C24.5554 41.2976 25.0463 40.7939 25.0463 39.2028C25.0463 33.4792 25.0463 27.7556 25.0463 22.0319L25.0477 22.0291ZM13.9187 2.70494C12.6516 2.70494 11.383 2.73206 10.1173 2.6921C9.57501 2.67498 9.41376 2.86334 9.47512 3.36706C9.50509 3.61678 9.49225 3.87364 9.47941 4.12621C9.458 4.55431 9.64351 4.73553 10.0787 4.73411C12.6131 4.72554 15.1488 4.72554 17.6831 4.73411C18.1198 4.73553 18.301 4.55003 18.2796 4.12336C18.2667 3.87078 18.2525 3.61393 18.2839 3.36421C18.3467 2.85763 18.1768 2.67498 17.6389 2.6921C16.4003 2.73206 15.1602 2.70494 13.9216 2.70494H13.9187Z" fill="#FF6700"/>
<path d="M13.8775 37.9156C13.0313 37.9156 12.1851 37.9184 11.3389 37.9156C10.644 37.9127 10.1659 37.6016 10.1759 36.8739C10.1859 36.196 10.6426 35.8835 11.3018 35.8821C13.0228 35.8778 14.7423 35.8778 16.4632 35.8821C17.1253 35.8835 17.5762 36.2018 17.5834 36.8796C17.5905 37.6059 17.1125 37.9156 16.4161 37.9156C15.5699 37.9156 14.7237 37.9156 13.8775 37.9156Z" fill="#FF6700"/>
</svg>
