<?xml version="1.0" encoding="utf-8"?>
<!-- Generator: Adobe Illustrator 28.3.0, SVG Export Plug-In . SVG Version: 6.00 Build 0)  -->
<svg version="1.1" id="Capa_1" xmlns="http://www.w3.org/2000/svg" xmlns:xlink="http://www.w3.org/1999/xlink" x="0px" y="0px"
	 viewBox="0 0 12 12" style="enable-background:new 0 0 12 12;" xml:space="preserve">
<style type="text/css">
	.st0{fill:#FFFFFF;}
</style>
<path class="st0" d="M6,0C4.4,0,4.2,0,3.5,0c-0.6,0-1.1,0.1-1.5,0.3C1.7,0.5,1.3,0.7,1,1C0.7,1.3,0.5,1.7,0.3,2.1
	C0.2,2.5,0.1,2.9,0,3.5C0,4.2,0,4.4,0,6c0,1.6,0,1.8,0,2.5c0,0.6,0.1,1.1,0.3,1.5C0.5,10.3,0.7,10.7,1,11c0.3,0.3,0.7,0.5,1.1,0.7
	c0.4,0.1,0.8,0.2,1.5,0.3c0.6,0,0.8,0,2.5,0s1.8,0,2.5,0c0.6,0,1.1-0.1,1.5-0.3c0.4-0.2,0.8-0.4,1.1-0.7c0.3-0.3,0.5-0.7,0.7-1.1
	c0.1-0.4,0.2-0.8,0.3-1.5c0-0.6,0-0.8,0-2.5s0-1.8,0-2.5c0-0.6-0.1-1.1-0.3-1.5C11.5,1.7,11.3,1.3,11,1c-0.3-0.3-0.7-0.5-1.1-0.7
	C9.5,0.2,9.1,0.1,8.5,0C7.8,0,7.6,0,6,0L6,0z M5.5,1.1H6c1.6,0,1.8,0,2.4,0c0.6,0,0.9,0.1,1.1,0.2c0.3,0.1,0.5,0.2,0.7,0.4
	s0.3,0.4,0.4,0.7c0.1,0.2,0.2,0.5,0.2,1.1c0,0.6,0,0.8,0,2.4s0,1.8,0,2.4c0,0.6-0.1,0.9-0.2,1.1c-0.1,0.3-0.3,0.5-0.4,0.7
	c-0.2,0.2-0.4,0.3-0.7,0.4c-0.2,0.1-0.5,0.2-1.1,0.2c-0.6,0-0.8,0-2.4,0s-1.8,0-2.4,0c-0.6,0-0.9-0.1-1.1-0.2
	c-0.3-0.1-0.5-0.2-0.7-0.4C1.6,10,1.4,9.8,1.3,9.5C1.2,9.3,1.1,9,1.1,8.4c0-0.6,0-0.8,0-2.4s0-1.8,0-2.4c0-0.6,0.1-0.9,0.2-1.1
	C1.4,2.2,1.6,2,1.8,1.8s0.4-0.3,0.7-0.4C2.7,1.2,3,1.1,3.6,1.1C4.1,1.1,4.3,1.1,5.5,1.1L5.5,1.1z M9.2,2.1c-0.4,0-0.7,0.3-0.7,0.7
	s0.3,0.7,0.7,0.7l0,0c0.4,0,0.7-0.3,0.7-0.7S9.6,2.1,9.2,2.1 M6,2.9c-1.7,0-3.1,1.3-3.1,3c0,1.7,1.3,3.1,3,3.1c0,0,0.1,0,0.1,0
	c1.7,0,3.1-1.4,3-3.1C9,4.3,7.7,2.9,6,2.9 M6,4c1.1,0,2,0.9,2,2S7.1,8,6,8c0,0,0,0,0,0C4.9,8,4,7.1,4,6S4.9,4,6,4"/>
</svg>
