<?xml version="1.0" encoding="utf-8"?>
<!-- Generator: Adobe Illustrator 28.3.0, SVG Export Plug-In . SVG Version: 6.00 Build 0)  -->
<svg version="1.1" id="Capa_1" xmlns="http://www.w3.org/2000/svg" xmlns:xlink="http://www.w3.org/1999/xlink" x="0px" y="0px"
	 viewBox="0 0 12 12" style="enable-background:new 0 0 12 12;" xml:space="preserve">
<style type="text/css">
	.st0{fill:#FFFFFF;}
</style>
<path class="st0" d="M4.3,0.8c0.3-0.3,0.8-0.3,1.1,0l0.5,0.5C6,1.4,6,1.6,5.9,1.8c-0.1,0.1-0.4,0.1-0.5,0L4.9,1.3L1.5,4.7v4.7
	c0,0.2,0.2,0.4,0.4,0.4s0.4,0.2,0.4,0.4s-0.2,0.4-0.4,0.4c-0.6,0-1.1-0.5-1.1-1.1v-4L0.6,5.5c-0.1,0.1-0.4,0.1-0.5,0S0,5.1,0.1,5
	c0,0,0,0,0,0L4.3,0.8z M6.6,1.5c0.3-0.3,0.8-0.3,1.1,0L9,2.8v-1c0-0.2,0.2-0.4,0.4-0.4h0.8c0.2,0,0.4,0.2,0.4,0.4v2.5l1.4,1.4
	c0.1,0.1,0.1,0.4,0,0.5c-0.1,0.1-0.4,0.1-0.5,0l-0.1-0.1v4c0,0.6-0.5,1.1-1.1,1.1h-6c-0.6,0-1.1-0.5-1.1-1.1v-4L2.9,6.3
	c-0.1,0.1-0.4,0.1-0.5,0c-0.1-0.1-0.1-0.4,0-0.5l0,0L6.6,1.5z M7.1,2L3.8,5.4v4.7c0,0.2,0.2,0.4,0.4,0.4h6c0.2,0,0.4-0.2,0.4-0.4
	V5.4L7.1,2z"/>
</svg>
