<?xml version="1.0" encoding="utf-8"?>
<!-- Generator: Adobe Illustrator 28.3.0, SVG Export Plug-In . SVG Version: 6.00 Build 0)  -->
<svg version="1.1" id="Capa_1" xmlns="http://www.w3.org/2000/svg" xmlns:xlink="http://www.w3.org/1999/xlink" x="0px" y="0px"
	 viewBox="0 0 12 12" style="enable-background:new 0 0 12 12;" xml:space="preserve">
<style type="text/css">
	.st0{fill:#FFFFFF;}
</style>
<path class="st0" d="M9.6,1.5C9.4,1.2,9.1,1,8.7,1H3.3C2.9,1,2.6,1.2,2.4,1.5L1.1,3.7C1,3.8,1,3.9,1,4c0,0.5,0.2,0.9,0.5,1.3v4.2
	c0,0.6,0.4,1,1,1h7c0.6,0,1-0.4,1-1V5.3C10.8,4.9,11,4.5,11,4c0-0.1,0-0.2-0.1-0.3L9.6,1.5z M10,4.1C9.9,4.6,9.5,5,9,5
	C8.4,5,8,4.6,8,4c0,0,0-0.1,0-0.1l0,0L7.6,2h1.1L10,4.1z M5.4,2h1.2L7,4c0,0.5-0.5,1-1,1S5,4.6,5,4L5.4,2z M3.3,2h1.1L4,3.9l0,0
	C4,3.9,4,4,4,4c0,0.6-0.4,1-1,1C2.5,5,2.1,4.6,2,4.1L3.3,2z M5,9.5V8h2v1.5H5z M8,9.5V8c0-0.6-0.4-1-1-1H5C4.4,7,4,7.4,4,8v1.5H2.5
	V5.9C2.7,6,2.8,6,3,6c0.6,0,1.1-0.2,1.5-0.7C4.9,5.7,5.4,6,6,6s1.1-0.3,1.5-0.7C7.9,5.8,8.4,6,9,6c0.2,0,0.3,0,0.5-0.1v3.6H8z"/>
</svg>
