<svg width="24" height="24" viewBox="0 0 24 24" fill="none" xmlns="http://www.w3.org/2000/svg">
<mask id="mask0_1220_6013" style="mask-type:alpha" maskUnits="userSpaceOnUse" x="0" y="0" width="24" height="24">
<rect width="24" height="24" fill="#D9D9D9"/>
</mask>
<g mask="url(#mask0_1220_6013)">
<path d="M18.8784 2.51327C18.88 2.04692 18.7106 1.76036 18.3109 1.55568C14.2678 -0.515211 10.1638 -0.518422 6.1127 1.54525C5.68889 1.76036 5.51872 2.05093 5.52354 2.54779C5.53718 3.86738 5.53477 5.21025 5.53317 6.50897C5.53237 6.9978 5.53156 7.48663 5.53156 7.97626C5.53156 8.46589 5.53237 8.96274 5.53237 9.45638C5.53477 10.7872 5.53638 12.163 5.52354 13.5163C5.51952 13.9843 5.68969 14.2708 6.09183 14.4763C8.12098 15.5101 10.163 16.0271 12.2042 16.0271C14.2454 16.0271 16.2729 15.5133 18.2916 14.4867C18.705 14.2764 18.8808 13.9931 18.8792 13.5396C18.8672 10.0359 18.8664 6.32677 18.8784 2.51327ZM17.3308 13.7587C15.6292 14.5405 13.9163 14.9306 12.2034 14.9306C10.4905 14.9306 8.77837 14.5405 7.07831 13.7603C6.73878 13.6046 6.6248 13.4192 6.62721 13.0259C6.64326 9.75979 6.64326 6.39018 6.62721 3.01093C6.62561 2.61521 6.73878 2.42899 7.0751 2.27327C8.77596 1.48906 10.4889 1.09736 12.2018 1.09736C13.9147 1.09736 15.6581 1.49629 17.3742 2.29494C17.6776 2.43621 17.7787 2.60156 17.7747 2.94912C17.7595 4.18443 17.7619 5.43901 17.7643 6.65345C17.7651 7.09733 17.7659 7.54121 17.7659 7.98509C17.7659 8.42896 17.7651 8.89211 17.7635 9.34562C17.7611 10.5504 17.7587 11.7962 17.7755 13.0211C17.7803 13.4176 17.668 13.6038 17.3308 13.7587Z" fill="#FF6700"/>
<path d="M19.7198 19.9378C19.5986 19.8182 19.4726 19.7596 19.3393 19.7628C19.1226 19.7692 18.9661 19.9442 18.84 20.0855C18.8031 20.1264 18.7686 20.165 18.7357 20.1971C16.6166 22.2278 14.1284 23.1292 11.3391 22.878C9.15501 22.6813 7.21094 21.7414 5.56064 20.0847C5.42178 19.945 5.24921 19.7716 5.02526 19.7716C4.89523 19.7733 4.77162 19.8343 4.65764 19.9531C4.30205 20.3239 4.63677 20.661 4.7973 20.8232C6.83448 22.8764 9.31554 23.9455 12.1779 24.0001C15.0025 23.9536 17.4522 22.9318 19.4589 20.9612C19.4902 20.9299 19.5263 20.8986 19.5641 20.8665C19.715 20.7341 19.9036 20.5695 19.91 20.3407C19.914 20.2019 19.8498 20.067 19.7198 19.9378Z" fill="#FF6700"/>
<path d="M12.1927 21.6949C14.29 21.6652 16.1129 20.8947 17.6107 19.4033C17.772 19.2428 18.1067 18.9088 17.7544 18.5332C17.6476 18.4192 17.5288 18.359 17.402 18.355C17.1957 18.3486 17.0247 18.4947 16.8819 18.6303C14.0717 21.2904 10.3176 21.2976 7.54037 18.6472C7.35014 18.4658 7.03148 18.1616 6.67188 18.5123C6.55549 18.6263 6.4961 18.7491 6.4961 18.8783C6.49529 19.1031 6.67028 19.2773 6.81155 19.4177C8.29328 20.8898 10.1017 21.6564 12.1943 21.6957L12.1927 21.6949Z" fill="#FF6700"/>
<path d="M12.1262 19.3904H12.1286C13.498 19.3839 14.6386 18.9216 15.617 17.9776C15.7808 17.8203 16.1203 17.492 15.7704 17.1108C15.5825 16.9053 15.3947 16.9085 15.2703 16.9462C15.1322 16.9888 15.0166 17.0883 14.9003 17.195C13.2411 18.7185 11.1694 18.7161 9.49426 17.1878C9.3257 17.0345 9.01185 16.7488 8.66269 17.0795C8.54229 17.1934 8.48129 17.3187 8.48048 17.4503C8.47888 17.6518 8.61373 17.8115 8.75981 17.9544C9.7158 18.8879 10.8484 19.3711 12.127 19.3912L12.1262 19.3904Z" fill="#FF6700"/>
<path d="M16.4951 9.5093C16.4951 9.27252 16.4943 9.03492 16.4943 8.79733C16.4927 8.14958 16.4919 7.47935 16.4975 6.82035C16.5007 6.42544 16.3611 6.17982 16.0464 6.02169C14.7654 5.38196 13.4771 5.0625 12.1912 5.0625C10.9053 5.0625 9.62183 5.38196 8.34879 6.02089C8.14732 6.12203 7.91535 6.27775 7.90812 6.58838C7.9009 6.89018 7.89689 8.26677 7.89929 9.5093H7.9009C7.9009 9.74609 7.9017 9.98368 7.9017 10.2213C7.90331 10.869 7.90411 11.5393 7.89849 12.1983C7.89528 12.5932 8.03495 12.8388 8.34959 12.9969C9.63066 13.6366 10.9189 13.9561 12.2048 13.9561C13.4907 13.9561 14.7742 13.6366 16.0472 12.9977C16.2487 12.8966 16.4807 12.7409 16.4879 12.4302C16.4951 12.1284 16.4991 10.7518 16.4967 9.5093H16.4951ZM15.0551 12.2721C13.1624 13.0563 11.2448 13.0571 9.35695 12.2737C9.08805 12.1621 8.99895 12.0233 9.00217 11.7215C9.011 10.9445 9.01581 10.21 9.01581 9.5093H9.00859C9.01099 8.48509 9.00778 7.44162 8.99574 7.29794C8.97247 7.00978 9.06558 6.86049 9.34089 6.74651C11.2336 5.9623 13.1512 5.96149 15.0391 6.7449C15.308 6.85647 15.3971 6.99533 15.3938 7.29714C15.385 8.07413 15.3802 8.80857 15.3802 9.5093H15.3874C15.385 10.5335 15.3882 11.577 15.4003 11.7207C15.4235 12.0088 15.3304 12.1581 15.0551 12.2721Z" fill="#FF6700"/>
<path d="M11.5603 3.23188C11.5603 3.30171 11.5595 3.37155 11.5579 3.44218C11.5555 3.59389 11.5531 3.75041 11.5643 3.90532C11.5868 4.20472 11.7819 4.39576 12.074 4.40459C12.0813 4.40459 12.0877 4.40459 12.0949 4.40459C12.4079 4.40459 12.615 4.20231 12.6247 3.88365C12.6375 3.47509 12.6367 3.05449 12.6231 2.59938C12.6142 2.29998 12.42 2.10975 12.1166 2.10172C11.7931 2.0953 11.5852 2.28553 11.5619 2.61382C11.5515 2.75991 11.5547 2.90841 11.5571 3.05128C11.5579 3.11148 11.5595 3.17168 11.5595 3.23188H11.5603Z" fill="#FF6700"/>
</g>
</svg>
