<svg width="44" height="44" viewBox="0 0 44 44" fill="none" xmlns="http://www.w3.org/2000/svg">
<mask id="mask0_1353_1806" style="mask-type:alpha" maskUnits="userSpaceOnUse" x="0" y="0" width="44" height="44">
<rect x="0.667969" y="0.666664" width="42.6667" height="42.6667" fill="#D9D9D9"/>
</mask>
<g mask="url(#mask0_1353_1806)">
<path d="M43.3339 40.1512C43.3096 39.5247 42.8858 39.2065 42.0767 39.2037C41.6814 39.2037 41.2862 39.1979 40.8909 39.1922C39.8863 39.1794 38.8475 39.1666 37.8257 39.2194C37.4519 39.2379 37.2307 39.2008 37.1265 39.1009C37.0181 38.9982 36.9681 38.7656 36.9696 38.3689C36.9981 29.3832 36.9952 20.2462 36.9938 11.4104C36.9938 9.16432 36.9938 6.91826 36.9938 4.67077C36.9938 3.03402 36.8454 2.86707 35.2258 2.68727C29.6206 2.06653 23.75 1.40441 17.7767 0.718037C17.1331 0.643834 16.6151 0.611013 16.2926 0.903544C16.0044 1.16611 15.9544 1.5942 15.9673 2.2449C15.9716 2.47465 15.9402 2.63019 15.876 2.6944C15.7889 2.78145 15.5563 2.79001 15.338 2.78858C13.4073 2.76718 11.4452 2.77289 9.54731 2.77859L8.71966 2.78145C7.23989 2.78573 7.01728 3.00548 7.01585 4.46671C7.01442 8.62207 7.01585 12.776 7.01585 16.9314V21.4178C7.01585 22.8077 7.01585 24.1975 7.01442 25.586C7.01157 29.8099 7.00729 34.1778 7.03583 38.4745C7.03868 38.8084 6.99445 39.0153 6.90169 39.1052C6.81037 39.1937 6.61344 39.2293 6.28238 39.2165C5.22499 39.1765 4.1519 39.1865 3.11449 39.1965C2.71922 39.2008 2.32537 39.2037 1.9301 39.2051C1.11957 39.2079 0.697189 39.5262 0.67293 40.154C0.661514 40.4537 0.742852 40.6977 0.911236 40.8775C1.18236 41.1658 1.60475 41.2128 1.94151 41.2214C2.15413 41.2271 2.36818 41.2271 2.5808 41.2257H2.77487H5.51324C8.76961 41.2257 12.026 41.2257 15.2823 41.2228H15.3751C15.5991 41.2214 15.8117 41.22 15.8874 41.2956C15.9459 41.3541 15.9758 41.4997 15.9716 41.7066C15.9587 42.3915 16.0087 42.8396 16.2969 43.1007C16.491 43.2763 16.755 43.3333 17.0889 43.3333C17.3072 43.3333 17.5541 43.3091 17.8281 43.2777L18.5401 43.1963C24.024 42.567 29.6948 41.9163 35.2757 41.3184C36.7041 41.1658 38.1711 41.19 39.5909 41.2128C40.4029 41.2257 41.2419 41.24 42.0696 41.2214C42.4063 41.2143 42.8273 41.1672 43.0999 40.8789C43.2697 40.6977 43.3496 40.4537 43.3382 40.1512H43.3339ZM34.9804 38.6928C34.9804 39.2094 34.9361 39.3164 34.4238 39.3706C29.6563 39.8829 24.522 40.468 18.7285 41.16C18.3832 41.2014 18.172 41.1814 18.0806 41.1015C17.9865 41.0173 17.9422 40.8004 17.9451 40.438C17.975 35.7703 17.9722 31.0256 17.9679 26.4365C17.9679 24.9396 17.9651 23.4427 17.9651 21.9443C17.9651 20.446 17.9651 18.9491 17.9679 17.4522C17.9708 12.8973 17.975 8.18684 17.9451 3.55487C17.9422 3.20526 17.9879 2.98693 18.0806 2.90417C18.1406 2.85137 18.2505 2.82426 18.4188 2.82426C18.5087 2.82426 18.6158 2.83139 18.7399 2.84709C23.9555 3.46782 29.2011 4.06573 34.3325 4.62368C34.8962 4.68504 34.9889 4.7835 34.9875 5.32575C34.9661 15.072 34.9632 25.6745 34.9804 38.6942V38.6928ZM15.9473 20.2791V23.6539C15.9473 24.8982 15.9445 26.1425 15.943 27.3868C15.9387 31.0057 15.9345 34.7458 15.9673 38.4259C15.9701 38.8027 15.9202 39.0324 15.8146 39.128C15.7147 39.2194 15.5078 39.2465 15.1796 39.2136C14.8514 39.1808 14.5075 39.1637 14.1493 39.1637C13.7911 39.1637 13.4373 39.1794 13.0648 39.2108C12.7495 39.2379 12.5511 39.2079 12.4598 39.1223C12.3627 39.031 12.3171 38.8212 12.3214 38.4816C12.357 35.9644 12.3513 33.4044 12.3456 30.93C12.3442 30.0039 12.3413 29.0764 12.3413 28.1503C12.3413 26.6263 12.3413 25.1023 12.3428 23.5782C12.3456 18.7465 12.3485 13.7492 12.3214 8.83469C12.3199 8.48508 12.367 8.27104 12.4655 8.18114C12.5582 8.09694 12.7509 8.07126 13.0534 8.10265C13.4401 8.14261 13.8582 8.09837 14.2635 8.05556C14.927 7.98564 15.5549 7.91857 15.8389 8.23964C16.12 8.55929 16.0543 9.33556 15.9944 10.0219C15.9673 10.333 15.9402 10.6555 15.9402 10.9509C15.9459 14.0603 15.9459 17.2225 15.9445 20.2805L15.9473 20.2791ZM10.3222 7.75304C10.3207 15.4616 10.3222 23.1687 10.3222 30.8772V37.8138C10.3222 37.8851 10.3193 37.9579 10.3165 38.0307C10.3093 38.2091 10.3008 38.3917 10.3321 38.5815C10.3593 38.7499 10.375 38.9725 10.2893 39.0738C10.1852 39.1979 9.87266 39.2194 9.61295 39.2236C9.36466 39.2279 9.20341 39.1937 9.13063 39.1237C9.0336 39.0281 9.02218 38.7798 9.02218 38.5258C9.03788 34.2877 9.03645 29.9782 9.03503 25.81C9.03503 24.5386 9.03503 23.2672 9.03503 21.9957C9.03503 20.6001 9.03645 19.206 9.03788 17.8104C9.04359 13.832 9.04787 9.71799 9.00934 5.67108C9.00506 5.2701 9.05643 5.03179 9.17202 4.92049C9.27048 4.82488 9.46027 4.78065 9.77848 4.78065C9.82557 4.78065 9.87694 4.78065 9.92974 4.7835C11.4737 4.84058 13.1362 4.84201 15.318 4.78921C15.6063 4.78207 15.7861 4.81632 15.8645 4.89338C15.9416 4.96901 15.9773 5.14738 15.9716 5.41993C15.9673 5.66252 15.9487 5.92366 15.8474 6.01784C15.7732 6.08633 15.6134 6.11344 15.368 6.1006C14.4818 6.05351 13.5814 6.06635 12.7109 6.07777C12.4541 6.08205 12.1986 6.0849 11.9418 6.08776C10.5505 6.09917 10.3236 6.3332 10.3236 7.75162L10.3222 7.75304Z" fill="#FF6700"/>
<path d="M21.5658 19.8709C20.34 19.8324 19.3754 20.7357 19.3482 21.9458C19.3211 23.1644 20.2401 24.1176 21.4545 24.1305C22.6588 24.1433 23.6406 23.1901 23.6449 22.0043C23.6492 20.8627 22.7173 19.9066 21.5643 19.8709H21.5658ZM21.5572 22.6536C21.1591 22.6864 20.8723 22.5123 20.8237 22.1027C20.7709 21.6547 20.9893 21.3736 21.4573 21.3479C21.874 21.325 22.0795 21.5748 22.1679 21.97C22.1308 22.3339 21.9767 22.6193 21.5558 22.655L21.5572 22.6536Z" fill="#FF6700"/>
<path d="M26.4646 7.65018C25.8068 7.65018 25.1875 7.39332 24.7223 6.92813C24.4155 6.62133 24.4155 6.12474 24.7223 5.81794C25.0291 5.51114 25.5257 5.51114 25.8325 5.81794C26.0023 5.98775 26.2263 6.0805 26.4646 6.0805C26.7029 6.0805 26.927 5.98775 27.0968 5.81794C27.4036 5.51114 27.9002 5.51114 28.207 5.81794C28.5138 6.12474 28.5138 6.62133 28.207 6.92813C27.7418 7.39332 27.1225 7.65018 26.4646 7.65018Z" fill="#FF6700"/>
<path d="M26.4661 10.2486C25.1119 10.2486 23.8405 9.72209 22.8858 8.76602C22.579 8.45922 22.5804 7.96263 22.8858 7.65583C23.1926 7.34903 23.6892 7.35045 23.996 7.65583C24.6538 8.31509 25.5314 8.67897 26.4661 8.67897C27.4008 8.67897 28.2784 8.31509 28.9376 7.65583C29.2444 7.34903 29.741 7.34903 30.0478 7.65583C30.3546 7.96263 30.3546 8.45922 30.0478 8.76602C29.0917 9.72209 27.8203 10.2486 26.4661 10.2486Z" fill="#FF6700"/>
<path d="M26.4674 12.8886C24.4111 12.8886 22.4761 12.0881 21.0192 10.6326C20.7124 10.3258 20.7124 9.82917 21.0192 9.52237C21.326 9.21557 21.8226 9.21557 22.1294 9.52237C23.2895 10.6811 24.8306 11.3189 26.4674 11.3189C28.1041 11.3189 29.6452 10.6811 30.8054 9.52237C31.1122 9.21557 31.6088 9.21699 31.9156 9.52237C32.2224 9.82774 32.2209 10.3258 31.9156 10.6326C30.4586 12.0866 28.5251 12.8886 26.4674 12.8886Z" fill="#FF6700"/>
</g>
</svg>
