<svg width="24" height="24" viewBox="0 0 24 24" fill="none" xmlns="http://www.w3.org/2000/svg">
<g clip-path="url(#clip0_1452_5702)">
<path d="M12.0305 0H12.0136C8.80936 0 5.79612 1.22896 3.52455 3.46163C1.25217 5.6943 0.000803035 8.65882 3.5985e-07 11.8091C-0.00160499 18.3182 5.36829 23.6213 11.9695 23.6308H11.988C15.1898 23.6308 18.2031 22.4018 20.4746 20.1691C22.7462 17.9357 23.9984 14.9712 23.9992 11.8209C24.0016 5.31179 18.6317 0.00869359 12.0305 0ZM11.9976 22.4516H11.9767C6.02809 22.4405 1.19197 17.6638 1.1984 11.8035C1.20401 5.94563 6.04977 1.17917 12.0008 1.17917C14.8856 1.17917 17.6003 2.29037 19.6439 4.30886C21.6891 6.32815 22.8112 9.00656 22.8032 11.8502C22.7864 17.6994 17.9406 22.4508 11.9984 22.4508L11.9976 22.4516Z" fill="#FF6700"/>
<path d="M17.9154 8.92994C17.8656 9.00344 17.795 9.07141 17.7195 9.14254C17.6954 9.16546 17.6706 9.18917 17.6465 9.21288C15.5997 11.229 13.5528 13.2443 11.5044 15.2605C10.977 15.7797 10.7491 15.7797 10.2233 15.2636C9.69919 14.7483 9.17424 14.2307 8.65009 13.7146C8.16768 13.2396 7.68527 12.7646 7.20206 12.2896C6.96768 12.0588 6.91149 11.832 7.02628 11.5767C7.13383 11.3381 7.32246 11.2424 7.4541 11.2322C7.7832 11.2195 7.93812 11.3452 8.09223 11.4977C8.34587 11.749 8.60112 11.9988 8.85718 12.2485C9.38855 12.7693 9.93838 13.3083 10.4673 13.8481C10.5693 13.9525 10.6953 14.0592 10.8574 14.0599H10.8591C11.0196 14.0599 11.1496 13.9525 11.2564 13.8466C12.7124 12.4003 14.2006 10.9366 15.639 9.52031L16.7884 8.39015C16.8141 8.36486 16.8398 8.33877 16.8647 8.31269C16.9361 8.23998 17.0035 8.17044 17.0774 8.11827C17.3615 7.91674 17.6248 7.93097 17.86 8.157C18.0912 8.38066 18.1096 8.64068 17.9146 8.93073L17.9154 8.92994Z" fill="#FF6700"/>
</g>
<defs>
<clipPath id="clip0_1452_5702">
<rect width="24" height="23.6308" fill="white"/>
</clipPath>
</defs>
</svg>
