<svg width="80" height="80" viewBox="0 0 80 80" fill="none" xmlns="http://www.w3.org/2000/svg">
<mask id="mask0_989_2230" style="mask-type:alpha" maskUnits="userSpaceOnUse" x="18" y="18" width="44" height="44">
<rect x="18.668" y="18.667" width="42.6667" height="42.6667" fill="#D9D9D9"/>
</mask>
<g mask="url(#mask0_989_2230)">
</g>
<g clip-path="url(#clip0_989_2230)">
<path d="M57.9395 34.1608C57.423 33.8169 57.3274 33.4787 57.3174 32.8937C57.2118 26.234 52.8752 20.6816 46.5251 19.0777C44.8099 18.6453 43.0519 18.6596 41.3509 18.6724C40.9799 18.6753 40.6089 18.6781 40.2379 18.6767C40.0024 18.6767 39.7655 18.6738 39.5301 18.6724C37.9947 18.6581 36.405 18.6453 34.8539 19.0077C32.9103 19.4615 31.1366 20.2678 29.5755 21.4022L29.5584 21.3794L29.4157 21.4878C28.2498 22.3669 27.1824 23.5327 26.2449 24.9525C26.0894 25.188 25.9681 25.3806 25.8639 25.5576C24.7808 27.3484 24.2543 29.0209 24.2486 29.038C24.2229 29.1236 24.1972 29.2106 24.1758 29.2963C23.8504 30.542 23.6978 31.8234 23.7206 33.1034C23.7292 33.5686 23.5993 33.8169 23.204 34.0852C21.7542 35.0684 21.1292 36.4854 21.396 38.1821C21.6572 39.8559 22.6718 41.0289 24.3285 41.574C24.9806 41.788 25.6442 41.8066 26.4376 41.7666C26.8528 41.7467 27.0397 41.8608 27.2096 42.239C28.0343 44.0698 29.2573 45.6295 30.8441 46.8752C31.0824 47.0607 31.188 47.1863 31.1994 47.2947C31.2108 47.4032 31.1337 47.5502 30.9568 47.7571C29.6925 49.2383 28.8377 51.0234 28.4168 53.064C28.0886 54.6637 28.1143 56.2919 28.1399 57.8672C28.1499 58.5179 28.1614 59.19 28.1471 59.8493C28.1328 60.4586 28.2156 60.7983 28.4311 61.018C28.6851 61.2777 29.0946 61.3319 29.6326 61.3319C32.0556 61.3319 34.4786 61.3319 36.9016 61.3319H40.5375H43.6655C44.7086 61.3319 45.7517 61.3319 46.7948 61.3319C48.3717 61.3319 49.9485 61.3319 51.5238 61.3291C52.5384 61.3277 52.8852 60.988 52.8966 59.9849C52.9009 59.4226 52.8995 58.8519 52.8966 58.301C52.8937 57.6075 52.8909 56.8898 52.9023 56.1863C52.958 52.8657 51.9705 49.976 49.9656 47.5958C49.8457 47.4546 49.7915 47.3518 49.7986 47.2848C49.8058 47.2177 49.8828 47.1278 50.0341 47.0122C51.0187 46.2588 52.4129 45.0672 53.1606 43.4319C53.7614 42.122 54.4763 41.6596 55.8804 41.6796C55.8947 41.6796 55.909 41.6796 55.9232 41.6796C57.5985 41.6796 59.0497 40.4667 59.5435 38.6487C60.0144 36.9178 59.3694 35.1141 57.9395 34.1594V34.1608ZM54.7645 39.2095C54.9771 38.3076 54.9572 37.3844 54.9386 36.4925C54.9343 36.2927 54.93 36.093 54.9286 35.8946C54.9258 35.6406 54.9543 35.5036 55.0199 35.4394C55.0785 35.3823 55.1926 35.3538 55.3696 35.3538C55.3853 35.3538 55.401 35.3538 55.4181 35.3538C56.7038 35.3909 57.6784 36.3298 57.6855 37.5371C57.6941 38.8399 56.6995 39.7346 55.2097 39.7603L55.1798 39.7632C54.9814 39.8003 54.8387 39.7874 54.7788 39.7246C54.7374 39.6818 54.6803 39.5577 54.7631 39.2095H54.7645ZM42.5781 50.3528C42.277 51.1034 41.3766 51.6941 40.529 51.6984C39.6842 51.7027 38.7809 51.1205 38.4713 50.3713C38.4456 50.3085 38.3971 50.1887 38.3885 50.1287C38.4142 50.1244 38.4656 50.1216 38.5597 50.1359C39.8726 50.3214 41.184 50.3214 42.4568 50.1359C42.5653 50.1202 42.6195 50.1244 42.6452 50.1287C42.6438 50.1573 42.6309 50.2201 42.5781 50.3528ZM50.8246 55.5313C50.7733 55.5841 50.662 55.6069 50.4807 55.604C49.8043 55.5898 49.1422 55.5784 48.4872 55.6069C48.3774 55.6112 48.2361 55.6026 48.1762 55.5384C48.1276 55.4856 48.1134 55.3772 48.1333 55.2145C48.1419 55.1503 48.1391 55.0861 48.1376 55.0304C48.1376 55.0033 48.1362 54.9762 48.1376 54.9491C48.1476 54.5067 48.0463 54.1771 47.838 53.9702C47.661 53.7932 47.4099 53.7076 47.0959 53.7147C46.6493 53.7261 46.1185 53.9445 46.1242 54.9262C46.127 55.3515 46.1242 55.7753 46.1199 56.2005C46.1127 57.0025 46.1056 57.8316 46.1413 58.6478C46.1556 58.9632 46.1227 59.1415 46.0371 59.2286C45.9515 59.3156 45.776 59.3499 45.4834 59.3399C44.7842 59.3156 44.0793 59.3085 43.3787 59.3085C42.8992 59.3085 42.424 59.3113 41.9531 59.3156C40.9999 59.3228 40.0467 59.3228 39.0934 59.3156C37.909 59.3085 36.6847 59.3028 35.4803 59.3385C35.2278 59.3456 35.0694 59.3142 34.9966 59.2414C34.9224 59.1672 34.8953 59.0102 34.9053 58.7306C34.9338 57.9471 34.9281 57.1509 34.9224 56.3803C34.9195 55.9308 34.9167 55.4656 34.9195 55.009C34.9224 54.6951 34.9295 53.7404 33.9477 53.7162C33.6067 53.709 33.3413 53.8046 33.1586 54.0044C32.9474 54.2356 32.8647 54.5952 32.9175 55.0447C32.946 55.2915 32.9203 55.4571 32.839 55.537C32.7562 55.6183 32.5821 55.6426 32.3238 55.6083C32.1926 55.5912 32.0641 55.5955 31.9386 55.5998C31.8686 55.6026 31.7973 55.6055 31.7274 55.6026C31.3749 55.5926 31.0867 55.5998 30.8555 55.604C30.5144 55.6112 30.2447 55.6183 30.1834 55.5498C30.0992 55.4556 30.1591 55.0161 30.2433 54.4097C30.2633 54.267 30.2847 54.1086 30.3075 53.9359C30.5572 52.0623 31.3763 50.3071 32.7434 48.7189C33.0002 48.4206 33.1501 48.3864 33.4141 48.5676C33.631 48.716 33.8778 48.8359 34.1275 48.9129C35.5474 49.3539 36.3907 49.8662 36.7817 51.3117C37.2412 53.0098 39.3317 53.9074 40.9956 53.6819C42.8849 53.4265 44.3276 52.1022 44.6672 50.31C44.7614 49.8191 44.9498 49.6122 45.4463 49.4595C46.2084 49.224 46.9575 48.8801 47.6011 48.5762C47.9107 48.4292 48.0406 48.4206 48.2432 48.6532C49.8529 50.4969 50.7404 52.7101 50.8846 55.2302C50.8931 55.38 50.8731 55.4813 50.8261 55.5313H50.8246ZM48.1276 57.7959C48.1676 57.6318 48.209 57.6261 48.4359 57.6232C48.7855 57.6175 49.1351 57.6175 49.4861 57.6175C49.5575 57.6175 49.6288 57.6175 49.7016 57.6175H49.9156C50.3908 57.6175 50.7062 57.6175 50.7975 57.7103C50.8888 57.8016 50.8888 58.1155 50.8874 58.5893C50.8874 59.0259 50.8774 59.1729 50.7761 59.2314C50.6163 59.3213 50.1811 59.3213 49.4604 59.3213H49.2949C48.6842 59.3213 48.3217 59.2243 48.1576 59.016C47.9907 58.8033 47.9807 58.4166 48.1291 57.7973L48.1276 57.7959ZM30.4074 57.6247C30.5587 57.6247 30.7085 57.6247 30.8598 57.6247C31.168 57.6247 31.4776 57.6247 31.7859 57.6247H32.7134C32.7919 57.6247 32.8518 57.6389 32.8747 57.6632C32.8989 57.6889 32.9018 57.7459 32.9018 57.7773C32.9003 57.8501 32.9018 57.9072 32.9061 57.9657C32.9574 58.6278 32.9888 59.0274 32.859 59.1701C32.7177 59.3228 32.2511 59.3228 31.4762 59.3228H31.3121C30.6486 59.3228 30.3189 59.2514 30.1734 59.0759C30.025 58.8961 30.0179 58.5436 30.1491 57.8572C30.1877 57.6589 30.2476 57.6261 30.4103 57.6261L30.4074 57.6247ZM28.1086 35.6192C28.1214 35.3952 28.1699 35.3652 28.3526 35.3652C28.3825 35.3652 28.4168 35.3652 28.4539 35.3666C28.4867 35.3666 28.5209 35.3681 28.5538 35.3681C29.8752 35.3652 31.1951 35.3666 32.6649 35.3666H34.2988C34.9609 35.3367 35.6616 35.3481 36.4022 35.3595C37.9319 35.3838 39.5144 35.4094 41.1212 35.0941C43.1461 34.6974 44.6173 33.9882 45.7503 32.8609L45.7703 32.8409C45.8721 32.74 45.9577 32.7248 46.0271 32.7952C47.9821 34.7502 50.4864 35.1654 52.45 35.311C52.8923 35.3438 52.9009 35.4637 52.9351 35.9103C53.2576 40.294 51.3027 43.1323 49.6074 44.7433C46.8762 47.3361 42.795 48.6447 38.9536 48.1609C35.3248 47.7043 32.5108 46.196 30.3546 43.5518C28.6494 41.4627 27.9145 38.867 28.1071 35.6192H28.1086ZM45.8773 29.2349C45.3393 29.2592 45.0011 29.5788 44.9483 30.1139C44.8727 30.8959 44.456 31.4781 43.5556 32.0589C42.5053 32.7367 41.3609 33.1234 40.1537 33.2076C37.197 33.4145 34.1832 33.386 31.2693 33.3603C30.2761 33.3517 29.263 33.3417 28.2484 33.3417C27.5135 33.3417 26.7758 33.346 26.0437 33.3603C25.9538 33.3632 25.8354 33.3517 25.7826 33.2989C25.7198 33.2362 25.7198 33.0806 25.7255 32.9008C25.754 31.979 25.8254 30.8959 26.1222 29.8371L26.1793 29.6559C26.1921 29.6145 27.5763 25.4406 30.65 23.126L30.7627 23.0304C32.1655 22.0044 33.748 21.3023 35.4661 20.9442C36.9159 20.6402 38.4113 20.663 39.8569 20.6873C40.4847 20.6973 41.134 20.7087 41.7747 20.6916C42.982 20.6616 44.4089 20.6745 45.8373 20.9941C51.3269 22.227 55.3111 27.2015 55.3111 32.8238C55.3111 32.8737 55.3139 32.9265 55.3168 32.9793C55.3239 33.1034 55.3325 33.2447 55.2825 33.2989C55.2497 33.3346 55.1726 33.3546 55.0642 33.356C52.6968 33.3903 50.5792 33.3318 48.6428 32.2615C47.6781 31.7293 47.016 31.1613 46.9119 30.1196C46.8562 29.5588 46.4509 29.2149 45.8759 29.2392L45.8773 29.2349ZM26.2963 39.4977C26.332 39.6947 26.2934 39.7389 26.2934 39.7389C26.2678 39.7674 26.1208 39.7546 26.0437 39.7475C25.9324 39.7375 25.8168 39.7275 25.7112 39.7574C24.2857 39.7018 23.3168 38.7728 23.3524 37.49C23.3696 36.9049 23.6121 36.3641 24.0374 35.9688C24.464 35.5721 25.0249 35.3581 25.6299 35.3581C25.667 35.3581 25.7041 35.3581 25.7426 35.3609C26.058 35.3738 26.1094 35.4209 26.1079 35.6977L26.1051 36.0887C26.0965 37.206 26.0865 38.3619 26.2963 39.4977Z" fill="#FF6700"/>
<path d="M40.525 42.3376H40.5307H40.5364C41.5239 42.3005 42.2517 41.9523 42.7611 41.2731C43.1164 40.7993 43.0879 40.3056 42.6826 39.9217C42.2588 39.5207 41.7251 39.515 41.3241 39.9089C40.7647 40.4583 40.2781 40.4654 39.6974 39.9303C39.2778 39.5436 38.7598 39.5607 38.3446 39.9731C37.9465 40.3698 37.9265 40.8621 38.2918 41.323C38.8126 41.9808 39.5432 42.3133 40.525 42.3376Z" fill="#FF6700"/>
<path d="M34.4952 40.0827C34.5166 40.0827 34.538 40.0827 34.5609 40.0827C34.9276 40.0827 35.2672 39.9514 35.5241 39.7074C35.7966 39.4491 35.9493 39.0895 35.9536 38.6956C35.9622 37.9094 35.4014 37.3143 34.6194 37.2815C34.2298 37.2658 33.8616 37.4014 33.5848 37.6639C33.3108 37.9251 33.1567 38.279 33.1524 38.6642C33.1439 39.4262 33.7332 40.0484 34.4952 40.0812V40.0827Z" fill="#FF6700"/>
<path d="M46.4754 40.083H46.4783C46.8664 40.083 47.226 39.9303 47.4929 39.6549C47.7569 39.3809 47.8967 39.0184 47.8839 38.6346C47.871 38.2521 47.7112 37.9011 47.4329 37.6485C47.1504 37.3917 46.7794 37.2618 46.3855 37.2861C45.6207 37.3317 45.0599 37.9525 45.0827 38.7302C45.1055 39.5022 45.7049 40.0844 46.4769 40.0844L46.4754 40.083Z" fill="#FF6700"/>
<path d="M42.5363 55.4334C41.1621 55.4134 39.8008 55.4148 38.4923 55.4334C37.863 55.4434 37.4748 55.8272 37.4805 56.4351C37.4862 57.0345 37.8687 57.4012 38.5037 57.4183C38.7648 57.4255 39.0274 57.4269 39.2885 57.4269C39.4983 57.4269 39.7052 57.4269 39.9107 57.424C40.1019 57.424 40.2945 57.4212 40.4857 57.4212C40.6969 57.4212 40.911 57.4212 41.125 57.424C41.5917 57.4269 42.0754 57.4297 42.552 57.4169C43.1856 57.3998 43.5623 57.0273 43.5609 56.4209C43.5609 55.8201 43.167 55.4405 42.5363 55.432V55.4334Z" fill="#FF6700"/>
</g>
<defs>
<clipPath id="clip0_989_2230">
<rect width="38.36" height="42.6667" fill="white" transform="translate(21.3359 18.667)"/>
</clipPath>
</defs>
</svg>
