<svg width="40" height="40" viewBox="0 0 40 40" fill="none" xmlns="http://www.w3.org/2000/svg">
<mask id="mask0_992_5316" style="mask-type:alpha" maskUnits="userSpaceOnUse" x="0" y="0" width="40" height="40">
<rect width="40" height="40" fill="#D9D9D9"/>
</mask>
<g mask="url(#mask0_992_5316)">
<path d="M26.0919 4.8869C26.0892 3.78991 25.4591 3.15981 24.3634 3.15847C23.3467 3.15714 22.3287 3.15714 21.3119 3.15847H20.0277H18.7206C17.6825 3.15847 16.6444 3.15848 15.6063 3.15981C14.5614 3.16249 13.9099 3.80195 13.9046 4.82804C13.8952 6.70496 13.8966 8.39058 13.9086 9.98255C13.9113 10.3344 13.9541 10.7103 14.0357 11.0983C14.6404 13.9772 17.1353 15.9906 19.9741 15.9906C20.1721 15.9906 20.3728 15.9812 20.5735 15.9611C23.6825 15.6508 26.0544 13.0514 26.0905 9.91432C26.1066 8.54308 26.1012 7.14911 26.0959 5.80195L26.0932 4.88824L26.0919 4.8869ZM15.7267 8.9578C15.7226 8.90964 15.7253 8.88021 15.7267 8.86282C15.7467 8.8588 15.7828 8.85613 15.8404 8.85613C16.8638 8.86683 17.9032 8.86549 18.9079 8.86416C19.6384 8.86416 20.3688 8.86416 21.0992 8.86416C22.0919 8.86549 23.1166 8.86817 24.1266 8.85613C24.2016 8.85479 24.243 8.86014 24.2631 8.86549C24.2671 8.88422 24.2711 8.92034 24.2698 8.9859C24.2658 9.11967 24.2644 9.25479 24.2618 9.38857C24.2524 9.99459 24.2444 10.5658 24.0718 11.1237C23.4591 13.113 21.4992 14.4026 19.5126 14.127C17.3521 13.826 15.7989 12.111 15.736 9.95579C15.732 9.82469 15.7333 9.69359 15.736 9.55446C15.7387 9.36048 15.7414 9.15981 15.728 8.95914L15.7267 8.9578ZM15.7293 5.05814C15.7293 5.02469 15.7293 5.00062 15.7307 4.98456C15.7454 4.98322 15.7641 4.98322 15.7909 4.98188C18.5761 4.99259 21.4069 4.99259 24.2042 4.98322C24.2323 4.98322 24.2497 4.98322 24.2644 4.9859C24.2658 5.00195 24.2671 5.02737 24.2658 5.06215C24.2537 5.62804 24.2444 6.2956 24.2684 6.96449C24.2684 6.99526 24.2684 7.01667 24.2671 7.03138C24.247 7.03406 24.2149 7.03673 24.1601 7.03539C23.1166 7.02737 22.0557 7.0287 21.031 7.03004H19.9527C19.5929 7.03004 19.2343 7.03004 18.8745 7.03004C17.8912 7.0287 16.8731 7.02603 15.8725 7.03807C15.7922 7.03941 15.7494 7.03406 15.728 7.03004C15.7253 7.01131 15.7213 6.97787 15.724 6.92168C15.7521 6.30763 15.7427 5.68958 15.728 5.05814H15.7293Z" fill="#FF6700"/>
<path d="M26.1416 23.098H26.1456C26.8025 23.0954 27.3683 22.5389 27.3831 21.882C27.3898 21.5596 27.2586 21.2358 27.0219 20.9937C26.7851 20.7529 26.464 20.6138 26.1416 20.6138H26.1376C25.4807 20.6151 24.9135 21.1743 24.8988 21.8325C24.8908 22.1549 25.0219 22.4773 25.2587 22.7181C25.4954 22.9603 25.8165 23.098 26.1416 23.098Z" fill="#FF6700"/>
<path d="M39.9975 3.78313C39.9975 1.34701 38.6409 0.00386998 36.1794 0.00253219C32.368 -0.000143391 28.5567 0.00119718 24.7453 0.00119718H15.3045C11.4289 -0.000140615 7.55335 -0.00147988 3.67911 0.00387129C1.37945 0.00654687 0.00419858 1.38447 0.00286078 3.68948C-0.00115259 10.7517 -0.00115259 18.3129 0.00419858 26.8025C0.00553637 29.1664 1.35938 30.5242 3.71924 30.5296C5.81021 30.5336 7.89984 30.5323 9.99081 30.5309H12.7105C13.4102 30.5309 13.762 30.5309 13.9828 30.7463C14.2049 30.9644 14.2049 31.3095 14.2049 31.9971C14.2049 33.1878 14.1219 33.2734 12.946 33.2988C10.8697 33.3416 9.50653 34.7182 9.47308 36.8012C9.46104 37.565 9.46238 38.2326 9.47442 38.844C9.49181 39.6252 9.83964 39.9905 10.5674 39.9918C16.5687 40.0025 22.9125 40.0025 29.4196 39.9931C30.1433 39.9918 30.5045 39.6466 30.5232 38.9376C30.546 38.1389 30.562 37.2868 30.5098 36.4319C30.4042 34.7476 29.0864 33.4353 27.3754 33.3109C25.8838 33.2012 25.7941 33.1062 25.7968 31.6185C25.7968 31.5985 25.7968 31.5784 25.7981 31.5597C25.7995 31.5343 25.8008 31.5102 25.7981 31.4968C25.762 31.2854 25.7339 30.9818 25.9172 30.7664C26.1072 30.5403 26.447 30.5149 26.7226 30.5176C29.267 30.5416 31.853 30.5376 34.3547 30.5336L36.1874 30.5309C38.6423 30.5282 39.9975 29.1824 39.9975 26.7423C40.0001 19.0901 40.0015 11.438 39.9975 3.78581V3.78313ZM26.847 35.2654C27.8985 35.2654 28.4577 35.6961 28.5567 36.5804C28.6276 37.1998 28.669 37.5717 28.4644 37.8018C28.2583 38.0319 27.8878 38.0319 27.2711 38.0319H20.0149C19.3527 38.0319 18.6905 38.0306 18.0269 38.0293C16.146 38.0266 14.1995 38.0252 12.2878 38.0426H12.257C12.0296 38.0426 11.7794 38.0159 11.6135 37.85C11.441 37.6761 11.4209 37.4152 11.4236 37.1824C11.445 35.7309 11.8958 35.2667 13.2818 35.2654C17.8035 35.264 22.3266 35.2627 26.8483 35.2667L26.847 35.2654ZM16.1594 32.4426V32.3864C16.1607 30.6179 16.2503 30.5309 18.0751 30.5309H20.0416C20.3266 30.5309 20.6102 30.5323 20.8951 30.5323C21.5935 30.5363 22.3172 30.539 23.0249 30.5229C23.4102 30.5162 23.8249 30.5644 23.8423 31.2627V31.3229C23.8677 32.2594 23.8798 32.7303 23.6042 33.0125C23.3259 33.2975 22.8443 33.2975 21.8864 33.2975C21.4289 33.2975 20.9727 33.2961 20.5165 33.2948C19.3674 33.2908 18.1794 33.2854 17.0129 33.3109H16.9607C16.7574 33.3109 16.5192 33.2841 16.3574 33.1249C16.1821 32.9537 16.158 32.6968 16.1594 32.444V32.4426ZM36.7961 28.5456C36.6891 28.5617 36.5821 28.5657 36.4777 28.5657C36.4336 28.5657 36.3881 28.5644 36.344 28.5644C36.3011 28.563 36.2583 28.563 36.2169 28.563H34.3092C24.1379 28.563 13.9654 28.5644 3.79282 28.563C3.09182 28.563 2.5741 28.3664 2.25303 27.9798C1.92259 27.5798 1.82493 27.0045 1.9654 26.2661C2.05905 25.7764 2.40955 25.7898 2.59818 25.7965C2.62493 25.7978 2.65169 25.7978 2.68112 25.7992C3.42627 25.7938 4.17008 25.7951 4.91523 25.7951H23.148C27.6095 25.7938 32.2249 25.7925 36.764 25.8166C36.8189 25.8112 36.9112 25.7965 37.0062 25.7764C37.2416 25.7242 37.5333 25.6587 37.7647 25.8286C37.9239 25.9477 38.0122 26.147 38.0336 26.4413C38.1299 27.7229 37.7259 28.4105 36.7988 28.5456H36.7961ZM11.8517 23.759C11.8651 23.1945 11.8624 22.6219 11.861 22.0694C11.861 21.7162 11.8584 21.363 11.861 21.0099C11.8637 20.5523 12.0885 20.2834 12.5447 20.1845C13.14 20.056 13.7353 19.9289 14.3306 19.8018C15.8316 19.4808 17.3848 19.149 18.9099 18.8119C18.9995 18.7918 19.053 18.7851 19.0851 18.7824C19.0891 18.8105 19.0945 18.8587 19.0931 18.9336C19.0637 20.6313 19.0744 22.2968 19.0891 23.7015C19.0891 23.763 19.0865 23.8018 19.0824 23.8259C18.0791 23.8259 17.0744 23.8259 16.0711 23.8259C14.6784 23.8259 13.2697 23.8259 11.853 23.8259C11.8517 23.8085 11.8503 23.7871 11.8517 23.7577V23.759ZM20.9125 23.7376C20.9286 22.2674 20.9286 20.7115 20.9139 18.8426C20.9139 18.8186 20.9139 18.7985 20.9139 18.7824C20.9299 18.7851 20.9487 18.7891 20.9714 18.7931C22.2905 19.0835 23.6336 19.3697 24.9326 19.6467C25.7901 19.8299 26.6476 20.0119 27.5052 20.1978C28.0269 20.3102 28.1379 20.7075 28.1406 21.0206C28.1433 21.3617 28.1406 21.7042 28.1406 22.0453C28.1393 22.5965 28.1366 23.165 28.15 23.7269C28.15 23.7737 28.15 23.8059 28.1473 23.8286C26.6851 23.8286 25.2296 23.8286 23.7928 23.8286C22.8336 23.8286 21.8757 23.8286 20.9166 23.8286C20.9139 23.8085 20.9112 23.7791 20.9125 23.7376ZM37.8249 23.6199C37.6229 23.8219 37.3192 23.8433 36.9955 23.8433H36.962C34.6423 23.8339 32.3012 23.8299 29.9721 23.8286C29.9721 22.9122 29.9721 21.9945 29.9721 21.0781C29.9694 19.6654 29.1894 18.6861 27.8329 18.3918C26.2517 18.048 24.6436 17.7055 23.0878 17.3738C22.1553 17.1744 21.2229 16.9764 20.2905 16.7758C20.0911 16.733 19.9212 16.7303 19.754 16.7664C18.9406 16.9416 18.1273 17.1156 17.3139 17.2895C15.6002 17.656 13.8289 18.036 12.0871 18.4186C10.8243 18.6968 10.0376 19.6814 10.0309 20.9911C10.0269 21.8594 10.0283 22.7263 10.0296 23.5945V23.8273C7.70051 23.8286 5.36071 23.8326 3.03965 23.842C2.70252 23.842 2.38547 23.8273 2.17811 23.6186C2.0149 23.4553 1.94667 23.2119 1.94801 22.8052C1.97476 18.0868 1.97343 13.2895 1.97075 8.64868C1.97075 7.03129 1.96941 5.41256 1.96941 3.79517C1.97075 2.42929 2.44032 1.96775 3.82894 1.96775C14.6102 1.96641 25.3928 1.96641 36.1741 1.96775C37.5627 1.96775 38.0322 2.42795 38.0322 3.79517C38.0336 5.41122 38.0322 7.02861 38.0309 8.64466C38.0296 13.2868 38.0269 18.0855 38.0537 22.8052C38.0563 23.2119 37.9881 23.4553 37.8249 23.6186V23.6199Z" fill="#FF6700"/>
</g>
</svg>
