<svg width="24" height="24" viewBox="0 0 24 24" fill="none" xmlns="http://www.w3.org/2000/svg">
<mask id="mask0_1353_3017" style="mask-type:alpha" maskUnits="userSpaceOnUse" x="0" y="0" width="24" height="24">
<rect width="24" height="24" fill="#D9D9D9"/>
</mask>
<g mask="url(#mask0_1353_3017)">
<path d="M23.7889 24.5496C23.5185 24.8145 23.155 24.8096 22.8388 24.5376C22.7601 24.4694 22.6847 24.3923 22.6044 24.3105C22.574 24.2784 22.5427 24.2471 22.5114 24.2158L21.3341 23.0377C16.6739 18.3784 11.8557 13.5601 7.11931 8.81892C7.04789 8.74669 6.98368 8.652 6.91627 8.55168C6.87936 8.49711 6.84324 8.44415 6.80472 8.39118L6.65225 8.18413L6.17235 8.4618L6.14186 8.57736C6.00222 9.10461 5.93962 9.65593 5.95728 10.2153C5.96851 10.566 5.86419 10.8613 5.61943 11.1735C4.82254 12.1894 4.2343 13.0577 3.76644 13.906C3.52729 14.341 3.47995 14.69 3.62199 14.9741C3.76323 15.255 4.06497 15.4243 4.54487 15.4917C5.36423 15.6065 5.79999 16.0559 5.87623 16.8672C5.94685 17.6136 6.00944 18.2853 6.0584 18.9618C6.1571 20.3301 6.96122 21.0876 8.32307 21.0956H8.55098C8.91371 21.094 9.25638 21.0924 9.58782 21.1767C10.8943 21.5121 11.7779 22.8941 11.517 24.1957C11.4536 24.5135 11.1639 24.7503 10.8421 24.7414C10.5187 24.735 10.2443 24.4934 10.1905 24.1668C10.1793 24.0994 10.1801 24.02 10.1801 23.9357C10.1809 23.8988 10.1809 23.8619 10.1801 23.8258C10.1648 22.9205 9.68893 22.4543 8.76605 22.4398C8.66654 22.4382 8.56703 22.439 8.46671 22.439C8.16738 22.439 7.8849 22.4398 7.61445 22.3949C5.93561 22.1116 4.85383 20.8862 4.71821 19.1183C4.70537 18.9393 4.69013 18.7604 4.67648 18.5806C4.64679 18.209 4.6163 17.8254 4.59222 17.4483C4.56654 17.0695 4.38838 16.8624 4.01442 16.7766C3.26889 16.6064 2.67503 16.145 2.38372 15.5094C2.09001 14.869 2.13013 14.109 2.49206 13.4237C3.06746 12.3355 3.78169 11.3588 4.34023 10.6286C4.5208 10.3918 4.60907 10.1455 4.6179 9.85174C4.64679 8.94411 4.75192 8.27161 4.96057 7.67535C5.19891 6.99322 4.91563 6.59196 4.57456 6.26053C3.55618 5.27184 2.53781 4.24785 1.55233 3.25836C1.1904 2.89482 0.829271 2.53129 0.466538 2.16855C0.440858 2.14287 0.415984 2.1188 0.389501 2.09312C0.31567 2.02089 0.245048 1.95188 0.186465 1.88045C-0.057497 1.58032 -0.051076 1.21919 0.202516 0.959981C0.459317 0.698364 0.819642 0.684721 1.11978 0.925473C1.21046 0.997699 1.29472 1.08517 1.38541 1.17666C1.4151 1.20796 1.4456 1.23925 1.47689 1.26975C8.82383 8.61668 16.1708 15.9636 23.5177 23.3106C23.545 23.3378 23.5723 23.3643 23.5988 23.3908C23.6726 23.4622 23.7424 23.5304 23.8018 23.6011C24.065 23.9132 24.061 24.2856 23.7906 24.5496H23.7889Z" fill="#FF6700"/>
<path d="M22.6009 14.6701C22.1675 15.28 21.8561 15.9878 21.6756 16.7767C21.6266 16.9925 21.5071 17.1667 21.3393 17.2678C21.1917 17.3569 21.0175 17.381 20.8474 17.3368C20.4598 17.2341 20.2728 16.881 20.3707 16.4356C20.5481 15.6267 20.9084 14.8113 21.5022 13.8676C22.0078 13.0659 22.438 12.3284 22.5936 11.4223C22.97 9.2275 22.442 7.04549 21.1074 5.27596C19.7809 3.51928 17.8444 2.41985 15.6544 2.1823C15.1961 2.13335 14.7508 2.10767 14.3134 2.10767C13.6529 2.10767 13.0109 2.16545 12.377 2.27941C10.9557 2.5338 9.71183 3.11321 8.68061 3.99837C8.48881 4.16289 8.27454 4.24314 8.07552 4.22628C7.9094 4.21264 7.76013 4.13079 7.64457 3.99035C7.38617 3.67737 7.44315 3.30421 7.79545 2.99123C9.13483 1.80513 10.7551 1.10614 12.7485 0.854157C13.2533 0.790759 13.7934 0.734584 14.3286 0.753844H14.3351C17.4552 0.797179 19.8226 1.75457 21.5745 3.67978C22.8352 5.0649 23.5759 6.79109 23.9081 9.11113C24.2059 11.1944 23.7773 13.0129 22.6001 14.6701H22.6009Z" fill="#FF6700"/>
<path d="M2.72331 18.7805C2.58288 19.0807 2.27712 19.2412 1.99544 19.1633C1.45455 19.0133 0.916068 18.8311 0.392032 18.6233C0.111155 18.5117 -0.0517498 18.1979 0.0148582 17.8922C0.0814661 17.584 0.363142 17.3762 0.738715 17.3545C0.873536 17.3962 1.01237 17.4363 1.15843 17.4781C1.62629 17.6113 2.10939 17.7485 2.54355 18.0013C2.81078 18.157 2.84529 18.5197 2.72251 18.7805H2.72331Z" fill="#FF6700"/>
<path d="M2.78439 21.4521C2.76112 21.7242 2.59982 21.9224 2.31493 22.0243C1.85991 22.1872 1.37118 22.3574 0.876833 22.501C0.509286 22.6077 0.165011 22.4312 0.0390174 22.0701C-0.0797534 21.7314 0.0799485 21.3887 0.418606 21.2547C0.98999 21.0284 1.49798 20.8575 1.97386 20.7323C2.02683 20.7186 2.07899 20.7114 2.13195 20.7114C2.26356 20.7114 2.39036 20.7548 2.50031 20.8398C2.67926 20.9779 2.78279 21.201 2.78439 21.4521Z" fill="#FF6700"/>
</g>
</svg>
