<svg width="24" height="24" viewBox="0 0 24 24" fill="none" xmlns="http://www.w3.org/2000/svg">
<mask id="mask0_1452_9265" style="mask-type:alpha" maskUnits="userSpaceOnUse" x="0" y="0" width="24" height="24">
<rect width="24" height="24" fill="#D9D9D9"/>
</mask>
<g mask="url(#mask0_1452_9265)">
</g>
<g clip-path="url(#clip0_1452_9265)">
<path d="M16.7387 4.56731C16.4249 4.51922 16.1014 4.39818 16.0925 3.86675V3.82026C16.0837 3.34093 16.0797 3.07802 16.2651 2.88966C16.4513 2.69969 16.7218 2.69969 17.2115 2.69969H17.3174C17.3897 2.70049 17.4611 2.70129 17.5325 2.69889C17.9676 2.68606 18.2501 2.45281 18.2525 2.10494C18.2558 1.75225 17.9724 1.51179 17.5478 1.50537C17.0806 1.49816 16.6047 1.49976 16.1439 1.50137C15.9376 1.50217 15.7297 1.50217 15.5251 1.50297C15.322 1.50297 15.1173 1.50217 14.9134 1.50217C14.4503 1.50057 13.9719 1.49976 13.5015 1.50457C13.2422 1.50698 13.0263 1.58232 12.8955 1.71618C12.796 1.81798 12.747 1.94944 12.7494 2.10734C12.7542 2.47045 13.044 2.69168 13.5256 2.69969C13.5866 2.70049 13.6476 2.70049 13.7094 2.69969H13.7945C14.2865 2.69969 14.557 2.69969 14.7432 2.89126C14.9295 3.08283 14.9214 3.35376 14.9078 3.84351V3.87397C14.899 4.15772 14.8243 4.49197 14.309 4.5633C12.0262 4.87671 9.93923 6.18084 8.58351 8.13904C7.14672 10.2135 6.67074 12.7448 7.24545 15.2657C8.28893 19.8489 12.8305 22.7546 17.3688 21.743C20.8179 20.9751 23.3897 18.0374 23.921 14.2597C24.5616 9.70447 21.2714 5.26627 16.7371 4.56731H16.7387ZM22.7925 13.1672C22.7861 15.3081 21.9617 17.28 20.4687 18.722C19.1026 20.0421 17.3247 20.7611 15.4416 20.7611C15.3645 20.7611 15.2875 20.7595 15.2104 20.7571C11.9564 20.6561 9.15101 18.2258 8.38846 14.8488C7.96224 12.9596 8.28091 10.9822 9.28586 9.28125C10.2924 7.57715 11.8528 6.37562 13.6821 5.89789C15.6318 5.3881 17.7332 5.74239 19.4485 6.86938C21.1911 8.0156 22.3679 9.84475 22.6777 11.8887L22.6857 11.94C22.7491 12.3584 22.8142 12.7905 22.7917 13.168L22.7925 13.1672Z" fill="#FF6700"/>
<path d="M5.57552 9.97335C5.57793 10.1361 5.52495 10.2763 5.42301 10.3805C5.30181 10.5048 5.11158 10.5737 4.88683 10.5753C3.46208 10.5849 2.04776 10.5841 0.682412 10.5745C0.461676 10.5729 0.273047 10.504 0.151843 10.3797C0.0499037 10.2747 -0.00307293 10.1329 0.00013777 9.96774C0.0113752 9.44913 0.505823 9.38661 0.71773 9.3834C0.988231 9.3802 1.26355 9.37939 1.53566 9.37939C1.74515 9.37939 1.95465 9.3802 2.16094 9.3802C2.58074 9.3818 2.99893 9.3818 3.41873 9.3802C3.89311 9.37939 4.38355 9.37779 4.86355 9.3842C5.30422 9.38981 5.5699 9.60944 5.57472 9.97335H5.57552Z" fill="#FF6700"/>
<path d="M5.57462 16.9932C5.569 17.3547 5.30171 17.5736 4.85943 17.5792C4.37863 17.5856 3.8882 17.584 3.41542 17.5824C2.99562 17.5816 2.57743 17.5816 2.15763 17.5824C1.68325 17.584 1.19361 17.5856 0.713615 17.5792C0.272143 17.5736 0.00565469 17.3539 3.59567e-05 16.9908C-0.00156939 16.8257 0.0506045 16.6838 0.151742 16.5804C0.272946 16.4562 0.457561 16.3897 0.686324 16.3881C1.38385 16.3833 2.08619 16.3809 2.78853 16.3809C3.49087 16.3809 4.19321 16.3833 4.89074 16.3881C5.11228 16.3897 5.30171 16.4586 5.42291 16.5821C5.52485 16.6871 5.57783 16.8289 5.57462 16.9932Z" fill="#FF6700"/>
<path d="M3.82255 13.4847C3.82015 13.8309 3.56329 14.0626 3.16596 14.0762C2.88101 14.085 2.58643 14.0826 2.30309 14.0802C2.17546 14.0794 2.04784 14.0786 1.91941 14.0786C1.78215 14.0794 1.6473 14.0794 1.51004 14.081C1.21707 14.0834 0.913657 14.0866 0.62068 14.0746C0.257871 14.0594 0.00904165 13.8269 0.00021222 13.4951C-0.00380116 13.33 0.0491754 13.1857 0.153523 13.0759C0.266701 12.9572 0.429644 12.8923 0.625496 12.8883C1.03968 12.8803 1.45867 12.8755 1.88971 12.8755C2.32075 12.8755 2.73573 12.8795 3.18122 12.8875C3.5673 12.8947 3.82416 13.1344 3.82255 13.4847Z" fill="#FF6700"/>
<path d="M10.2459 3.91426C9.75623 4.4521 9.22566 5.02041 8.66379 5.5342C8.35155 5.81956 8.06098 5.62398 7.9165 5.4821C7.77282 5.34183 7.57215 5.05567 7.84988 4.72784C8.21429 4.2958 8.62446 3.8838 9.02259 3.48463C9.14138 3.3652 9.26018 3.24657 9.37898 3.12553C9.43195 3.07103 9.52908 3.00049 9.76266 3.00049H9.77791C10.0219 3.0069 10.1833 3.10309 10.2852 3.30428C10.3687 3.471 10.4305 3.71307 10.2475 3.91426H10.2459Z" fill="#FF6700"/>
<path d="M23.2563 5.02348C23.2434 5.36094 23.1206 5.494 22.9408 5.58938C22.8365 5.64469 22.5732 5.7545 22.3902 5.58137C21.903 5.11887 21.272 4.50408 20.7126 3.83798C20.5248 3.61595 20.6436 3.34663 20.8169 3.16949C20.9253 3.05887 21.0738 2.9707 21.2319 2.9707C21.3178 2.9707 21.4069 2.99715 21.4928 3.06288C22.1125 3.535 22.635 4.11693 23.225 4.84153C23.2378 4.86397 23.2458 4.93451 23.249 4.96818C23.2514 4.98741 23.2531 5.00505 23.2563 5.02348Z" fill="#FF6700"/>
<path d="M17.7056 13.8831C17.6077 13.9937 17.4728 14.0578 17.3267 14.0659C16.6268 14.1019 16.0128 14.1019 15.4509 14.0651C15.1057 14.0418 14.9227 13.8398 14.9075 13.4639C14.8954 13.1729 14.8978 12.8731 14.901 12.583C14.9019 12.4443 14.9035 12.3064 14.9035 12.167C14.9027 12.0516 14.9027 11.9369 14.9019 11.8207C14.9002 11.5426 14.8986 11.2548 14.9043 10.9743C14.9083 10.7627 14.9741 10.2689 15.491 10.2593H15.5055C15.6628 10.2593 15.792 10.3074 15.8907 10.402C16.0208 10.5278 16.0954 10.7394 16.0994 10.9975L16.1019 11.1458C16.1083 11.5033 16.1147 11.8728 16.0962 12.2311C16.0914 12.3153 16.0778 12.5726 16.2552 12.7441C16.4326 12.9148 16.691 12.8924 16.7753 12.8852C16.9992 12.8659 17.163 12.8675 17.3059 12.89C17.6542 12.9461 17.826 13.132 17.8485 13.4759C17.8573 13.6226 17.8051 13.7709 17.7056 13.8831Z" fill="#FF6700"/>
</g>
<defs>
<clipPath id="clip0_1452_9265">
<rect width="24" height="20.4444" fill="white" transform="translate(0 1.5)"/>
</clipPath>
</defs>
</svg>
