<svg width="80" height="80" viewBox="0 0 80 80" fill="none" xmlns="http://www.w3.org/2000/svg">
<mask id="mask0_989_881" style="mask-type:alpha" maskUnits="userSpaceOnUse" x="18" y="18" width="44" height="44">
<rect x="18.668" y="18.667" width="42.6667" height="42.6667" fill="#D9D9D9"/>
</mask>
<g mask="url(#mask0_989_881)">
<path d="M56.9234 38.2553V38.174C56.9049 36.92 56.3385 35.8372 55.3699 35.2038C54.3713 34.5504 53.1073 34.4648 51.9018 34.9713C51.8262 35.0026 51.6893 35.0597 51.6493 35.0611C51.6479 35.0611 51.6051 35.0355 51.5209 34.8771C50.4724 32.8884 48.6749 32.3049 46.5863 33.2765L46.5364 33.3007C46.5007 33.3178 46.4551 33.3392 46.4251 33.3506C46.4123 33.3378 46.3909 33.3135 46.3609 33.2707C45.0798 31.4333 43.9186 31.0181 41.7202 31.6829C41.7202 31.1851 41.7202 30.6915 41.723 30.2007C41.7259 28.757 41.7287 27.3932 41.7173 26.0022C41.7031 24.3031 40.7586 22.9464 39.2522 22.4628C38.1551 22.1105 37.0081 22.2845 36.1065 22.9393C35.1578 23.6298 34.6114 24.7468 34.6086 26.0051C34.5986 30.4903 34.6014 35.0526 34.6043 39.4622V42.8133C34.6072 43.2741 34.5672 43.3696 34.3561 43.4181C34.1863 43.4567 34.1178 43.3996 33.9238 43.0572L33.8753 42.9716C33.6499 42.5822 33.4274 42.1913 33.2048 41.8004C32.7583 41.0129 32.2961 40.1997 31.8082 39.4165C30.4158 37.1753 27.5369 36.375 25.2558 37.5933C24.6538 37.9143 24.2329 38.3979 24.0746 38.9543C23.9205 39.4907 24.0061 40.0642 24.3228 40.6149C25.019 41.8246 25.7109 43.0372 26.4028 44.2499C28.4714 47.8734 30.6098 51.6197 32.8153 55.2447C35.145 59.0765 39.3863 61.3334 43.8159 61.3334C44.9129 61.3334 46.0214 61.195 47.1156 60.9083C52.7563 59.4274 56.6852 54.5913 56.8935 48.872C57.0219 45.3355 56.972 41.7376 56.9249 38.2581L56.9234 38.2553ZM34.4231 54.0206C32.6584 51.0619 30.9123 48.0246 29.2232 45.0873C28.2431 43.3825 27.2288 41.6178 26.223 39.8887C26.0775 39.6391 26.0804 39.5321 26.0946 39.4907C26.1118 39.4394 26.1902 39.3566 26.4598 39.2496C26.8179 39.1084 27.186 39.0413 27.5483 39.0413C28.5627 39.0413 29.5327 39.572 30.1148 40.5164C30.5413 41.2083 30.9522 41.9302 31.3488 42.6278C31.5257 42.9402 31.704 43.2512 31.8823 43.5622C32.6727 44.9303 33.493 45.7606 34.9353 45.364C36.1265 45.0373 36.6358 44.1272 36.6358 42.3211V31.9155C36.6358 29.9867 36.6344 28.0565 36.6372 26.1278C36.6386 24.9965 37.2036 24.3188 38.1494 24.3146C38.5745 24.3174 38.9369 24.4515 39.2008 24.7126C39.5204 25.0307 39.6887 25.5129 39.6901 26.1092C39.6944 29.0537 39.6944 31.9968 39.693 34.9413V38.3566C39.693 38.4179 39.693 38.4807 39.693 38.542C39.6944 38.6733 39.6958 38.7974 39.6901 38.9201C39.6773 39.2339 39.6944 39.6862 39.9826 39.98C40.1623 40.1626 40.412 40.2482 40.7287 40.2425C41.1809 40.2311 41.7216 40 41.7202 38.9586V38.1397C41.7159 37.0626 41.713 35.9485 41.7302 34.8528C41.7402 34.1595 42.084 33.703 42.7801 33.4576C43.3622 33.2522 43.8772 33.3892 44.3565 33.8785C44.6476 34.1738 44.7817 34.5675 44.7788 35.1139C44.776 35.6988 44.7774 36.2837 44.7788 36.8686C44.7788 37.5591 44.7802 38.2738 44.776 38.9757C44.7731 39.301 44.8045 39.7076 45.0741 39.9815C45.2439 40.1527 45.4778 40.2411 45.7689 40.2425C46.0627 40.2411 46.3024 40.1569 46.4793 39.9829C46.6933 39.7703 46.7989 39.4465 46.8017 38.99C46.8017 38.689 46.8017 38.388 46.8017 38.0869C46.8003 37.5491 46.7974 36.9927 46.8103 36.4464C46.8317 35.4863 47.4095 34.8528 48.2797 34.8329C49.1899 34.8172 49.819 35.4577 49.8532 36.4364C49.8789 37.1711 49.8732 37.9229 49.8675 38.649C49.8661 38.8944 49.8632 39.1398 49.8632 39.3837C49.8604 40.1655 50.1828 40.5721 50.819 40.5935C51.1229 40.6035 51.3668 40.5222 51.5466 40.3524C51.8276 40.0856 51.8704 39.6676 51.8761 39.3766C51.8804 39.2154 51.879 39.0542 51.879 38.8916C51.879 38.5834 51.8776 38.291 51.9047 38.0014C51.9789 37.2395 52.5595 36.6832 53.3199 36.6461C54.0788 36.609 54.7065 37.094 54.8806 37.8615C54.9077 37.9814 54.9333 38.0941 54.9319 38.1925C54.9219 39.4165 54.9405 40.6605 54.9562 41.8646C54.9904 44.2684 55.0246 46.7535 54.8463 49.1845C54.4968 53.9365 51.0673 57.8824 46.311 59.0052C41.713 60.0908 36.8255 58.0379 34.4246 54.0135L34.4231 54.0206Z" fill="#FF6700"/>
<path d="M31.6743 28.9128C31.8298 29.2937 32.0067 29.7245 32.4119 29.89C32.6487 29.987 32.924 29.9699 33.2279 29.8401C33.5303 29.7102 33.7258 29.5276 33.81 29.2979C33.9455 28.9256 33.7557 28.5533 33.5888 28.2237C33.5389 28.1253 33.4918 28.0311 33.4562 27.9441C32.6359 25.9326 32.8941 24.1123 34.2194 22.5344C35.5747 20.9238 37.3665 20.3418 39.4022 20.8525C41.418 21.3589 42.692 22.68 43.1913 24.7813C43.4709 25.9554 43.2997 27.1138 42.672 28.3222C42.5621 28.5319 42.2297 29.171 42.8104 29.706C42.9973 29.8771 43.217 29.9642 43.4495 29.9642C43.6207 29.9642 43.799 29.9171 43.9759 29.8229C44.294 29.6532 44.4353 29.3465 44.5494 29.1011C44.5694 29.0583 44.5893 29.0155 44.6093 28.9741C45.9075 26.3392 45.4567 23.2107 43.4623 21.0051C41.4936 18.8267 38.3166 18.0806 35.559 19.1491C32.837 20.2048 30.9981 22.8654 30.9824 25.7685C30.9582 26.7886 31.1579 27.7686 31.5773 28.6831C31.6101 28.7558 31.6415 28.8329 31.6743 28.9128Z" fill="#FF6700"/>
</g>
</svg>
