<svg width="44" height="44" viewBox="0 0 44 44" fill="none" xmlns="http://www.w3.org/2000/svg">
<mask id="mask0_1353_5973" style="mask-type:alpha" maskUnits="userSpaceOnUse" x="0" y="0" width="44" height="44">
<rect x="0.667969" y="0.666748" width="42.6667" height="42.6667" fill="#D9D9D9"/>
</mask>
<g mask="url(#mask0_1353_5973)">
<path d="M21.8265 6.09205C20.0443 6.09919 18.3692 6.8018 17.1096 8.07279C15.8429 9.35092 15.1503 11.0446 15.1603 12.8426C15.1788 16.5013 18.1764 19.4703 21.8465 19.4703H21.8665C25.5381 19.4589 28.5299 16.4685 28.5328 12.8026C28.5342 11.0089 27.833 9.32093 26.5563 8.04709C25.2853 6.77896 23.6002 6.08919 21.8265 6.09205ZM21.8737 17.4738C21.8737 17.4738 21.8622 17.4738 21.8551 17.4738C20.5955 17.4738 19.4131 16.9868 18.5248 16.1029C17.638 15.2189 17.1496 14.0422 17.1496 12.7883C17.1496 10.2206 19.2446 8.11278 21.8194 8.08993C21.8337 8.08993 21.8465 8.08993 21.8608 8.08993C23.0847 8.08993 24.2471 8.57547 25.1382 9.45945C26.0451 10.3591 26.542 11.543 26.5406 12.7954C26.5378 15.366 24.4428 17.4638 21.8722 17.4738H21.8737Z" fill="#FF6700"/>
<path d="M21.8201 9.6123C20.0807 9.6323 18.6641 11.0575 18.6641 12.7883C18.6641 13.6338 18.9968 14.4306 19.6009 15.0319C20.205 15.6331 21.0047 15.963 21.8544 15.963C21.8601 15.963 21.8672 15.963 21.873 15.963C23.6109 15.953 25.0276 14.532 25.0304 12.7941C25.0304 11.9472 24.6948 11.1461 24.0808 10.5391C23.4681 9.93219 22.6655 9.60659 21.8201 9.61373V9.6123ZM21.8458 11.3588C22.6427 11.3588 23.2768 11.9772 23.2939 12.7698C23.3025 13.1425 23.1482 13.5167 22.8726 13.7951C22.5941 14.0779 22.2157 14.2321 21.8372 14.235C21.0589 14.2293 20.3992 13.5681 20.3992 12.7926C20.3992 12.0086 21.0418 11.3646 21.8358 11.3588C21.8387 11.3588 21.843 11.3588 21.8458 11.3588Z" fill="#FF6700"/>
<path d="M38.095 41.4769H33.3395V4.84959C33.3395 2.54324 31.463 0.666748 29.1566 0.666748H14.5346C12.2282 0.666748 10.3517 2.54324 10.3517 4.84959V41.4769H5.59622C5.08354 41.4769 4.66797 41.8925 4.66797 42.4052C4.66797 42.9178 5.08354 43.3334 5.59622 43.3334H38.0936C38.6062 43.3334 39.0218 42.9178 39.0218 42.4052C39.0218 41.8925 38.6062 41.4769 38.0936 41.4769H38.095ZM12.2082 41.4769V4.84959C12.2082 3.56575 13.2521 2.52182 14.536 2.52182H29.1581C30.4419 2.52182 31.4858 3.56575 31.4858 4.84959V41.4769H12.2096H12.2082Z" fill="#FF6700"/>
</g>
</svg>
