<svg width="24" height="24" viewBox="0 0 24 24" fill="none" xmlns="http://www.w3.org/2000/svg">
<mask id="mask0_1353_5285" style="mask-type:alpha" maskUnits="userSpaceOnUse" x="0" y="0" width="24" height="24">
<rect width="24" height="24" fill="#D9D9D9"/>
</mask>
<g mask="url(#mask0_1353_5285)">
<path d="M23.3679 13.5527C23.3679 13.035 23.3695 12.5173 23.3695 11.9996C23.3695 11.4818 23.3695 10.9633 23.3679 10.4456C23.3663 8.98399 23.3639 7.47259 23.3776 5.98689C23.3816 5.5382 23.2074 5.26209 22.7957 5.06464C19.455 3.46415 16.0116 1.80266 12.5602 0.125118C12.2143 -0.0426364 11.9173 -0.0418338 11.5674 0.128328C8.11996 1.80346 4.67578 3.46495 1.33193 5.06624C0.916963 5.2653 0.748406 5.53178 0.750011 5.98689C0.763656 9.97767 0.763656 14.0238 0.750011 18.0146C0.748406 18.4689 0.917764 18.7354 1.33274 18.9345C4.6822 20.5382 8.12558 22.1997 11.5682 23.8724C11.7431 23.9575 11.9053 24 12.0666 24C12.2279 24 12.3877 23.9583 12.561 23.874C16.0068 22.1997 19.4502 20.5382 22.7965 18.9353C23.2082 18.7378 23.3816 18.4625 23.3776 18.0122C23.3639 16.5257 23.3655 15.0143 23.3679 13.5527ZM11.5063 19.3623C11.5072 20.3656 11.5088 21.3689 11.508 22.3722C11.508 22.4172 11.5104 22.4621 11.5136 22.5071C11.516 22.5528 11.5192 22.5954 11.5184 22.6355C11.5007 22.6267 11.4823 22.6162 11.4606 22.6042C11.4285 22.5865 11.3972 22.5681 11.3651 22.5528C10.4517 22.113 9.53825 21.6715 8.62563 21.2309C6.50984 20.2091 4.32261 19.1528 2.16589 18.1238C1.91145 18.0026 1.84563 17.895 1.84724 17.6021C1.85767 14.8562 1.85687 12.0646 1.85607 9.36525C1.85607 8.51684 1.85607 7.66924 1.85607 6.82084C1.85607 6.73415 1.85606 6.63944 1.85927 6.57041C1.92589 6.59851 2.0174 6.64265 2.1073 6.68599C3.23743 7.2318 5.01851 8.09304 6.79238 8.95028C8.50845 9.77942 10.2157 10.6053 11.3169 11.1367C11.5168 11.3598 11.5304 11.7258 11.5264 12.1448C11.5031 14.5504 11.5055 16.9961 11.508 19.3615L11.5063 19.3623ZM11.288 9.90944C8.9202 8.76567 4.72233 6.73576 2.68761 5.75251C2.64908 5.73405 2.61056 5.71398 2.57043 5.69311L3.05603 5.45874C3.90443 5.05019 4.70548 4.66411 5.51455 4.26841C5.55228 4.24995 5.56753 4.25075 5.66706 4.30372C5.68792 4.31496 5.70799 4.3254 5.72886 4.33503C6.81645 4.85916 7.90324 5.3849 8.99084 5.90983C10.9838 6.87221 13.041 7.86589 15.0741 8.84272L15.0541 8.85235C14.058 9.3219 12.8187 9.90704 12.4053 10.1246C12.2119 10.2265 12.0698 10.2562 11.9342 10.2217L11.7006 10.1077C11.5625 10.0242 11.4148 9.96001 11.288 9.90864V9.90944ZM22.2763 17.7883C22.2763 17.9336 22.2474 17.9825 22.1278 18.0403C19.8266 19.1456 17.4893 20.2725 15.2282 21.3625C14.355 21.7839 13.4817 22.2045 12.6116 22.6243C12.6116 22.5994 12.6132 22.5721 12.6156 22.5424C12.618 22.5023 12.6204 22.4629 12.6204 22.4236C12.6196 21.3408 12.6196 20.2588 12.6196 19.1761C12.6196 16.6766 12.6196 14.0921 12.6092 11.5501C12.6084 11.2812 12.6726 11.18 12.9102 11.0765C13.3749 10.875 14.8558 10.1687 15.7781 9.72564C15.77 10.8301 15.7732 11.9321 15.7773 12.9724C15.7781 13.2348 15.8086 13.5551 16.0357 13.698C16.2613 13.84 16.559 13.7301 16.7934 13.6185C17.0334 13.5037 17.2734 13.3873 17.5126 13.2701C17.9565 13.0534 18.4156 12.8287 18.8731 12.6248C19.3145 12.4274 19.4984 12.1408 19.4879 11.6656C19.4727 11.0011 19.4743 10.3244 19.4759 9.66945C19.4775 9.17261 19.4783 8.65811 19.4727 8.15164C19.4703 7.9582 19.512 7.89158 19.6854 7.81212C20.419 7.4758 21.1911 7.10418 22.1888 6.60733C22.2266 6.58887 22.2547 6.57523 22.2771 6.5664C22.2787 6.58566 22.2795 6.60974 22.2795 6.63864C22.2715 10.5644 22.2739 14.4789 22.2779 17.7899L22.2763 17.7883ZM18.3746 11.5324C18.3746 11.6351 18.3546 11.6536 18.296 11.6809C17.9059 11.8631 17.5158 12.0517 17.1032 12.2516C17.031 12.2869 16.9572 12.3222 16.8825 12.3583V11.8141C16.8825 10.9368 16.8833 10.1085 16.8801 9.27214C16.8801 9.17903 16.8962 9.15897 16.9628 9.12846C17.4741 8.89088 17.9356 8.66855 18.3738 8.44942C18.3714 9.45033 18.3714 10.4882 18.3738 11.5332L18.3746 11.5324ZM21.2224 5.85766C20.5105 6.19959 19.8379 6.52306 19.162 6.85295C19.1468 6.86017 19.1428 6.86178 19.0705 6.82485C19.0585 6.81843 19.0457 6.81201 19.0336 6.80639C15.9113 5.2966 12.7906 3.78521 9.66988 2.27301C9.69477 2.26017 9.71965 2.24813 9.74533 2.23529C10.0303 2.09242 10.3 1.95757 10.5769 1.82594C10.7382 1.74969 10.8987 1.65738 11.0545 1.56829C11.4165 1.3612 11.7584 1.16535 12.0827 1.16214C12.0851 1.16214 12.0875 1.16214 12.0891 1.16214C12.3933 1.16214 12.7216 1.35478 13.0683 1.55785C13.2208 1.64775 13.3789 1.74005 13.5379 1.81711C16.1577 3.08048 18.7776 4.34626 21.3966 5.61124C21.4512 5.63773 21.505 5.66502 21.5628 5.69472L21.2241 5.85766H21.2224ZM17.6707 7.57212C17.2317 7.78402 16.7982 7.99351 16.364 8.20301C16.3174 8.22548 16.2765 8.21264 16.1529 8.15244L16.1425 8.14762C14.5966 7.40035 13.0498 6.65389 11.5039 5.90742C9.9468 5.15614 8.39045 4.40406 6.83411 3.65197C6.89752 3.62147 6.96013 3.59097 7.02193 3.56047C7.45376 3.35098 7.86071 3.15272 8.27006 2.94885C8.36959 2.89908 8.4354 2.89748 8.52851 2.94243C10.5191 3.90721 12.5113 4.8704 14.5026 5.83358C15.6296 6.37858 16.7565 6.92358 17.8834 7.46938L17.6715 7.57212H17.6707Z" fill="#FF6700"/>
<path d="M5.88871 15.5321C5.41755 15.3065 4.9464 15.0794 4.47524 14.853C4.04502 14.6459 3.6156 14.4388 3.18538 14.2326C3.10672 14.1948 3.02565 14.1667 2.96625 14.1459C2.94538 14.1387 2.92692 14.1322 2.91167 14.1266L2.87876 14.1138H2.84345C2.84345 14.1138 2.84024 14.1138 2.83783 14.1138C2.54004 14.1138 2.33216 14.2631 2.26795 14.5239C2.21979 14.7174 2.24547 14.9879 2.63877 15.1773C3.56664 15.6252 4.4945 16.0738 5.42076 16.5249C5.50263 16.5643 5.67199 16.6469 5.84938 16.6469C6.0075 16.6469 6.17205 16.5811 6.28602 16.3612C6.36227 16.2127 6.37913 16.0714 6.33498 15.9406C6.26676 15.7359 6.07091 15.6195 5.88951 15.5321H5.88871Z" fill="#FF6700"/>
<path d="M4.69411 16.6484C4.26309 16.4124 3.81681 16.1909 3.42351 15.995C3.28385 15.9252 3.14901 15.8586 3.02058 15.7935L2.98446 15.7751L2.94353 15.7727C2.71477 15.759 2.39692 15.7807 2.27492 16.1274C2.18422 16.3851 2.28616 16.6403 2.52936 16.7631C3.07195 17.0377 3.62016 17.3009 4.15874 17.5457C4.23259 17.5794 4.30724 17.5955 4.38028 17.5955C4.55124 17.5955 4.71097 17.5072 4.8129 17.3435C4.90039 17.2038 4.93009 17.0433 4.89397 16.9052C4.86508 16.7944 4.79444 16.7029 4.69491 16.6484H4.69411Z" fill="#FF6700"/>
</g>
</svg>
