<svg width="48" height="48" viewBox="0 0 48 48" fill="none" xmlns="http://www.w3.org/2000/svg">
<mask id="mask0_992_5598" style="mask-type:alpha" maskUnits="userSpaceOnUse" x="0" y="0" width="48" height="48">
<rect width="48" height="48" fill="#D9D9D9"/>
</mask>
<g mask="url(#mask0_992_5598)">
<path d="M42.0509 22.1V38C42.0509 39.1 41.6592 40.0417 40.8759 40.825C40.0926 41.6083 39.1509 42 38.0509 42H10.0509C8.95091 42 8.00924 41.6083 7.22591 40.825C6.44258 40.0417 6.05091 39.1 6.05091 38V22.1C5.28424 21.4 4.69258 20.5 4.27591 19.4C3.85924 18.3 3.85091 17.1 4.25091 15.8L6.35091 9C6.61758 8.13333 7.09258 7.41667 7.77591 6.85C8.45924 6.28333 9.25091 6 10.1509 6H37.9509C38.8509 6 39.6342 6.275 40.3009 6.825C40.9676 7.375 41.4509 8.1 41.7509 9L43.8509 15.8C44.2509 17.1 44.2426 18.2833 43.8259 19.35C43.4092 20.4167 42.8176 21.3333 42.0509 22.1ZM28.4509 20C29.3509 20 30.0342 19.6917 30.5009 19.075C30.9676 18.4583 31.1509 17.7667 31.0509 17L29.9509 10H26.0509V17.4C26.0509 18.1 26.2842 18.7083 26.7509 19.225C27.2176 19.7417 27.7842 20 28.4509 20ZM19.4509 20C20.2176 20 20.8426 19.7417 21.3259 19.225C21.8092 18.7083 22.0509 18.1 22.0509 17.4V10H18.1509L17.0509 17C16.9176 17.8 17.0926 18.5 17.5759 19.1C18.0592 19.7 18.6842 20 19.4509 20ZM10.5509 20C11.1509 20 11.6759 19.7833 12.1259 19.35C12.5759 18.9167 12.8509 18.3667 12.9509 17.7L14.0509 10H10.1509L8.15091 16.7C7.95091 17.3667 8.05924 18.0833 8.47591 18.85C8.89258 19.6167 9.58424 20 10.5509 20ZM37.5509 20C38.5176 20 39.2176 19.6167 39.6509 18.85C40.0842 18.0833 40.1842 17.3667 39.9509 16.7L37.8509 10H34.0509L35.1509 17.7C35.2509 18.3667 35.5259 18.9167 35.9759 19.35C36.4259 19.7833 36.9509 20 37.5509 20ZM10.0509 38H38.0509V23.9C37.8842 23.9667 37.7759 24 37.7259 24H37.5509C36.6509 24 35.8592 23.85 35.1759 23.55C34.4926 23.25 33.8176 22.7667 33.1509 22.1C32.5509 22.7 31.8676 23.1667 31.1009 23.5C30.3342 23.8333 29.5176 24 28.6509 24C27.7509 24 26.9092 23.8333 26.1259 23.5C25.3426 23.1667 24.6509 22.7 24.0509 22.1C23.4842 22.7 22.8259 23.1667 22.0759 23.5C21.3259 23.8333 20.5176 24 19.6509 24C18.6842 24 17.8092 23.8333 17.0259 23.5C16.2426 23.1667 15.5509 22.7 14.9509 22.1C14.2509 22.8 13.5592 23.2917 12.8759 23.575C12.1926 23.8583 11.4176 24 10.5509 24H10.3259C10.2426 24 10.1509 23.9667 10.0509 23.9V38Z" fill="white"/>
</g>
</svg>
