<svg width="40" height="40" viewBox="0 0 40 40" fill="none" xmlns="http://www.w3.org/2000/svg">
<mask id="mask0_992_5468" style="mask-type:alpha" maskUnits="userSpaceOnUse" x="0" y="0" width="40" height="40">
<rect width="40" height="40" fill="#D9D9D9"/>
</mask>
<g mask="url(#mask0_992_5468)">
<path d="M36.8892 35.5078C36.7166 31.64 35.0015 28.5162 31.7933 26.2204C30.2093 25.0886 28.3136 24.397 26.1556 24.1642L25.9536 24.1428L25.9175 23.9448C25.8573 23.6223 26.0406 23.4484 26.1275 23.3655L26.161 23.332C28.7123 20.6122 29.4347 17.4268 28.3109 13.8641C28.1624 13.3905 28.252 13.0734 28.6226 12.7684C29.3277 12.1878 29.6648 11.4734 29.6247 10.6466C29.6019 10.1663 29.8227 9.83183 30.0648 9.54151C31.1792 8.21036 32.1131 7.08791 33.0482 5.94405C33.4469 5.45707 33.6034 5.05572 33.5151 4.75203C33.4255 4.45101 33.0817 4.20084 32.489 4.00952C30.7003 3.4289 28.9103 2.85229 27.1202 2.27568C24.894 1.55859 22.6665 0.841505 20.4417 0.11773C20.2009 0.0387975 19.9668 0 19.738 0C19.5092 0 19.2938 0.0361218 19.0664 0.109703C16.7706 0.856221 14.4348 1.61077 12.1751 2.33855C10.4319 2.90045 8.68739 3.46234 6.94551 4.02692C6.57091 4.14866 6.10401 4.37208 5.99029 4.75337C5.87657 5.14669 6.16555 5.61092 6.42643 5.93067C6.62309 6.16747 6.81842 6.40694 7.0124 6.64508C7.72414 7.51602 8.46129 8.41505 9.20647 9.27796C9.67605 9.81845 9.87272 10.3161 9.86469 10.9382C9.85533 11.559 10.1456 12.1463 10.6808 12.5905C11.1718 12.9972 11.2828 13.3985 11.0754 14.022C10.2727 16.4475 10.4721 18.8529 11.6694 21.1727C12.127 22.0584 12.7946 22.8223 13.501 23.629L13.8822 24.0638L13.2267 24.1735C13.1397 24.1882 13.0795 24.1976 13.018 24.207C8.08536 24.9321 4.73271 27.6881 3.05506 32.3986C2.45704 34.0789 2.48513 35.877 2.51055 37.6149C2.51724 38.0122 2.52259 38.4216 2.52126 38.8256C2.51992 39.6845 2.82896 39.9895 3.70391 39.9949C4.8384 40.0016 5.99297 40.0002 7.10873 39.9989C7.585 39.9989 8.06261 39.9976 8.53755 39.9976H15.0248C21.8732 39.9976 28.7189 39.9989 35.5674 39.9976C36.643 39.9962 36.9066 39.7354 36.9092 38.6664C36.9092 38.4296 36.9106 38.1915 36.9133 37.9547C36.9186 37.1506 36.924 36.3212 36.8878 35.5078H36.8892ZM25.9697 26.0545C26.0071 26.0545 26.0473 26.0572 26.0847 26.0626C26.2332 26.0826 26.458 26.1134 26.5784 26.2967C26.6252 26.3689 26.672 26.4907 26.6239 26.6579C26.466 27.2118 26.2881 27.8392 26.0178 28.4105C25.9429 28.5697 25.8185 28.6152 25.7503 28.6272C25.7275 28.6326 25.7048 28.6339 25.6807 28.6339C25.4921 28.6339 25.3369 28.4894 25.2191 28.3784C25.1964 28.3583 25.1763 28.3382 25.1563 28.3222C24.6827 27.9249 24.2211 27.5262 23.6833 27.0646L22.506 26.0532H25.967L25.9697 26.0545ZM11.0139 8.52208C10.3249 7.65783 9.70014 6.90328 9.10212 6.21162C8.96566 6.05241 8.81582 5.84103 8.88137 5.60959C8.95496 5.34871 9.25196 5.25506 9.40982 5.20422C12.2835 4.28913 15.4167 3.28174 19.2738 2.03219C19.6818 1.89974 20.0296 1.97734 20.2852 2.06028C23.979 3.25498 27.0667 4.24498 30.0006 5.17479C30.2481 5.25372 30.5197 5.35941 30.5906 5.61628C30.6602 5.86779 30.4929 6.0979 30.3377 6.27048C29.7732 6.90596 29.1805 7.62037 28.525 8.45117C28.2253 8.83246 27.8855 8.93948 27.4212 8.79767C24.9502 8.05115 22.3441 7.96553 19.8236 7.88259L19.7514 7.87991C17.1787 7.96152 14.5204 8.04714 11.9852 8.81506C11.8715 8.84985 11.7658 8.86858 11.6668 8.86858C11.4112 8.86858 11.1985 8.75486 11.0126 8.52208H11.0139ZM11.5771 10.8192L12.0681 10.7001C17.077 9.49469 22.098 9.48399 27.4159 10.6666L27.8989 10.7737L27.547 11.1242C26.0112 12.652 22.5421 13.2032 19.8076 13.2085H19.7701C17.0449 13.2085 13.5705 12.6721 11.9477 11.163L11.5771 10.8205V10.8192ZM13.0394 26.2606C13.1973 26.0385 13.4702 26.0398 14.02 26.0398C14.2368 26.0412 14.507 26.0412 14.8361 26.0291C15.1345 26.0198 15.4248 26.0224 15.794 26.0251C15.9813 26.0264 16.1887 26.0278 16.4228 26.0278H17.1519L16.5994 26.5041C16.3385 26.7288 16.095 26.9375 15.8636 27.1369C15.3311 27.5931 14.8709 27.9877 14.412 28.3958C14.2996 28.4961 14.1378 28.6192 13.9491 28.6192C13.913 28.6192 13.8729 28.6138 13.8341 28.6031C13.5705 28.5296 13.4782 28.2339 13.4381 28.1081C13.3324 27.7683 13.2374 27.4967 13.1598 27.2787C12.9725 26.7502 12.8789 26.4853 13.0381 26.2619L13.0394 26.2606ZM18.7266 37.8878C18.554 38.0617 18.3011 38.1393 17.9105 38.1393H17.8864C13.4836 38.1045 9.09409 38.1166 5.38023 38.1339C4.78489 38.1326 4.40628 37.9788 4.37417 37.1881C4.20962 33.204 5.52472 30.1979 8.38905 27.9971C8.96298 27.5569 9.59445 27.2158 10.1925 26.9134C10.3477 26.8358 10.5791 26.7422 10.8079 26.8372C11.0393 26.9335 11.141 27.1743 11.1972 27.3469C11.5571 28.4479 11.933 29.5517 12.3196 30.6286C12.4427 30.9711 12.6702 31.4019 13.0514 31.5049C13.4394 31.6093 13.8622 31.343 14.1471 31.1022C15.1318 30.2714 16.1285 29.4166 17.0917 28.5911C17.5105 28.2299 17.9306 27.8713 18.352 27.5115L18.5593 27.3322L18.7359 27.5422C18.9995 27.8553 18.9781 28.1657 18.9634 28.3944C18.9594 28.4413 18.9567 28.4881 18.9567 28.5322C18.9594 29.5156 18.958 30.4975 18.958 31.4808C18.9567 33.291 18.9554 35.1626 18.9741 37.0021C18.9768 37.3312 18.95 37.667 18.7279 37.8891L18.7266 37.8878ZM19.7126 24.1093C17.4583 24.1093 15.3713 23.0845 13.9866 21.2972C12.6099 19.5205 12.1377 17.2649 12.6916 15.1056C12.7718 14.7939 12.8655 14.5009 13.1237 14.3524C13.3284 14.2347 13.5893 14.2307 13.9679 14.3404C17.7553 15.4227 21.6203 15.4294 25.4533 14.3604C25.7315 14.2828 26.0513 14.2253 26.3108 14.3752C26.549 14.5116 26.6547 14.7671 26.7416 15.107C27.2928 17.2689 26.8152 19.5259 25.4345 21.3025C24.0472 23.0859 21.9628 24.108 19.7139 24.108H19.7126V24.1093ZM34.8704 37.9186C34.6951 38.1032 34.4356 38.1273 34.2269 38.1273H34.2202C30.6281 38.1192 26.771 38.1179 21.7153 38.1246C21.4718 38.1326 21.2203 38.1112 21.0411 37.9306C20.9113 37.8022 20.8484 37.6122 20.8497 37.354C20.8604 34.9927 20.8591 32.6541 20.8578 30.1764V27.1369L22.4645 28.5148C23.4826 29.3871 24.4419 30.2086 25.3998 31.0327C25.6754 31.2681 25.9349 31.4929 26.2653 31.5076C26.7844 31.529 27.0961 31.2935 27.2794 30.741C27.4012 30.3758 27.5269 30.0132 27.654 29.6493C27.8855 28.9804 28.1263 28.2887 28.3296 27.6024C28.4046 27.3536 28.525 27.0512 28.7992 26.9389C29.0735 26.8265 29.3691 26.9549 29.5966 27.0793C32.9184 28.9042 34.7446 31.731 35.0215 35.4797C35.047 35.8155 35.0429 36.1553 35.0389 36.4817C35.0349 36.7533 35.0322 37.0356 35.0456 37.3045C35.0536 37.4797 35.0456 37.7313 34.8704 37.9159V37.9186Z" fill="#FF6700"/>
<path d="M31.1882 35.414C31.2002 35.9786 30.823 36.3425 30.2022 36.3652C29.7714 36.3799 29.3286 36.3772 28.9018 36.3732C28.7975 36.3719 28.6918 36.3719 28.5874 36.3705L28.3158 36.3679C28.1285 36.3679 27.9412 36.3692 27.7539 36.3719C27.3459 36.3759 26.9231 36.3812 26.5124 36.3612C25.9572 36.3358 25.5572 35.9451 25.5626 35.4314C25.5666 34.911 25.9719 34.5243 26.5245 34.5136C27.7085 34.4882 28.9527 34.4882 30.2249 34.5123C30.8069 34.523 31.1762 34.8695 31.1882 35.4153V35.414Z" fill="#FF6700"/>
</g>
</svg>
