<svg width="44" height="32" viewBox="0 0 44 32" fill="none" xmlns="http://www.w3.org/2000/svg">
<path d="M43.3346 3.10222C43.3346 2.66271 43.3346 2.22178 43.3332 1.78228C43.3332 0.216899 43.1192 0 41.5766 0C36.548 0 31.5194 0 26.4907 0H22.0543H16.7717C11.9143 0 7.05693 3.04864e-07 2.19955 0.00142727C0.959514 0.00142727 0.674118 0.283966 0.671264 1.51115C0.66841 2.98521 0.665556 4.56914 0.671264 6.16306C0.678399 8.22359 1.74292 9.32664 3.75208 9.35375C4.00323 9.3566 4.16019 9.40084 4.24866 9.49216C4.35141 9.59919 4.36996 9.78469 4.36568 10.0301C4.33999 11.3287 4.33856 12.6429 4.3614 13.9357C4.45557 19.2027 6.46046 23.6348 10.3204 27.108C13.5682 30.0305 17.6607 31.5659 21.8888 31.5659C23.6996 31.5659 25.5361 31.2833 27.3398 30.7083C33.3873 28.779 37.8194 23.9673 39.195 17.837C39.6745 15.6995 39.6559 13.5076 39.6388 11.3872C39.6345 10.942 39.6317 10.4967 39.6317 10.0515C39.6317 9.49359 39.7658 9.3566 40.3095 9.35375C42.2159 9.33948 43.3161 8.21503 43.3289 6.26723C43.3361 5.21127 43.3346 4.1382 43.3318 3.10079L43.3346 3.10222ZM37.6953 10.0786C37.6796 10.6765 37.6767 11.2844 37.6739 11.8709C37.6639 13.9129 37.6525 16.0234 37.1074 18.0711C35.5363 23.9673 30.452 28.515 24.453 29.3883C16.7888 30.5028 9.86092 26.3489 7.21247 19.0514C6.64311 17.4832 6.362 15.7266 6.32775 13.5233C6.31205 12.5501 6.31776 11.5927 6.32775 10.5338C6.32775 10.3869 6.32775 10.2584 6.32775 10.1443C6.32632 9.72904 6.3249 9.51928 6.40909 9.43651C6.46474 9.38086 6.57604 9.36802 6.75727 9.36802C6.82576 9.36802 6.90567 9.36945 6.99557 9.3723C7.12114 9.37515 7.26955 9.37801 7.44221 9.37801C10.9668 9.3723 14.5513 9.37373 18.0174 9.37373H21.983C23.1402 9.37373 24.2989 9.37373 25.4562 9.37515C29.2205 9.37658 33.1119 9.37801 36.939 9.36088C37.2757 9.36088 37.4541 9.40227 37.5583 9.50786C37.6596 9.6106 37.701 9.78612 37.6924 10.0772L37.6953 10.0786ZM41.3982 2.86962C41.3497 3.55885 41.3611 4.26234 41.3711 4.94158C41.3754 5.24837 41.3811 5.55517 41.3811 5.86197C41.3797 7.22757 41.1856 7.41736 39.7829 7.41736H39.7786L29.8042 7.4145C24.4331 7.41308 19.0634 7.41022 13.6923 7.41022H13.3969C11.8544 7.41022 10.3133 7.41165 8.77071 7.41308C7.19963 7.4145 5.62283 7.41593 4.05602 7.41736C2.88449 7.41736 2.63049 7.17049 2.62621 6.02464C2.62478 5.67218 2.62906 5.32115 2.63334 4.96869C2.6419 4.25235 2.65047 3.51033 2.61051 2.78258C2.59196 2.4558 2.63477 2.25746 2.7475 2.13759C2.86451 2.01487 3.06999 1.96636 3.43815 1.9635C8.23846 1.98205 13.1187 1.98063 17.8391 1.9792C19.2418 1.9792 20.6445 1.9792 22.0472 1.9792C23.4956 1.9792 24.9439 1.9792 26.3923 1.9792C31.0128 1.98063 35.7903 1.98348 40.4907 1.96208C40.8917 1.95922 41.1271 2.01773 41.2555 2.15614C41.3797 2.28885 41.4239 2.5086 41.3982 2.86962Z" fill="#FF6700"/>
<path d="M22.0106 11.106C22.0006 11.106 21.9892 11.106 21.9792 11.106C19.7489 11.1145 17.6513 11.995 16.0745 13.586C14.4891 15.1856 13.6215 17.3075 13.6329 19.5579C13.6558 24.1384 17.4087 27.8542 22.0035 27.8542C22.0121 27.8542 22.0206 27.8542 22.0292 27.8542C26.6269 27.84 30.3698 24.097 30.3755 19.5079C30.3783 17.2633 29.4993 15.1485 27.8997 13.5532C26.3158 11.9736 24.2253 11.106 22.0106 11.106ZM28.422 19.4979C28.4177 23.0111 25.5552 25.8807 22.0392 25.8936C22.0306 25.8936 22.022 25.8936 22.0149 25.8936C20.2926 25.8936 18.6772 25.2286 17.4643 24.02C16.2528 22.8128 15.585 21.2032 15.585 19.4879C15.585 15.979 18.4489 13.098 21.9678 13.0666C21.9864 13.0666 22.0049 13.0666 22.0249 13.0666C23.7002 13.0666 25.2898 13.7301 26.507 14.9374C27.7456 16.166 28.4263 17.7856 28.4234 19.4979H28.422Z" fill="#FF6700"/>
<path d="M33.1674 12.9937C32.8706 12.9738 32.6152 13.0537 32.4339 13.222C32.2513 13.3919 32.1528 13.6401 32.1485 13.9398C32.1414 14.5134 32.4981 14.8745 33.0789 14.8845C33.0875 14.8845 33.096 14.8845 33.1046 14.8845C33.6568 14.8845 33.9922 14.5762 34.0507 14.0083C34.0507 13.399 33.7268 13.0294 33.166 12.9937H33.1674Z" fill="#FF6700"/>
<path d="M21.9655 14.8136C19.4012 14.8436 17.3164 16.9427 17.3164 19.4912C17.3164 20.737 17.8059 21.9099 18.6963 22.7932C19.5867 23.6779 20.764 24.1645 22.0168 24.1645C22.0254 24.1645 22.0354 24.1645 22.0439 24.1645C24.6039 24.1503 26.6901 22.0569 26.6944 19.4969C26.6958 18.2512 26.1993 17.0725 25.2946 16.1764C24.3913 15.2817 23.2112 14.8008 21.9669 14.8122L21.9655 14.8136ZM19.2842 19.4969C19.2828 18.02 20.4928 16.8114 21.9812 16.8014C21.9883 16.8014 21.994 16.8014 22.0011 16.8014C23.4966 16.8014 24.6895 17.9629 24.7209 19.4541C24.7366 20.159 24.4484 20.8625 23.9318 21.3862C23.411 21.9156 22.7003 22.2182 21.984 22.2096C20.5214 22.1982 19.2842 20.9567 19.2828 19.4984L19.2842 19.4969Z" fill="#FF6700"/>
</svg>
