<svg width="24" height="24" viewBox="0 0 24 24" fill="none" xmlns="http://www.w3.org/2000/svg">
<mask id="mask0_1353_1599" style="mask-type:alpha" maskUnits="userSpaceOnUse" x="0" y="0" width="24" height="24">
<rect width="24" height="24" fill="#D9D9D9"/>
</mask>
<g mask="url(#mask0_1353_1599)">
<path d="M22.983 3.20417V3.22039C22.9149 4.04434 22.8387 5.01995 22.7827 6.00691C22.7787 6.09125 22.7681 6.19262 22.7333 6.22263C22.7146 6.23885 22.6643 6.25588 22.5338 6.24371C21.3757 6.13747 20.2322 6.05394 19.1333 5.99718C19.0052 5.98988 18.9241 5.96798 18.8925 5.93068C18.86 5.89337 18.8519 5.81146 18.8657 5.67197L18.8681 5.64116C18.9111 5.20242 18.9371 4.93804 19.0393 4.85694C19.1431 4.77422 19.4172 4.80098 19.8721 4.84478C20.0108 4.85856 20.1503 4.87073 20.3174 4.88695L20.8923 4.94047L20.7107 4.71583C20.3328 4.25033 19.937 3.87323 19.4269 3.49207C16.0824 0.994258 12.5003 0.477666 8.7804 1.95608C6.89812 2.70461 5.37267 3.80348 4.24541 5.22026C3.1214 6.63379 2.39152 8.36685 2.07686 10.3724C1.57568 13.5636 2.52857 16.7775 4.69145 19.1893C6.86892 21.6166 9.98632 22.9215 13.2416 22.7674C16.6225 22.6076 19.3872 21.1203 21.4584 18.3467C21.6457 18.0961 21.7139 18.1075 21.945 18.2697L21.975 18.2908C22.3245 18.5357 22.5354 18.6841 22.55 18.7984C22.5646 18.9112 22.4024 19.1099 22.1356 19.4237C18.727 23.4413 14.5375 24.8232 9.68545 23.5313C4.7985 22.2305 1.7622 18.8471 0.904187 13.7477C0.377052 10.6116 1.2156 7.31988 3.20412 4.71583C5.21453 2.0834 8.20785 0.39008 11.4161 0.0689331C11.8791 0.0227074 12.3349 0 12.7834 0C16.0013 0 18.8495 1.1897 21.2638 3.54721C21.2986 3.58128 21.327 3.62912 21.3578 3.68021C21.3749 3.7086 21.3919 3.73698 21.4097 3.76374L21.4681 3.8489L21.7487 3.71914L21.7544 3.64859C21.7649 3.53099 21.7763 3.4134 21.7877 3.295C21.8152 3.01359 21.8436 2.72245 21.8558 2.43374C21.8615 2.31291 21.8842 2.27722 21.8971 2.26668C21.915 2.25208 21.9596 2.24965 22.0188 2.26019C22.0504 2.26587 22.0796 2.26587 22.1056 2.26587H22.1299C22.5921 2.28209 22.8711 2.29182 22.9571 2.38752C23.0422 2.48321 23.0203 2.75489 22.983 3.20417Z" fill="#FF6700"/>
<path d="M9.50522 13.4843V14.5061H5.41141V13.6935L7.5013 11.7204C7.9814 11.2638 8.06655 10.9849 8.06655 10.7221C8.06655 10.2963 7.77217 10.049 7.19962 10.049C6.73493 10.049 6.34079 10.2266 6.07722 10.5907L5.16406 10.0028C5.58172 9.39128 6.33998 8.99634 7.31558 8.99634C8.52313 8.99634 9.32762 9.61511 9.32762 10.598C9.32762 11.1243 9.18083 11.6044 8.42176 12.3084L7.1761 13.4843H9.50522Z" fill="#FF6700"/>
<path d="M14.906 13.3681H14.0237V14.506H12.8007V13.3681H9.88281V12.5247L12.4366 9.08862H13.752L11.3839 12.3471H12.8388V11.3334H14.0228V12.3471H14.9052V13.369L14.906 13.3681Z" fill="#FF6700"/>
<path d="M19.7881 12.1225V14.506H18.5805V12.3082C18.5805 11.6351 18.2707 11.3253 17.7371 11.3253C17.1564 11.3253 16.7388 11.6813 16.7388 12.4477V14.506H15.5312V8.76343H16.7388V10.7755C17.064 10.4503 17.5279 10.28 18.0623 10.28C19.0452 10.28 19.7881 10.8525 19.7881 12.1217V12.1225Z" fill="#FF6700"/>
</g>
</svg>
