<?xml version="1.0" encoding="utf-8"?>
<!-- Generator: Adobe Illustrator 28.3.0, SVG Export Plug-In . SVG Version: 6.00 Build 0)  -->
<svg version="1.1" id="Capa_1" xmlns="http://www.w3.org/2000/svg" xmlns:xlink="http://www.w3.org/1999/xlink" x="0px" y="0px"
	 viewBox="0 0 20 18" style="enable-background:new 0 0 20 18;" xml:space="preserve">
<path d="M0,18V0h10v4h10v14H0z M2,16h2v-2H2V16z M2,12h2v-2H2V12z M2,8h2V6H2V8z M2,4h2V2H2V4z M6,16h2v-2H6V16z M6,12h2v-2H6V12z
	 M6,8h2V6H6V8z M6,4h2V2H6V4z M10,16h8V6h-8v2h2v2h-2v2h2v2h-2V16z M14,10V8h2v2H14z M14,14v-2h2v2H14z"/>
</svg>
