<svg width="44" height="44" viewBox="0 0 44 44" fill="none" xmlns="http://www.w3.org/2000/svg">
<mask id="mask0_1353_7456" style="mask-type:alpha" maskUnits="userSpaceOnUse" x="0" y="0" width="44" height="44">
<rect x="0.667969" y="0.666626" width="42.6667" height="42.6667" fill="#D9D9D9"/>
</mask>
<g mask="url(#mask0_1353_7456)">
<path d="M8.67066 22.0007C8.67066 16.2186 8.66924 10.4379 8.67066 4.65575C8.67066 2.11858 10.119 0.670193 12.6534 0.668766C18.8022 0.665912 24.9496 0.665912 31.0985 0.668766C33.6342 0.668766 35.0812 2.11715 35.0812 4.65432C35.084 16.2171 35.084 27.7799 35.0812 39.3442C35.0812 41.8813 33.6328 43.3297 31.0985 43.3312C24.9496 43.334 18.8022 43.334 12.6534 43.3312C10.119 43.3312 8.67066 41.8813 8.66924 39.3442C8.66638 33.5621 8.66924 27.7814 8.66924 21.9992L8.67066 22.0007ZM33.0477 22.0292C33.0477 20.5637 33.0477 19.0968 33.0477 17.6313C33.0477 13.2604 33.052 8.89102 33.0449 4.52018C33.0435 3.28299 32.467 2.72219 31.2298 2.70649C30.8074 2.70078 30.3836 2.70649 29.9612 2.70649C28.89 2.70649 28.3406 3.23923 28.313 4.30471C28.2774 5.69316 27.3641 6.73485 26.0341 6.7534C23.2715 6.79193 20.5075 6.78623 17.7448 6.75626C16.5447 6.74342 15.6143 5.82587 15.4517 4.66573C15.3618 4.02074 15.777 3.13173 15.2162 2.78926C14.7211 2.48674 13.902 2.71362 13.2256 2.70792C13.0558 2.70649 12.8874 2.70792 12.7176 2.70792C11.2135 2.71362 10.7084 3.22306 10.7084 4.75421C10.7084 16.2571 10.7084 27.7614 10.7084 39.2643C10.7084 40.7854 11.2178 41.2963 12.7304 41.2977C18.8208 41.2991 24.9111 41.2991 31 41.2977C32.5554 41.2977 33.0463 40.794 33.0463 39.2029C33.0463 33.4793 33.0463 27.7557 33.0463 22.0321L33.0477 22.0292ZM21.9187 2.70506C20.6516 2.70506 19.383 2.73218 18.1173 2.69222C17.575 2.6751 17.4138 2.86346 17.4751 3.36718C17.5051 3.61691 17.4922 3.87376 17.4794 4.12633C17.458 4.55443 17.6435 4.73566 18.0787 4.73423C20.6131 4.72567 23.1488 4.72567 25.6831 4.73423C26.1198 4.73566 26.301 4.55015 26.2796 4.12348C26.2667 3.87091 26.2525 3.61405 26.2839 3.36433C26.3467 2.85775 26.1768 2.6751 25.6389 2.69222C24.4003 2.73218 23.1602 2.70506 21.9216 2.70506H21.9187Z" fill="#FF6700"/>
<path d="M21.8775 37.9158C21.0313 37.9158 20.1851 37.9187 19.3389 37.9158C18.644 37.9129 18.1659 37.6019 18.1759 36.8741C18.1859 36.1963 18.6426 35.8838 19.3018 35.8824C21.0228 35.8781 22.7423 35.8781 24.4632 35.8824C25.1253 35.8838 25.5762 36.202 25.5834 36.8798C25.5905 37.6061 25.1125 37.9158 24.4161 37.9158C23.5699 37.9158 22.7237 37.9158 21.8775 37.9158Z" fill="#FF6700"/>
</g>
</svg>
