<svg width="40" height="40" viewBox="0 0 40 40" fill="none" xmlns="http://www.w3.org/2000/svg">
<path d="M23.3362 19.9475C23.3362 15.0379 23.3362 10.127 23.3362 5.21735C23.3362 4.94252 23.3776 4.96787 23.0801 4.9692C21.0722 4.9732 19.0656 4.98254 17.0578 4.98388C16.3654 4.98388 15.6729 4.96787 14.9805 4.95719C14.8111 4.95452 14.6417 4.95986 14.4762 4.99855C13.9813 5.11195 13.7451 5.51219 13.7665 6.14991C13.8078 7.35997 13.7878 8.57136 13.7865 9.78275C13.7865 10.1977 13.7865 10.6126 13.7771 11.0262C13.7718 11.273 13.7251 11.5131 13.609 11.7359C13.4209 12.0988 13.1127 12.2576 12.7125 12.2522C12.3176 12.2469 12.0228 12.0721 11.8467 11.7146C11.7132 11.4437 11.6826 11.1529 11.6826 10.8554C11.6852 9.03831 11.6825 7.22255 11.6892 5.40546C11.6959 3.9646 12.7699 2.90396 14.2107 2.88528C16.376 2.85727 18.5413 2.86527 20.708 2.86661C21.5258 2.86661 22.3436 2.87594 23.1614 2.89062C23.3109 2.89329 23.3429 2.84659 23.3402 2.70651C23.3335 2.28759 23.3255 1.86734 23.4056 1.45109C23.607 0.387786 24.3261 -0.125856 25.4001 0.0262354C26.0138 0.112954 26.5928 0.329084 27.1799 0.507858C30.718 1.58183 34.2534 2.66248 37.7902 3.74046C38.0504 3.82051 38.3065 3.9139 38.5547 4.02597C39.4419 4.42621 39.8875 5.12796 39.9728 6.08053C39.9942 6.32468 40.0009 6.57016 40.0009 6.81564C40.0009 15.6543 40.0009 24.4929 39.9995 33.3315C39.9995 33.6918 39.9595 34.0493 39.8621 34.3988C39.6327 35.2153 39.0616 35.7023 38.2972 35.9878C37.6234 36.24 36.927 36.4241 36.2399 36.6335C32.8379 37.6701 29.4345 38.7001 26.0325 39.7327C25.7176 39.8288 25.4001 39.8915 25.0679 39.8901C24.2221 39.8861 23.6617 39.4512 23.4429 38.6281C23.3175 38.1571 23.3322 37.6768 23.3389 37.1979C23.3416 37.0551 23.3109 37.0044 23.1534 37.0044C20.7747 37.0138 18.3959 37.0111 16.0172 37.0218C15.4061 37.0244 14.7964 37.0244 14.1854 37.0084C12.7432 36.9724 11.6999 35.9238 11.6879 34.4802C11.6772 33.2208 11.6732 31.9601 11.6719 30.7006C11.6719 30.0683 11.6799 29.4359 11.6892 28.8022C11.6906 28.6888 11.7052 28.5727 11.7319 28.462C11.86 27.9203 12.2469 27.6188 12.7765 27.6388C13.2902 27.6588 13.6597 28.007 13.7505 28.5513C13.7852 28.7568 13.7825 28.9649 13.7825 29.1717C13.7825 30.77 13.7785 32.3683 13.7785 33.9666C13.7785 34.4722 14.0053 34.7938 14.4375 34.8911C14.575 34.9218 14.719 34.9338 14.8591 34.9312C17.45 34.8818 20.0409 34.9165 22.6318 34.9125C22.8279 34.9125 23.024 34.9178 23.2201 34.9232C23.3015 34.9258 23.3429 34.8978 23.3362 34.8098C23.3322 34.7604 23.3362 34.711 23.3362 34.663C23.3362 29.7587 23.3362 24.8531 23.3362 19.9489V19.9475ZM37.9049 19.9569V18.2385C37.9049 15.7677 37.9049 13.2955 37.9049 10.8247C37.9049 10.4925 37.9076 10.159 37.9076 9.82678C37.9076 8.83952 37.9169 7.85226 37.9049 6.865C37.8983 6.27532 37.6048 5.89909 37.0484 5.69897C36.9871 5.67629 36.9244 5.65628 36.8617 5.6376C35.1446 5.12529 33.4263 4.61966 31.7132 4.09801C30.0723 3.59904 28.4366 3.08407 26.7983 2.57843C26.6742 2.53974 26.5461 2.50772 26.4181 2.48371C25.8551 2.37698 25.4775 2.66515 25.4375 3.24016C25.4028 3.74046 25.4255 4.24343 25.4295 4.74373C25.4375 5.747 25.4361 6.7516 25.4361 7.75487C25.4348 17.2312 25.4321 26.7076 25.4308 36.1839C25.4308 36.3587 25.4255 36.5335 25.4375 36.7069C25.4748 37.2152 25.799 37.4807 26.306 37.43C26.4421 37.4167 26.5728 37.3806 26.7036 37.3393C29.6453 36.4187 32.5911 35.5142 35.5475 34.6403C36.0278 34.4989 36.5094 34.3602 36.9884 34.2147C37.5941 34.0306 37.8823 33.6624 37.8996 33.0314C37.9116 32.6058 37.9023 32.1802 37.9023 31.7546C37.9023 27.8216 37.9023 23.8885 37.9023 19.9542L37.9049 19.9569Z" fill="#FF6700"/>
<path d="M19.1675 19.0762C17.8414 17.7181 16.4365 16.3133 14.9917 14.8991C14.7115 14.6282 14.4033 14.4855 14.1005 14.4922C13.8416 14.4962 13.5988 14.6122 13.396 14.8244C12.9745 15.27 13.0158 15.8637 13.5054 16.3706C13.8603 16.7375 14.2499 17.0924 14.6274 17.4339C14.8836 17.6687 15.1504 17.9089 15.4053 18.1557L16.1364 18.8601H10.4169C7.38044 18.8588 4.34395 18.8588 1.31013 18.8641C0.844516 18.8641 0.0560362 18.9922 0.00267087 19.8447C0.00133674 19.8661 0 19.8887 0 19.9101C0 19.9314 0.00133674 19.9541 0.00267087 19.9755C0.0573703 20.828 0.84585 20.956 1.31013 20.956C4.34528 20.9614 7.38177 20.9614 10.4169 20.96H16.1364L15.4053 21.6645C15.1504 21.9113 14.8836 22.1514 14.6274 22.3862C14.2499 22.7291 13.859 23.0827 13.5054 23.4495C13.0158 23.9565 12.9745 24.5502 13.396 24.9958C13.5975 25.2079 13.8403 25.324 14.1005 25.328C14.4033 25.3347 14.7115 25.1933 14.9917 24.9211C16.4365 23.5082 17.8414 22.1034 19.1675 20.7439C19.397 20.5091 19.5117 20.2089 19.5117 19.9074C19.5117 19.6059 19.397 19.3057 19.1675 19.0709V19.0762Z" fill="#FF6700"/>
<path d="M29.7566 21.3938C29.7325 21.9888 29.3003 22.4144 28.7239 22.4144H28.7026C28.1249 22.4037 27.7127 21.9714 27.6766 21.3377C27.6593 21.0189 27.6633 20.7014 27.6686 20.3638C27.6713 20.2131 27.6726 20.061 27.6726 19.9102C27.6726 19.7595 27.6713 19.606 27.6686 19.4539C27.6633 19.1177 27.6593 18.8002 27.6766 18.4827C27.714 17.841 28.1169 17.4221 28.7053 17.4114H28.7213C29.2989 17.4114 29.7339 17.8396 29.7566 18.436C29.7952 19.4246 29.7952 20.4212 29.7566 21.3951V21.3938Z" fill="#FF6700"/>
</svg>
