<svg width="24" height="24" viewBox="0 0 24 24" fill="none" xmlns="http://www.w3.org/2000/svg">
<g clip-path="url(#clip0_1452_3547)">
<path d="M17.9157 21.7699C17.6803 21.7699 17.5461 21.8663 17.4762 21.9475C17.3581 22.0832 17.3164 22.2817 17.3517 22.5363C17.3766 22.7163 17.3461 22.7677 17.3365 22.7797C17.3148 22.8046 17.2433 22.8343 17.0264 22.8343H17.0199C11.7172 22.8199 6.50368 22.8199 1.5247 22.8343H1.51828C1.35681 22.8343 1.25639 22.8159 1.22024 22.7797C1.18409 22.7436 1.16562 22.6424 1.16642 22.4801C1.18008 19.8532 1.17847 15.8398 1.17686 13.258C1.17686 12.441 1.17606 11.624 1.17606 10.8062V9.69926C1.17606 6.99849 1.17686 4.20615 1.17285 1.4596C1.17285 1.36722 1.17285 1.22664 1.20177 1.19772C1.20498 1.1945 1.23952 1.16398 1.38733 1.16398H1.39135C4.98701 1.17844 8.89838 1.17844 13.348 1.16639H13.3512C13.4877 1.16639 13.5143 1.19129 13.5151 1.19209C13.5175 1.1945 13.5392 1.22101 13.5359 1.38248C13.5287 1.79378 13.5303 2.2107 13.5311 2.61397C13.5327 3.07267 13.5343 3.54662 13.5231 4.01094C13.5191 4.17884 13.5327 4.36922 13.6653 4.50177C13.7986 4.63512 13.9938 4.64878 14.1473 4.64476C14.5979 4.63432 15.0582 4.63673 15.5025 4.63834C15.9989 4.64075 16.5114 4.64316 17.0175 4.62789C17.1758 4.62307 17.2738 4.63753 17.3067 4.66967C17.326 4.68895 17.3581 4.75 17.3557 4.94842C17.3365 6.54221 17.3397 8.1617 17.3429 9.72817C17.3437 10.256 17.3445 9.11846 17.3453 9.64624C17.3453 9.67596 17.3453 9.70488 17.3453 9.7346C17.3437 9.8551 17.3421 9.97961 17.363 10.1073C17.4096 10.3957 17.6232 10.5773 17.9205 10.5821C17.9237 10.5821 17.9277 10.5821 17.9309 10.5821C18.1904 10.5821 18.3944 10.4247 18.4667 10.1692C18.5077 10.0222 18.5077 9.87117 18.5077 9.73862C18.5077 8.97868 18.5077 9.88322 18.5077 9.12247C18.5077 7.44112 18.5077 5.70193 18.5141 3.99166C18.5149 3.66793 18.4113 3.42934 18.1775 3.21887C17.0754 2.22838 15.9909 1.24592 14.9546 0.297997C14.7321 0.0947569 14.4935 0.00398169 14.181 0.00398169H14.1778C9.38198 0.0144249 5.06092 0.0192448 0.740661 -3.49159e-05C0.558308 -0.00164156 0.323738 0.0176381 0.171107 0.169466C0.0152631 0.32531 0.00240996 0.559076 0.00240996 0.766333C0.0144598 8.87666 0.0136564 16.3981 0 23.2183C0 23.4433 0.020083 23.673 0.173517 23.8264C0.325345 23.9783 0.555094 24 0.762351 24H0.771991C5.06413 23.9863 9.42857 23.9871 13.65 23.9887C14.7931 23.9887 15.9355 23.9887 17.0786 23.9887C17.7719 23.9887 18.1197 23.9887 18.3326 23.7686C18.5455 23.5485 18.5334 23.1991 18.5085 22.4962C18.5013 22.2977 18.4828 21.7699 17.9157 21.7699ZM14.6927 1.81467V1.63874L16.7099 3.4679C16.6271 3.4679 16.5452 3.4679 16.464 3.4679C15.8479 3.4687 15.2663 3.46951 14.6919 3.46469C14.6919 3.45264 14.6919 3.44139 14.6927 3.43175C14.6927 3.41086 14.6943 3.39078 14.6943 3.3715C14.6919 2.87023 14.6927 2.36896 14.6927 1.81467Z" fill="#FF6700"/>
<path d="M22.5976 12.7253C21.7091 11.8457 20.5403 11.3629 19.2991 11.3629C19.2823 11.3629 19.2646 11.3629 19.2469 11.3629C17.9817 11.3766 16.7984 11.877 15.9155 12.7711C15.0327 13.6652 14.5499 14.8541 14.5547 16.1186C14.5595 17.3862 15.052 18.5711 15.9413 19.4556C16.8289 20.3384 18.0146 20.8252 19.2807 20.8252H19.2855C20.5523 20.8244 21.738 20.3352 22.6249 19.4475C23.5117 18.5607 24.001 17.3742 24.0034 16.1065C24.005 14.8268 23.5061 13.6267 22.5976 12.7261V12.7253ZM19.2839 12.5277C20.2294 12.5277 21.1195 12.8965 21.7902 13.5672C22.4642 14.2404 22.8362 15.1377 22.8386 16.0929C22.841 17.052 22.4747 17.9493 21.8071 18.6193C21.1395 19.2893 20.2446 19.6596 19.2863 19.6604H19.2815C17.286 19.6604 15.7219 18.1004 15.7195 16.1065C15.7171 14.1392 17.3109 12.5334 19.2726 12.5277H19.2839Z" fill="#FF6700"/>
<path d="M2.67739 10.5975C2.70631 10.8955 2.90714 11.0915 3.20276 11.11C3.32165 11.1172 3.43974 11.118 3.55381 11.1172H3.59639C4.72264 11.1172 5.8481 11.1172 6.97435 11.1172H13.0081H13.1511C13.1985 11.1172 13.2459 11.1172 13.2941 11.1172C13.4065 11.1172 13.5214 11.1164 13.6347 11.1124C13.9713 11.1019 14.1866 10.9059 14.2115 10.5902C14.238 10.2504 14.0388 10.0167 13.6781 9.96445C13.5784 9.94999 13.4829 9.95159 13.3913 9.9524C13.3664 9.9524 13.3415 9.9524 13.3158 9.9524C10.0671 9.9524 6.81851 9.9524 3.56988 9.9524H3.56827C3.54257 9.9524 3.51686 9.9524 3.49035 9.95159C3.38512 9.94999 3.26542 9.94758 3.14733 9.97328C2.83082 10.0416 2.64526 10.2858 2.67498 10.5951L2.67739 10.5975Z" fill="#FF6700"/>
<path d="M13.8243 14.3794C13.6483 14.336 13.4628 14.3296 13.3053 14.3296C10.0736 14.3272 6.84181 14.328 3.61005 14.328H3.54659C3.43412 14.3272 3.31925 14.3264 3.20036 14.3432C2.8734 14.3906 2.67418 14.614 2.6798 14.9256C2.68623 15.2486 2.8959 15.4623 3.22767 15.4832C3.36423 15.492 3.5016 15.492 3.6221 15.492C4.85921 15.492 6.09552 15.492 7.33263 15.492H9.52811C9.8888 15.492 10.2487 15.492 10.6094 15.492C11.5123 15.492 12.4144 15.492 13.3174 15.4912C13.4507 15.4912 13.617 15.4912 13.7777 15.4639C14.042 15.4197 14.2075 15.2245 14.2211 14.9425C14.2348 14.6589 14.0821 14.4429 13.8243 14.3794Z" fill="#FF6700"/>
<path d="M13.6769 18.4748C13.5628 18.4644 13.4512 18.4644 13.3411 18.4644H13.325C10.0772 18.4644 6.82938 18.4644 3.58156 18.4644C3.43455 18.4644 3.2779 18.4668 3.12447 18.4893C2.86178 18.5286 2.68907 18.7278 2.673 19.009C2.65694 19.2902 2.81358 19.5127 3.07225 19.5753C3.25541 19.6195 3.44499 19.626 3.58959 19.626C4.49895 19.6276 5.40831 19.6284 6.31767 19.6284C6.66711 19.6284 7.01575 19.6284 7.3652 19.6284H9.42893C10.6982 19.6284 11.9674 19.6284 13.2375 19.6284H13.3162C13.4383 19.6292 13.5652 19.6308 13.6954 19.6115C14.0255 19.5633 14.2199 19.3472 14.2151 19.0339C14.2103 18.7134 14.0095 18.5045 13.6777 18.474L13.6769 18.4748Z" fill="#FF6700"/>
<path d="M3.43353 6.58483C4.11233 6.58081 4.80399 6.58161 5.47155 6.58242H6.25077H7.06293C7.71603 6.58242 8.36832 6.58242 9.02142 6.58322C9.29616 6.58322 9.80145 6.58483 9.81028 6.01045C9.81269 5.83453 9.76369 5.69394 9.66408 5.59273C9.49217 5.41841 9.22707 5.41841 9.03508 5.41841C7.25251 5.42001 5.34141 5.42082 3.44799 5.4176H3.44076C3.21261 5.4176 2.98045 5.4409 2.82541 5.59915C2.72419 5.70278 2.67519 5.84577 2.68001 6.02331C2.69447 6.56233 3.20217 6.58402 3.40782 6.58402C3.41746 6.58402 3.4271 6.58402 3.43513 6.58402L3.43353 6.58483Z" fill="#FF6700"/>
<path d="M16.9496 17.2553C17.0629 17.3701 17.1778 17.4826 17.2926 17.5959C17.5127 17.8128 17.7401 18.0369 17.9497 18.2667C18.0204 18.3438 18.1321 18.4474 18.2871 18.4498H18.2936C18.4422 18.4498 18.5538 18.3574 18.6527 18.257C19.4624 17.436 20.2898 16.6046 21.0899 15.8005L21.776 15.1104C21.8965 14.9891 22.0258 14.8389 22.0378 14.5826L22.0394 14.5529L22.0322 14.524C22.0121 14.4469 21.9519 14.2123 21.698 14.0894C21.3333 13.9127 21.0779 14.1689 20.9686 14.2782C20.6296 14.618 20.2914 14.9578 19.9532 15.2976C19.6078 15.6446 19.2624 15.9925 18.9161 16.3387C18.843 16.4126 18.774 16.4945 18.7081 16.5741C18.5787 16.7299 18.4446 16.8914 18.3161 16.9267C18.2277 16.9516 18.1658 16.893 18.014 16.6929C17.9361 16.5909 17.8558 16.4849 17.7505 16.4046C17.6268 16.3106 17.2517 16.0238 16.8998 16.3909C16.6524 16.6496 16.6709 16.9717 16.9496 17.2545V17.2553Z" fill="#FF6700"/>
</g>
<defs>
<clipPath id="clip0_1452_3547">
<rect width="24" height="24" fill="white"/>
</clipPath>
</defs>
</svg>
