<svg width="80" height="80" viewBox="0 0 80 80" fill="none" xmlns="http://www.w3.org/2000/svg">
<mask id="mask0_989_2657" style="mask-type:alpha" maskUnits="userSpaceOnUse" x="18" y="18" width="44" height="44">
<rect x="18.668" y="18.667" width="42.6667" height="42.6667" fill="#D9D9D9"/>
</mask>
<g mask="url(#mask0_989_2657)">
<path d="M50.985 41.0416C50.8281 40.8861 50.7638 40.7776 50.8266 40.5792C51.2148 39.3449 50.7924 38.4073 49.4938 37.6267C48.7046 37.153 48.0296 36.5194 47.5288 36.0199C45.8277 34.3232 44.385 32.2497 42.9851 29.4955C42.2359 28.0228 41.0758 27.0896 39.5346 26.7214C37.6623 26.2747 35.9941 26.7913 34.4344 28.2997C29.8151 32.7663 27.7202 38.3559 28.0299 45.3855C28.1398 47.8871 29.7252 49.9077 32.0669 50.5356C32.7833 50.7283 32.9232 51.0493 32.966 51.6958C33.1187 53.9933 33.2885 56.4435 33.5154 58.9165C33.6495 60.3678 34.5928 61.3339 35.8714 61.3339C35.8871 61.3339 35.9028 61.3339 35.917 61.3339C37.2285 61.3097 38.1518 60.2979 38.2674 58.7567C38.3673 57.4339 38.4729 56.1124 38.5785 54.7896C38.6698 53.6408 38.7611 52.4921 38.8496 51.3433L38.8539 51.2905C38.8781 50.9637 38.8867 50.8282 39.2278 50.821C39.6259 50.811 39.9113 50.7026 40.1011 50.4885C40.3194 50.2416 40.3951 49.8649 40.3394 49.3027C40.0526 46.4329 40.0255 44.2453 40.2524 42.2061C40.3765 41.0958 40.5164 39.8443 40.9702 38.59C42.049 39.4633 43.4732 40.4979 45.1399 41.0673C45.5923 41.2214 46.0076 41.3841 46.1189 41.6624C46.1959 41.8564 46.1403 42.1304 45.9462 42.5C45.8163 42.7483 45.8349 43.0551 45.8534 43.352C45.8606 43.4547 45.8663 43.5517 45.8663 43.6445C45.8634 48.1097 45.8649 52.5734 45.8649 57.0386V59.6144C45.8649 59.7043 45.8649 59.7927 45.8663 59.8826C45.8663 59.9911 45.8691 60.0995 45.8677 60.208C45.8649 60.8644 46.2188 61.2626 46.8167 61.2754C47.1035 61.2797 47.3475 61.1969 47.5188 61.0314C47.7043 60.853 47.8042 60.5833 47.8085 60.2522C47.8128 59.9868 47.8142 59.7214 47.8142 59.456V55.2477C47.8142 51.4589 47.8142 47.6716 47.817 43.8842C47.817 43.8243 47.817 43.7658 47.817 43.7059C47.8142 43.4447 47.8113 43.1736 47.867 42.9296C47.9897 42.3859 48.3165 42.1076 48.8473 42.119C49.5095 42.1261 49.7392 42.5728 49.8163 42.9467C49.8648 43.1821 49.862 43.4276 49.8591 43.6887C49.8591 43.7958 49.8563 43.9028 49.8591 44.0084C49.8734 44.6605 50.2358 45.053 50.8295 45.0587C51.4231 45.0672 51.7799 44.6848 51.8098 44.017C51.8584 42.9253 51.8313 41.8764 50.9865 41.043L50.985 41.0416ZM37.7508 31.1937C36.809 31.4919 37.0815 32.4209 37.1842 32.7706C37.5695 34.082 38.1817 35.3135 39.0066 36.4309C39.2506 36.762 39.3448 36.9874 39.2206 37.3713C38.2274 40.428 37.9292 43.7415 38.2545 48.1154C38.2802 48.4522 38.2545 48.6334 38.1689 48.719C38.0904 48.7989 37.9263 48.8275 37.6566 48.8089C37.3826 48.7904 37.1058 48.7847 36.8318 48.7847C36.6192 48.7847 36.4065 48.7875 36.1968 48.7918C35.9856 48.7946 35.7758 48.7989 35.5646 48.7989C35.3591 48.7989 35.1522 48.7989 34.9453 48.7989C34.5628 48.8003 34.1689 48.8018 33.7808 48.7946C31.5504 48.7533 30.0891 47.3376 29.9649 45.0972C29.7823 41.8108 30.3916 38.5543 31.7744 35.4163C32.7648 33.1687 34.129 31.2379 35.83 29.6768C36.7947 28.792 37.8721 28.3981 38.8624 28.5708C39.8457 28.7421 40.7204 29.4656 41.3226 30.61C42.918 33.641 45.0329 37.0588 48.6176 39.4219C48.8959 39.6046 48.9658 39.7187 48.9087 39.8914C48.8316 40.1226 48.6832 40.1112 48.3622 40.0298L48.3193 40.0184C43.4104 38.7869 40.3865 36.2168 39.0765 32.1641C38.9338 31.7217 38.6684 30.9012 37.7465 31.1923L37.7508 31.1937ZM35.469 58.6368C35.4675 58.5612 35.4647 58.4856 35.459 58.4157C35.3962 57.665 35.3362 56.9144 35.2749 56.1624C35.155 54.674 35.0309 53.1357 34.891 51.6244C34.8596 51.2948 34.8639 51.0493 34.9795 50.9266C35.0651 50.8367 35.2307 50.7925 35.4832 50.7925C35.5161 50.7925 35.5503 50.7925 35.5846 50.7953L35.7258 50.801C36.261 50.8224 36.5849 50.8353 36.7019 50.9637C36.8361 51.1107 36.8161 51.5131 36.7804 52.2438C36.739 52.8003 36.6976 53.3583 36.6563 53.9148C36.5464 55.3989 36.4336 56.9344 36.3066 58.4428C36.3024 58.4941 36.2995 58.5498 36.2966 58.6069C36.2738 59.0664 36.2224 59.2804 35.86 59.2704C35.5161 59.2605 35.4775 59.0792 35.4661 58.6368H35.469Z" fill="#FF6700"/>
<path d="M45.7042 29.0301H45.7199C48.5711 29.0301 50.9 26.7226 50.9157 23.8785C50.9228 22.5185 50.3848 21.2199 49.3988 20.2253C48.4098 19.2264 47.1112 18.6727 45.7413 18.667C45.7341 18.667 45.727 18.667 45.7199 18.667C44.3628 18.667 43.0756 19.2036 42.0924 20.1796C41.0992 21.1657 40.5512 22.4657 40.5469 23.8428C40.5383 26.6954 42.853 29.0229 45.7042 29.0315V29.0301ZM42.5419 23.8942C42.5333 23.0337 42.8573 22.226 43.4523 21.6209C44.0445 21.0187 44.8394 20.6834 45.6899 20.6777C45.6985 20.6777 45.707 20.6777 45.7142 20.6777C47.4908 20.6777 48.8879 22.0562 48.9007 23.8257C48.9135 25.6138 47.5322 27.0336 45.757 27.0551C45.7427 27.0551 45.7299 27.0551 45.7156 27.0551C44.8836 27.0551 44.0988 26.7354 43.5023 26.1532C42.8915 25.5552 42.5504 24.7533 42.5419 23.8942Z" fill="#FF6700"/>
</g>
</svg>
