<svg width="24" height="24" viewBox="0 0 24 24" fill="none" xmlns="http://www.w3.org/2000/svg">
<mask id="mask0_1452_9632" style="mask-type:alpha" maskUnits="userSpaceOnUse" x="0" y="0" width="24" height="24">
<rect width="24" height="24" fill="#D9D9D9"/>
</mask>
<g mask="url(#mask0_1452_9632)">
</g>
<g clip-path="url(#clip0_1452_9632)">
<path d="M23.7801 7.82337C22.377 6.4227 20.9266 4.97226 19.3453 3.38859C19.1952 3.23768 19.0475 3.16464 18.895 3.16464C18.7465 3.16464 18.5996 3.23768 18.4567 3.38056C17.7961 4.04678 17.0978 4.74431 16.3208 5.51407C16.1739 5.65936 16.0993 5.80865 16.0985 5.95715C16.0985 6.09842 16.1635 6.23568 16.2927 6.36651C16.3642 6.43795 16.369 6.44678 16.3128 6.52464C15.8545 7.16116 15.3215 7.32009 14.5838 7.04237C13.7137 6.71407 12.8476 6.72691 12.0096 7.08089C11.8443 7.15073 11.7255 7.19487 11.585 7.1724C11.1435 7.10176 10.69 7.14511 10.1579 7.30966C9.77659 7.42685 9.43465 7.34337 9.11358 7.0536C8.93218 6.89066 8.7588 6.71086 8.59104 6.53668C8.55733 6.50136 8.52041 6.46765 8.48429 6.43474C8.28924 6.25494 8.20977 6.16584 8.36469 5.93628C8.52362 5.70029 8.29887 5.47875 8.16482 5.34631L7.57485 4.75554C7.10128 4.28116 6.61245 3.79073 6.12843 3.31153C5.70623 2.89334 5.51037 2.89574 5.08174 3.32437C4.52549 3.87982 3.96924 4.43608 3.41378 4.99233C2.38877 6.01815 1.32924 7.07849 0.281744 8.11635C0.0882997 8.30578 -0.000797302 8.47434 5.37378e-06 8.64611C0.000808049 8.81066 0.0866943 8.9728 0.26248 9.14297C0.838801 9.70002 1.41191 10.2796 1.96656 10.8406L2.26596 11.144C2.41847 11.2982 2.73552 11.6184 3.1481 11.2829C3.177 11.2588 3.18984 11.258 3.18984 11.258C3.18984 11.258 3.20188 11.2604 3.22516 11.2861C3.29098 11.3559 3.3592 11.4242 3.42663 11.4916C3.73004 11.795 4.01659 12.0808 4.10328 12.5319C4.31439 13.6315 4.83372 14.6196 5.64763 15.4681C5.76402 15.5901 5.79131 15.6278 5.70061 15.7875C5.43813 16.2515 5.39479 16.7363 5.5786 17.1529C5.76803 17.5823 6.17258 17.8881 6.7184 18.0133C6.88054 18.0503 6.91184 18.0775 6.9279 18.1931C7.02342 18.8674 7.43679 19.3024 8.12308 19.4509C8.26676 19.4822 8.30368 19.5216 8.34141 19.6845C8.46502 20.2095 8.79733 20.6108 9.25164 20.7858C9.41218 20.8476 9.58074 20.8781 9.75091 20.8781C10.0583 20.8781 10.3714 20.7778 10.6547 20.5827C10.8 20.4824 10.9044 20.4366 11.0729 20.4599C11.6027 20.5337 12.0578 20.3331 12.3548 19.8948C12.4567 19.7447 12.4664 19.7423 12.61 19.8386C13.1229 20.1846 13.6936 20.183 14.099 19.8362C14.1375 19.8033 14.1753 19.7696 14.213 19.7375C14.6055 19.3931 14.827 19.2254 15.1754 19.4686L15.2067 19.4903H15.2452C16.0519 19.4774 16.6724 18.9123 16.6892 18.1755C16.6949 17.9387 16.7414 17.8616 16.9405 17.7637C17.5762 17.4515 17.8603 16.7283 17.6003 16.0805C17.5072 15.8477 17.5513 15.7466 17.7231 15.578C18.5635 14.7529 19.0515 13.9349 19.2161 13.0785C19.3975 12.1329 19.9826 11.5189 20.5662 10.9699L20.5918 10.945C20.7259 10.8182 20.7427 10.8021 20.8503 10.9081C21.0791 11.1344 21.364 11.1111 21.6313 10.8438C22.3545 10.1214 23.0769 9.39822 23.7985 8.67421C23.988 8.48397 24.1381 8.18216 23.7769 7.82096L23.7801 7.82337ZM7.41833 16.5741C7.4087 16.8647 7.26101 17.0116 6.95198 17.0349C6.65098 17.0132 6.49365 16.8567 6.47118 16.5573C6.46235 16.4377 6.51372 16.3141 6.61164 16.2186C6.70074 16.1319 6.81713 16.0829 6.9287 16.0829C6.94154 16.0829 6.95439 16.0829 6.96723 16.0853C7.28027 16.1182 7.42716 16.2788 7.41833 16.5741ZM12.2641 13.0953C12.0281 12.9428 11.7833 12.9741 11.6091 13.1804C11.4494 13.3699 11.447 13.5946 11.6035 13.7969C11.6741 13.8884 11.7544 13.9687 11.833 14.0465L11.8668 14.0794C12.5201 14.7336 13.1735 15.387 13.8277 16.0412L15.3472 17.5614C15.3696 17.5839 15.3929 17.6064 15.4162 17.6289C15.4812 17.6915 15.543 17.7509 15.592 17.8167C15.7493 18.0254 15.7445 18.2068 15.5767 18.3689C15.417 18.5238 15.2444 18.5279 15.0638 18.3802C14.9258 18.2678 14.7957 18.1361 14.6697 18.0085C14.6368 17.9748 14.6031 17.9411 14.5694 17.9074C13.8229 17.1617 13.0772 16.416 12.3315 15.6695L11.4622 14.801C11.4253 14.7641 11.3876 14.7272 11.3506 14.6903C11.2054 14.5442 11.0593 14.4703 10.9148 14.4703C10.9148 14.4703 10.9148 14.4703 10.914 14.4703C10.7912 14.4703 10.6764 14.5233 10.5736 14.6276C10.4444 14.7585 10.2823 15.0338 10.6515 15.403L11.333 16.0845C12.0145 16.766 12.6959 17.4474 13.3766 18.1297C13.3975 18.1506 13.4183 18.1715 13.44 18.1923C13.5179 18.2686 13.5917 18.3408 13.6511 18.4211C13.794 18.6113 13.7908 18.7871 13.6423 18.9428C13.4785 19.1154 13.2947 19.121 13.0981 18.9589C12.9897 18.8698 12.8918 18.7695 12.7882 18.6627C12.7505 18.6234 12.7128 18.5848 12.6743 18.5463C11.7431 17.616 10.8128 16.6857 9.88255 15.7554C9.73646 15.6093 9.57753 15.4672 9.38168 15.4672H9.38007C9.26128 15.4672 9.1473 15.5226 9.04215 15.6294C8.69138 15.9858 9.01887 16.3133 9.177 16.4706C9.39292 16.6865 9.60883 16.9024 9.82556 17.1176C10.3457 17.6361 10.8835 18.1723 11.4084 18.7044C11.5577 18.8561 11.6316 19.0351 11.6067 19.1844C11.5898 19.2848 11.5296 19.3642 11.4317 19.4124C11.3547 19.4509 11.3049 19.4686 11.2928 19.4678C11.2928 19.4678 11.272 19.4461 11.264 19.3498C11.1989 18.5567 10.7639 18.0679 10.0078 17.9371C9.897 17.9178 9.88415 17.8833 9.84964 17.7404L9.84241 17.7099C9.67867 17.0453 9.25485 16.6408 8.61673 16.5396C8.47786 16.5171 8.43693 16.4738 8.40161 16.3076C8.23225 15.521 7.70409 15.0876 6.91345 15.0868C6.73606 15.0868 6.61807 15.0338 6.4784 14.8901C5.75439 14.1493 5.31532 13.3731 5.13633 12.5174C4.9798 11.7693 4.64669 11.1954 4.11773 10.7612C4.00696 10.6697 3.95399 10.603 3.95158 10.5509C3.94917 10.4971 3.99894 10.4208 4.09847 10.3237C5.05847 9.3934 6.06261 8.39166 7.35412 7.07367C7.44001 6.98618 7.50582 6.94203 7.54917 6.94203C7.54997 6.94203 7.55077 6.94203 7.55158 6.94203C7.59332 6.94364 7.6495 6.98778 7.72014 7.07206C7.86783 7.24946 8.0372 7.40999 8.20014 7.56491C8.24991 7.61227 8.29967 7.65962 8.34944 7.70778C8.94502 8.28651 9.64174 8.47675 10.4203 8.27367C10.4661 8.26163 10.5191 8.25842 10.5753 8.25601C10.5841 8.25601 10.5929 8.25521 10.6017 8.25441L10.6033 8.25681C10.5231 8.32584 10.4428 8.39407 10.3625 8.4623C10.1153 8.6718 9.86007 8.88932 9.62087 9.11728C9.23077 9.48892 8.78047 9.92317 8.37592 10.3815C7.79158 11.0429 7.81004 11.978 8.41927 12.6049C9.03332 13.2366 10.0054 13.2719 10.6796 12.6868C11.0135 12.3978 11.3242 12.0751 11.6244 11.7629L11.7134 11.6706C11.7448 11.6385 11.817 11.5638 11.8539 11.563C11.866 11.563 11.9021 11.5711 11.9775 11.6473C13.078 12.7606 14.2033 13.8852 15.2918 14.9728C15.6963 15.3765 16.1001 15.7811 16.5038 16.1848C16.8016 16.4834 16.7021 16.6672 16.5817 16.7941C16.4918 16.8888 16.4043 16.9353 16.3128 16.9361C16.2028 16.9361 16.0768 16.8711 15.9435 16.7387C15.372 16.168 14.8013 15.5973 14.2298 15.0266C13.684 14.4808 13.1382 13.9357 12.5924 13.3907L12.541 13.3386C12.4567 13.2527 12.3692 13.1644 12.2633 13.0953H12.2641ZM9.82315 18.9244C9.82315 18.9244 9.82716 18.9244 9.82957 18.9244C10.1009 18.9364 10.2518 19.1018 10.2566 19.3907C10.2606 19.6773 10.0953 19.8491 9.79104 19.8755C9.67626 19.886 9.56308 19.845 9.47399 19.7608C9.37044 19.6636 9.31265 19.524 9.31586 19.3787C9.32228 19.0978 9.51653 18.9244 9.82315 18.9244ZM8.42168 17.5285H8.42409C8.6986 17.539 8.85271 17.7035 8.85833 17.9917C8.86395 18.2782 8.6994 18.45 8.39599 18.4773C8.2796 18.4877 8.16562 18.4476 8.07653 18.3641C7.97378 18.2686 7.91679 18.1297 7.9192 17.9836C7.92482 17.7019 8.11666 17.5277 8.42168 17.5277V17.5285ZM15.1698 13.4349C15.0173 13.284 14.864 13.1323 14.7098 12.979C14.7323 12.9741 14.7548 12.9685 14.7765 12.9637C14.9627 12.9212 15.1224 12.8842 15.2838 12.8353C15.5783 12.7462 15.7116 12.5118 15.6321 12.2236C15.5543 11.9411 15.3231 11.8175 15.0157 11.8929C13.9818 12.1442 13.2979 11.5093 12.6365 10.896C12.586 10.8495 12.5852 10.827 12.5852 10.8246C12.5852 10.8182 12.5908 10.7925 12.6598 10.7274C12.8147 10.5822 12.9809 10.4096 12.9833 10.2001C12.9849 10.0765 12.9287 9.95849 12.8171 9.84932C12.7048 9.73936 12.5876 9.68156 12.4672 9.68638C12.2665 9.68959 12.1172 9.84451 11.9848 9.98176C11.9623 10.0058 11.939 10.0291 11.9165 10.0508C11.6107 10.3526 11.3065 10.6576 11.0031 10.9618C10.727 11.2388 10.4508 11.5149 10.1731 11.7902C9.96121 11.9997 9.54783 12.2959 9.15613 11.925C9.02529 11.8006 8.95706 11.661 8.95465 11.5085C8.95144 11.3094 9.06061 11.0919 9.27091 10.88L9.69231 10.4553C10.3152 9.82685 10.9589 9.17668 11.6035 8.54979C12.3789 7.79528 13.2706 7.60745 14.2547 7.99113C15.2781 8.39006 16.1418 8.1934 16.8241 7.40678C16.9292 7.28558 17.0111 7.22618 17.0737 7.22457C17.0745 7.22457 17.0753 7.22457 17.0761 7.22457C17.1411 7.22457 17.2254 7.28397 17.3571 7.42123C18.1678 8.26966 18.9985 9.09962 19.8253 9.88785C19.9272 9.98497 19.9778 10.0604 19.9762 10.1118C19.9746 10.1616 19.9224 10.2298 19.8157 10.3189C19.6728 10.4385 19.5435 10.5733 19.4183 10.7042C19.3212 10.8053 19.2201 10.9105 19.1165 11.0052C18.7473 11.3399 18.5145 11.783 18.3837 12.3994C18.1814 13.349 17.703 14.2014 16.9613 14.9319C16.9445 14.9487 16.9276 14.9664 16.9116 14.9848C16.8891 15.0097 16.8417 15.0611 16.8257 15.0619C16.8257 15.0619 16.804 15.0611 16.7575 15.0137C16.2349 14.4888 15.718 13.9767 15.1706 13.4341L15.1698 13.4349ZM7.19118 5.81909C7.14623 5.86966 7.1077 5.913 7.06756 5.95313C6.68228 6.33922 6.29619 6.72451 5.91011 7.10979C4.93245 8.08665 3.92188 9.09641 2.93138 10.0933C2.89766 10.127 2.8198 10.2049 2.77967 10.2049C2.76763 10.2049 2.73071 10.1961 2.66007 10.1206C2.18489 9.61574 1.69526 9.13735 1.27867 8.73601C1.21044 8.67019 1.20643 8.6437 1.20643 8.63969C1.20643 8.63487 1.20964 8.60919 1.27947 8.54016C2.62475 7.20451 4.01017 5.81829 5.51679 4.30364C5.58342 4.23621 5.61071 4.23059 5.61793 4.23059C5.62275 4.23059 5.65004 4.23461 5.71506 4.30203C6.02489 4.6239 6.34596 4.94337 6.65659 5.2532C6.81231 5.40892 6.96883 5.56384 7.12375 5.72036C7.14944 5.74604 7.17352 5.77655 7.20001 5.81106C7.1976 5.81347 7.19519 5.81668 7.19278 5.81909H7.19118ZM22.7856 8.26243C22.7478 8.30658 22.7109 8.34912 22.6732 8.38685C22.5327 8.52812 22.3906 8.66859 22.2486 8.80906C21.9444 9.11086 21.6289 9.4223 21.3295 9.74016C21.2565 9.81722 21.2187 9.82926 21.2035 9.82926C21.1746 9.82926 21.1256 9.79474 21.0582 9.72651C19.7643 8.42056 18.5819 7.23822 17.4438 6.11367C17.4157 6.08558 17.329 6.00049 17.3298 5.95153C17.3298 5.92905 17.3474 5.88651 17.4301 5.80946C17.9085 5.36237 18.366 4.8928 18.7497 4.49307C18.7738 4.46738 18.8484 4.39033 18.8902 4.39033C18.9062 4.39033 18.9448 4.40237 19.021 4.47942C19.904 5.37441 20.8086 6.27742 21.6827 7.15073C22.0206 7.48785 22.3577 7.82497 22.6957 8.1629C22.7254 8.1926 22.7543 8.22631 22.7864 8.26324L22.7856 8.26243Z" fill="#FF6700"/>
<path d="M2.52994 8.45171C2.25061 8.479 2.09088 8.66603 2.10212 8.95258C2.11255 9.23191 2.29958 9.41252 2.5773 9.41332H2.57891C2.85984 9.41332 3.04687 9.23031 3.07897 8.92369L3.08138 8.90442L3.07737 8.88516C3.00914 8.57773 2.8157 8.42442 2.53075 8.45171H2.52994Z" fill="#FF6700"/>
<path d="M21.6078 8.07451C21.33 8.05765 21.1261 8.22862 21.0973 8.50073C21.0668 8.78487 21.2369 8.98715 21.5524 9.04093L21.5676 9.04334L21.5837 9.04173C21.9505 9.00722 22.0452 8.78568 22.0605 8.60508C22.0733 8.45176 22.0372 8.32173 21.9569 8.22862C21.8775 8.13712 21.7571 8.08334 21.6086 8.07451H21.6078Z" fill="#FF6700"/>
</g>
<defs>
<clipPath id="clip0_1452_9632">
<rect width="24" height="17.878" fill="white" transform="translate(0 3)"/>
</clipPath>
</defs>
</svg>
