<svg width="24" height="24" viewBox="0 0 24 24" fill="none" xmlns="http://www.w3.org/2000/svg">
<mask id="mask0_1353_3046" style="mask-type:alpha" maskUnits="userSpaceOnUse" x="0" y="0" width="24" height="24">
<rect width="24" height="24" fill="#D9D9D9"/>
</mask>
<g mask="url(#mask0_1353_3046)">
<path d="M23.6056 6.96176C23.4512 6.74853 23.2917 6.52859 22.9643 6.55545C22.6302 6.58316 22.5278 6.83416 22.4262 7.08432L22.3582 7.25137C22.1458 7.77352 21.9334 8.29483 21.7193 8.81614C21.7101 8.83797 21.7026 8.8598 21.6942 8.88078C21.6354 9.03524 21.5934 9.14689 21.376 9.12843C20.6566 9.06798 20.0782 8.82958 19.6064 8.40061C19.4545 8.26209 19.4721 8.16556 19.546 7.99178C19.7684 7.46376 19.9758 6.94329 20.2041 6.36573C20.2234 6.31788 20.2452 6.26919 20.2679 6.2205C20.3754 5.98545 20.4971 5.71934 20.2603 5.45239C19.9976 5.15606 19.6668 5.24336 19.3747 5.32059C19.3453 5.32815 19.3168 5.3357 19.2874 5.34326C18.0081 5.66562 16.9915 6.54202 16.4995 7.75002C16.0042 8.96557 16.1192 10.3146 16.8168 11.4512L16.8546 11.5117C16.9839 11.7182 17.0863 11.8819 16.9663 12.153C16.544 13.1042 16.1646 14.0695 15.8808 14.8049C15.828 14.9418 15.7767 15.0139 15.7129 15.04C15.6491 15.066 15.561 15.05 15.4267 14.9896C14.7904 14.7008 14.1373 14.4213 13.506 14.1518C13.2701 14.0511 13.0342 13.9503 12.7991 13.8488C12.4508 13.6985 12.1813 13.4601 11.963 13.246C11.8615 13.147 11.8178 13.0723 11.8212 13.0051C11.8245 12.9354 11.8791 12.8615 11.9975 12.7667C13.0535 11.9197 13.788 10.7914 14.2439 9.31647C14.8307 7.41843 14.8558 5.39027 14.3203 3.2874C13.8854 1.5816 12.763 0.530581 10.9842 0.164572C10.0432 -0.0285055 9.07862 -0.0520107 8.11743 0.0957359C5.89115 0.4374 4.72765 1.51696 4.22732 3.70461C3.94442 4.93947 3.8865 6.27591 4.05439 7.67782C4.28525 9.60273 5.03238 11.2036 6.27479 12.4343C6.59127 12.7474 6.76924 12.964 6.74657 13.1436C6.72307 13.3275 6.4855 13.4987 6.08255 13.7329C5.93816 13.8169 5.78538 13.8857 5.66785 13.9361C5.28925 14.0989 4.91065 14.2635 4.53205 14.4288C3.62207 14.8251 2.68102 15.2356 1.74417 15.6116C0.0904191 16.2748 -0.723027 17.5105 -0.743174 19.3884C-0.753248 20.3866 -0.74989 21.4023 -0.747371 22.3836L-0.745692 23.0771C-0.744013 23.8703 -0.614735 23.9996 0.172687 23.9996C2.39896 24.0005 4.62607 23.9996 6.85234 23.9996H9.30611H11.7935C12.6245 23.9996 13.4548 23.9996 14.2858 23.9996C15.6903 23.9996 17.0939 23.9996 18.4983 23.9988C19.2715 23.9988 19.3789 23.8905 19.3806 23.1106C19.3831 22.2527 19.3823 21.3939 19.3814 20.536C19.3814 20.1255 19.3814 19.715 19.3814 19.3045C19.3814 18.847 19.3562 18.3609 19.1716 17.9084C19.07 17.66 19.0775 17.4425 19.1976 17.1596L19.2723 16.9833C19.6887 15.9995 20.1185 14.9812 20.4946 13.9629C20.6541 13.5306 20.8824 13.3258 21.3366 13.2082C22.6176 12.8758 23.6535 11.9222 24.1085 10.6571C24.5601 9.40041 24.3729 8.01865 23.6065 6.96008L23.6056 6.96176ZM18.3145 22.5583C18.3195 22.7001 18.296 22.7908 18.2431 22.8454C18.1894 22.8999 18.0962 22.9243 17.9526 22.9201C17.3936 22.9083 16.7346 22.8991 16.0798 22.9226C15.9329 22.9276 15.8389 22.905 15.7835 22.8496C15.7247 22.7908 15.702 22.6917 15.7071 22.5171C15.7171 22.1889 15.7146 21.8556 15.7129 21.5324C15.7113 21.242 15.7087 20.9406 15.7163 20.6459C15.7356 19.8526 15.4166 19.2692 14.7702 18.9116C14.5704 18.8008 14.5117 18.6917 14.5469 18.4944C14.6535 17.895 14.8433 17.1252 15.3654 16.4813C15.4603 16.3638 15.5417 16.2975 15.6659 16.2975C15.7205 16.2975 15.7843 16.3109 15.8599 16.3386C17.8057 17.0463 18.3103 17.7599 18.3103 19.809V20.8029C18.3103 20.9725 18.3086 21.1421 18.3077 21.3108C18.3052 21.7196 18.3019 22.1427 18.3153 22.5583H18.3145ZM14.2976 15.7157C14.3572 15.8459 14.3102 16.0364 14.1499 16.316C13.7838 16.954 13.5765 17.5508 13.5169 18.1426C13.4741 18.5708 13.3104 18.7034 12.8478 18.6908C12.3467 18.6766 11.8405 18.6724 11.3385 18.6724C11.0027 18.6724 10.6694 18.674 10.3395 18.6757C10.0054 18.6774 9.67044 18.6791 9.33634 18.6791H8.41712C7.51049 18.6774 6.57196 18.6766 5.65022 18.6816C5.37824 18.6833 5.21118 18.6606 5.17257 18.3349C5.06847 17.456 4.77046 16.6669 4.28525 15.9903C4.21389 15.8904 4.18871 15.8333 4.19962 15.7921C4.2097 15.7527 4.25838 15.7132 4.35157 15.6687C4.76626 15.4715 5.0945 15.4068 5.55033 15.6587C8.04355 17.0371 10.609 17.032 13.1752 15.6435C13.2214 15.6184 13.2651 15.5898 13.307 15.5613C13.4346 15.4765 13.5547 15.3967 13.7276 15.4303C14.055 15.4924 14.2363 15.5831 14.2968 15.7149L14.2976 15.7157ZM4.01158 22.4113C4.03341 22.0613 4.02921 21.7045 4.02501 21.3595C4.02165 21.1102 4.0183 20.8516 4.02501 20.5989C4.04096 20.0247 4.28693 19.7796 4.84853 19.7788C7.7808 19.7721 10.7895 19.7721 13.7906 19.7788C14.3732 19.7796 14.5956 19.9996 14.6107 20.5897C14.6174 20.8474 14.6149 21.111 14.6124 21.3654C14.609 21.7054 14.6048 22.0571 14.6242 22.4021C14.6359 22.6145 14.6082 22.7438 14.5343 22.8202C14.4596 22.8974 14.3295 22.931 14.1138 22.9276C13.3935 22.9167 12.6648 22.9134 11.9429 22.9134C11.5038 22.9134 11.0665 22.9142 10.635 22.9159C10.1968 22.9167 9.75859 22.9184 9.31955 22.9184C8.87715 22.9184 8.4423 22.9176 8.0041 22.9167C6.8641 22.9142 5.68548 22.9117 4.52618 22.9276C4.3012 22.9301 4.16856 22.8974 4.09469 22.8202C4.02333 22.7455 3.99647 22.6162 4.00906 22.413L4.01158 22.4113ZM2.96392 22.518C2.96812 22.6842 2.94378 22.7849 2.88417 22.8445C2.82709 22.9016 2.73055 22.9268 2.58112 22.9217C2.27976 22.9125 1.97419 22.9083 1.65939 22.9083C1.34459 22.9083 1.0365 22.9125 0.707429 22.9209C0.567238 22.9243 0.479093 22.9016 0.427046 22.8487C0.37332 22.795 0.350655 22.701 0.354852 22.5524C0.367444 22.1243 0.364926 21.6886 0.362407 21.268C0.361568 21.0917 0.359889 20.9154 0.359889 20.7383V20.2724C0.359889 19.94 0.359049 19.6084 0.359889 19.2759C0.364926 17.979 0.937444 17.1143 2.11018 16.6333C2.6827 16.3982 2.97484 16.3084 3.19142 16.3966C3.4122 16.4864 3.56079 16.7701 3.79164 17.3334C3.85544 17.4904 3.90833 17.6558 3.95869 17.8161L3.97968 17.8824C4.14841 18.4138 4.22061 18.8142 3.61199 19.124C3.18722 19.3397 2.95469 19.8182 2.95889 20.4697C2.96056 20.7232 2.95889 20.9767 2.95721 21.2302C2.95469 21.6525 2.95217 22.0882 2.96392 22.5171V22.518ZM16.9755 15.641C16.8806 15.61 16.8219 15.5688 16.8009 15.521C16.7707 15.453 16.8118 15.3632 16.8546 15.2691C16.8664 15.244 16.8773 15.2179 16.8882 15.1928C16.9923 14.9359 17.0956 14.679 17.198 14.4213C17.4809 13.7153 17.773 12.9849 18.0861 12.2781C18.2792 11.8408 18.2364 11.5184 17.9325 11.1264C17.3642 10.3935 17.1602 9.47177 17.3726 8.59704C17.5732 7.77352 18.1256 7.08684 18.8954 6.69732C18.8433 6.82576 18.7938 6.95168 18.7451 7.07341C18.6116 7.41003 18.4849 7.72819 18.343 8.03712C18.1399 8.47868 18.2985 8.74647 18.6217 9.03524C19.4822 9.80588 20.4736 10.2122 21.6505 10.276C22.1173 10.3012 22.3674 10.1559 22.5084 9.77482C22.6285 9.45162 22.7628 9.13598 22.9055 8.80187C22.9559 8.68267 23.0079 8.56178 23.06 8.43838C23.3429 9.16872 23.2766 10.0292 22.877 10.7595C22.4598 11.5218 21.7563 12.0347 20.9479 12.1648C20.1076 12.3008 19.8028 12.7113 19.5602 13.3753C19.295 14.1014 18.9995 14.8024 18.6863 15.5437C18.5613 15.84 18.4362 16.138 18.3111 16.4402C17.8528 16.0843 17.4582 15.8005 16.9763 15.641H16.9755ZM7.75897 13.6599C7.8404 13.5449 7.9319 13.5155 8.06454 13.5625C8.89477 13.8563 9.7334 13.8605 10.5561 13.5759C10.687 13.5306 10.792 13.5239 10.8751 13.6381C11.2235 14.1132 11.6927 14.5027 12.3475 14.8595C10.3202 15.8123 8.34828 15.814 6.32516 14.8637C6.93545 14.5002 7.41395 14.151 7.75897 13.6607V13.6599ZM10.5905 1.19376C12.3744 1.52032 13.2734 2.60071 13.506 4.70023C13.5723 5.30045 13.6092 5.6312 13.4909 5.72858C13.3717 5.82679 13.0468 5.72354 12.4566 5.53634L12.4449 5.53298C11.6482 5.2803 10.8533 4.92101 10.0129 4.43411C9.44631 4.10588 8.88134 3.94218 8.31974 3.94218C7.67502 3.94218 7.03535 4.15877 6.40659 4.59109C6.31341 4.65489 6.21939 4.73129 6.11949 4.81104C5.79126 5.07463 5.45211 5.34746 5.17257 5.1846C4.98453 5.07547 5.11716 4.57095 5.22377 4.16632C5.25316 4.05635 5.28002 3.95226 5.30101 3.8574C5.66617 2.2154 6.70544 1.30373 8.38857 1.14843C8.59592 1.12912 8.80915 1.11653 9.03329 1.10226C9.1441 1.09554 9.25994 1.08799 9.38334 1.07959C9.49248 1.08967 9.60832 1.09638 9.72753 1.10394C10.0087 1.12157 10.2992 1.14004 10.5888 1.19292L10.5905 1.19376ZM5.34718 6.4119C6.03974 6.15754 6.64248 5.76635 7.14112 5.41713C7.53064 5.1443 7.92603 5.00747 8.32393 5.00747C8.6656 5.00747 9.00978 5.10821 9.35312 5.31052C10.677 6.08955 11.9538 6.60078 13.2558 6.87277C13.5018 6.92398 13.5689 7.01548 13.5429 7.26397C13.3305 9.28709 12.6027 10.809 11.3192 11.918C10.7382 12.42 10.0583 12.7197 9.54788 12.6979C8.44566 12.6685 7.66411 12.3268 6.93545 11.5537C5.81224 10.3624 5.19943 8.82118 5.06008 6.84171C5.04413 6.60834 5.11884 6.49585 5.34802 6.41106L5.34718 6.4119Z" fill="#FF6700"/>
</g>
</svg>
