<svg width="40" height="40" viewBox="0 0 40 40" fill="none" xmlns="http://www.w3.org/2000/svg">
<path d="M39.9671 22.5574V22.4538C39.9273 20.9648 39.2106 19.8421 37.8968 19.1891C37.419 18.9502 37.3314 18.6954 37.3155 18.2256C37.1244 11.083 32.6891 4.84819 26.0323 2.34788C25.8173 2.26825 25.5863 2.18863 25.2997 2.10104V2.06918L25.2121 2.03733C22.5525 1.20124 19.662 1.02606 16.8751 1.53568C16.7955 1.55161 16.7238 1.55957 16.6521 1.57549L16.3495 1.6392C16.2858 1.65512 16.2221 1.66308 16.1584 1.67901C14.749 1.98956 13.5307 2.41955 12.4478 2.99286C6.26868 6.22575 2.9721 11.4015 2.66155 18.369C2.64563 18.7432 2.59785 18.9423 2.23156 19.1095C0.80623 19.7784 0.0418045 20.9887 0.0179162 22.6051C-0.00597207 24.4047 -0.00597207 26.1804 0.0179162 27.8924C0.0497673 29.8353 1.5388 31.4358 3.48172 31.627C4.03115 31.6827 4.58058 31.6747 5.12205 31.6668H5.50426C5.78295 31.6668 6.02184 31.7145 6.24479 31.9694C7.00126 32.8134 7.94086 33.0284 8.9601 32.5904C9.93952 32.1684 10.4571 31.3483 10.4571 30.2175V27.3509C10.4571 25.0019 10.4571 22.5813 10.4571 20.1924C10.4571 18.6397 9.4936 17.6523 7.96475 17.6125C7.81346 17.6125 7.67013 17.5966 7.62235 17.5408C7.58254 17.501 7.57458 17.3975 7.59846 17.2144C7.88512 14.714 8.83269 12.5323 10.481 10.5256C13.6024 6.75129 18.8737 5.19059 23.5956 6.63981C28.3733 8.11292 31.9088 12.3571 32.3865 17.1984C32.4025 17.3975 32.4025 17.4931 32.3627 17.5329C32.3228 17.5727 32.2273 17.5966 32.0282 17.5966C30.6586 17.6284 29.6633 18.5043 29.5518 19.7784C29.4961 20.4552 29.5199 27.5182 29.5279 28.6489C29.5279 28.9594 29.5279 29.27 29.5279 29.5805V29.8911C29.5279 30.9262 29.8066 31.6907 30.356 32.1764C30.8736 32.6382 31.6221 32.8214 32.5776 32.7178C32.6413 33.2673 32.5458 33.7052 32.283 33.9999C32.0202 34.3104 31.5982 34.4617 31.0249 34.4697C29.9897 34.4697 28.9466 34.4776 27.9115 34.4697C26.8285 34.4697 25.7376 34.4697 24.6547 34.4697H24.6388C24.2884 34.4697 24.1212 34.3741 23.9699 34.0715C23.4762 33.108 22.6083 32.5984 21.4776 32.5984H20.944C20.1239 32.5904 19.2798 32.5825 18.4437 32.5984C16.9229 32.6382 15.7205 33.8326 15.7125 35.3137C15.7046 36.8027 16.891 38.0131 18.4119 38.0609C18.8817 38.0768 19.3674 38.0847 19.9009 38.0847C20.4344 38.0847 20.9759 38.0847 21.605 38.0609C22.6481 38.037 23.4444 37.5592 23.9142 36.6833C24.1132 36.3091 24.3203 36.1816 24.7821 36.1896C26.9798 36.2135 29.1218 36.2215 31.1523 36.1896C32.8325 36.1657 34.1304 35.0509 34.3693 33.4106C34.4011 33.1797 34.3693 32.9249 34.3533 32.678C34.3135 32.2719 34.2657 31.8818 34.5126 31.7066C34.7594 31.5234 35.1735 31.5553 35.6115 31.5792C35.8344 31.5951 36.0574 31.611 36.2724 31.5951C38.3666 31.4597 39.9193 29.907 39.9671 27.9163C40.0149 26.1326 40.0069 24.3092 39.9671 22.5016V22.5574ZM31.2797 20.2402C31.2797 19.9297 31.3514 19.6987 31.4867 19.5554C31.5982 19.4439 31.7575 19.3882 31.9565 19.3882C32.1556 19.3882 32.3149 19.4439 32.4184 19.5554C32.5617 19.6987 32.6334 19.9297 32.6254 20.2482C32.6254 23.5607 32.6254 26.8732 32.6254 30.1937C32.6254 30.4883 32.5538 30.7192 32.4104 30.8546C32.2989 30.966 32.1397 31.0138 31.9247 31.0138C31.3593 30.9979 31.2717 30.5042 31.2717 30.2096C31.2717 29.7239 31.2717 29.2381 31.2717 28.7524C31.2797 28.0039 31.2797 20.7419 31.2717 20.2402H31.2797ZM7.35162 20.3835C7.35162 20.1208 7.37551 19.7385 7.57458 19.5474C7.67013 19.4519 7.8055 19.4041 7.98068 19.3962H8.04438C8.53011 19.3962 8.72121 19.6908 8.71325 20.4074C8.70529 21.562 8.71325 22.7246 8.71325 23.8792V25.2169V26.5547C8.71325 27.7093 8.71325 28.8718 8.71325 30.0264C8.71325 30.4405 8.64955 30.7112 8.49826 30.8625C8.39474 30.966 8.24345 31.0218 8.04438 31.0218H8.02845C7.47106 31.0218 7.35958 30.6077 7.35958 30.0025C7.36754 27.0643 7.36754 23.919 7.35958 20.3915L7.35162 20.3835ZM34.3852 21.0046C34.3852 20.7737 34.417 20.6304 34.4967 20.5587C34.5524 20.5109 34.64 20.487 34.7594 20.487C34.7993 20.487 34.8391 20.487 34.8868 20.487C35.0302 20.503 35.1815 20.503 35.3248 20.487C35.3885 20.487 35.4522 20.487 35.5159 20.487C37.5225 20.487 38.2312 21.1957 38.2312 23.1864V24.6356C38.2312 25.5673 38.2312 26.4989 38.2312 27.4385V27.5341C38.2232 29.0311 37.4429 29.8513 35.9618 29.915C35.4363 29.9309 35.0381 29.8194 34.7833 29.5726C34.5206 29.3257 34.3852 28.9196 34.3852 28.3781V25.2727C34.3852 24.8745 34.3852 24.4684 34.3852 24.0703C34.3852 23.067 34.3852 22.0239 34.3693 21.0046H34.3852ZM34.1224 16.8879C34.1065 16.7764 34.0906 16.6729 34.0746 16.5614C33.4376 11.6484 30.2525 7.52368 25.5545 5.52502C20.8644 3.52637 15.6886 4.09173 11.7152 7.02998C7.97271 9.79306 5.98202 13.5276 5.79092 18.1301C5.76703 18.7034 5.56 18.7114 5.18575 18.7193C5.10612 18.7193 5.01853 18.7193 4.93094 18.7352C4.71594 18.7512 4.58058 18.7352 4.50095 18.6556C4.4054 18.5601 4.38947 18.361 4.4054 18.0982C4.48502 16.4897 4.70002 15.2157 5.07427 14.077C7.00126 8.26421 11.0145 4.64116 16.9945 3.30341L17.1697 3.2636C19.041 2.9212 20.9839 2.9212 22.8551 3.2636C22.9029 3.27952 22.9507 3.28749 23.0064 3.30341C23.0781 3.31934 23.1577 3.33526 23.2294 3.35915C23.309 3.37508 23.3807 3.39897 23.4603 3.41489C26.311 4.05191 28.8033 5.40558 30.8816 7.45201C33.8039 10.3345 35.3885 13.9257 35.5876 18.1221C35.6035 18.3928 35.5716 18.5441 35.5 18.6238C35.4203 18.7034 35.277 18.7432 35.0381 18.7512C34.6639 18.7671 34.4489 18.7114 34.3294 18.5839C34.2259 18.4804 34.1861 18.2973 34.202 18.0266V17.9708C34.2419 17.6125 34.1861 17.2382 34.1304 16.8879H34.1224ZM5.60777 29.3894C5.60777 29.6363 5.57592 29.7796 5.49629 29.8513C5.42463 29.915 5.30519 29.9309 5.12205 29.907C5.02649 29.8911 4.93094 29.899 4.84335 29.907C4.79557 29.907 4.7478 29.907 4.70798 29.907C3.48968 29.907 2.78896 29.7239 2.36693 29.3098C1.9449 28.8878 1.76972 28.195 1.76972 26.9847V25.7504C1.76972 24.7631 1.76972 23.7757 1.76972 22.7883C1.77769 21.363 2.58192 20.5428 4.02318 20.4791C4.55669 20.4552 4.95483 20.5746 5.2176 20.8215C5.48037 21.0683 5.60777 21.4665 5.60777 22V25.2647C5.60777 25.6549 5.60777 26.0371 5.60777 26.4273C5.60777 27.3987 5.60777 28.402 5.6237 29.3894H5.60777ZM22.5366 35.3854C22.5286 35.9507 22.1066 36.325 21.4537 36.3568C21.1192 36.3728 20.7768 36.3648 20.4504 36.3568C20.3309 36.3568 20.2115 36.3568 20.092 36.3568H19.9965C19.8372 36.3568 19.678 36.3568 19.5187 36.3568C19.1684 36.3568 18.81 36.3648 18.4597 36.3489C18.1571 36.3329 17.8864 36.2055 17.7032 35.9985C17.544 35.8233 17.4723 35.5924 17.4882 35.3615C17.536 34.7404 17.8784 34.406 18.4915 34.398C18.9772 34.3821 19.4789 34.3821 19.9965 34.3821C20.5141 34.3821 20.9918 34.3821 21.5014 34.398C22.1225 34.4139 22.5605 34.82 22.5446 35.3933L22.5366 35.3854Z" fill="#FF6700"/>
<path d="M18.7605 28.211L18.7923 28.2508C19.2542 28.9277 19.6045 29.3099 19.9867 29.3178C20.3849 29.3178 20.7432 28.9117 21.2369 28.211C22.0093 27.1042 22.9091 26.6742 24.3025 26.7459C25.3934 26.7857 26.333 26.4751 27.0258 25.8142C27.7504 25.1294 28.1565 24.1102 28.1645 22.9397C28.1804 21.7134 28.1804 20.3597 28.1645 18.8229C28.1486 16.4739 26.6197 14.9371 24.2787 14.9132C23.2913 14.9052 22.28 14.9132 21.3085 14.9132C20.4326 14.9132 19.5488 14.9132 18.6729 14.9132C17.6855 14.9132 16.6663 14.9132 15.6629 14.9132C13.3458 14.9371 11.8249 16.45 11.801 18.7672C11.7851 19.9934 11.7851 21.3471 11.801 22.8839C11.809 24.0863 12.2151 25.1215 12.9476 25.8142C13.6404 26.4751 14.588 26.7857 15.6948 26.7459C17.1042 26.6742 17.9881 27.1042 18.7445 28.211H18.7605ZM13.5767 22.4699V21.2755C13.5767 20.4792 13.5767 19.6909 13.5767 18.8946C13.5767 17.4056 14.3252 16.6809 15.8302 16.673C16.7618 16.673 17.6934 16.673 18.6251 16.673H20.0265C20.4565 16.673 20.8786 16.673 21.3085 16.673C22.3039 16.673 23.2992 16.673 24.2946 16.673C25.6562 16.6809 26.4127 17.4374 26.4206 18.7911C26.4366 20.3597 26.4366 21.7293 26.4206 22.9795C26.4047 24.2456 25.6642 24.9941 24.3822 25.0179H24.2787C24.1831 25.0259 24.0955 25.0259 24.0079 25.0179C22.2243 24.7631 20.99 25.3046 20.2495 26.6901C20.1699 26.8414 20.0823 26.9211 20.0026 26.9211C19.923 26.9211 19.8354 26.8335 19.7558 26.6822C19.0232 25.2728 17.8686 24.9702 16.6663 24.9702C16.4751 24.9702 16.284 24.9702 16.0929 24.9861C15.1533 25.0418 14.5402 24.9065 14.158 24.5402C13.7519 24.158 13.5687 23.513 13.5687 22.4619L13.5767 22.4699Z" fill="#FF6700"/>
<path d="M16.6184 22.1033C17.1439 22.0236 17.4306 21.721 17.4386 21.2592C17.4386 20.9964 17.3589 20.7735 17.2076 20.6222C17.0563 20.4709 16.8334 20.3833 16.5706 20.3833H16.5627C16.069 20.3833 15.7345 20.7257 15.7266 21.2194C15.7266 21.729 16.0371 22.0555 16.6104 22.1033H16.6184Z" fill="#FF6700"/>
<path d="M19.889 22.0877H19.9845C19.9845 22.0877 20.0005 22.0877 20.0084 22.0877C20.5021 22.0877 20.8047 21.7851 20.8764 21.2437V21.2277V21.2118C20.8127 20.6863 20.5021 20.3837 20.0323 20.3757C19.7775 20.3757 19.5466 20.4474 19.3873 20.6067C19.2281 20.7659 19.1484 20.9809 19.1484 21.2437C19.1484 21.7055 19.4351 22.024 19.881 22.0718L19.889 22.0877Z" fill="#FF6700"/>
<path d="M23.2883 22.0718L23.3122 22.1196L23.3759 22.0877C23.3759 22.0877 23.4237 22.0877 23.4476 22.0877C23.8935 22.0877 24.1961 21.809 24.2917 21.2914V21.2755V21.2596C24.2439 20.7022 23.9254 20.3757 23.4158 20.3757C22.93 20.3757 22.5956 20.7022 22.5717 21.1959C22.5478 21.6657 22.8345 21.9922 23.2883 22.0638V22.0718Z" fill="#FF6700"/>
</svg>
