<svg width="80" height="80" viewBox="0 0 80 80" fill="none" xmlns="http://www.w3.org/2000/svg">
<mask id="mask0_989_2638" style="mask-type:alpha" maskUnits="userSpaceOnUse" x="18" y="18" width="44" height="44">
<rect x="18.668" y="18.667" width="42.6667" height="42.6667" fill="#D9D9D9"/>
</mask>
<g mask="url(#mask0_989_2638)">
<path d="M61.3334 46.2839V44.8583C61.3319 43.1587 60.6726 42.2939 59.0558 41.8701L58.3181 41.676C56.8211 41.2822 55.2728 40.8755 53.7388 40.5116C52.4858 40.2148 51.6025 39.5669 50.9561 38.4738C50.2468 37.2722 49.5005 36.0664 48.7799 34.9005C48.3931 34.2755 48.0064 33.6505 47.624 33.0226C47.0047 32.008 46.0999 31.4129 44.9355 31.2559C44.6672 31.2203 44.3932 31.2474 44.1292 31.2731C43.6983 31.3159 43.4043 31.333 43.2673 31.1774C43.1089 31.0005 43.146 30.6352 43.1874 30.2499C43.2131 29.9959 43.2416 29.7333 43.2188 29.475C43.126 28.4176 42.5252 27.8268 41.5278 27.8097C39.7226 27.7783 37.8717 27.7783 36.028 27.8097C35.042 27.8268 34.4369 28.4133 34.327 29.4636C34.2985 29.729 34.3299 30.0044 34.3598 30.2699C34.4112 30.7322 34.4326 31.0447 34.2699 31.176C34.0488 31.3544 33.6306 31.3116 33.1897 31.2645C32.93 31.2374 32.6603 31.2088 32.4005 31.2231C32.3577 31.226 32.3149 31.2245 32.2721 31.2231C30.5982 31.1418 29.3753 31.8296 28.529 33.3223C27.8897 34.4496 27.2076 35.5812 26.5498 36.6758C26.0189 37.5576 25.4695 38.4681 24.9444 39.3742C24.5962 39.975 24.188 40.2048 23.5373 40.1677C22.8238 40.1277 22.1017 40.1434 21.4039 40.1591L21.2983 40.162C19.7714 40.1962 18.6969 41.2793 18.684 42.7948C18.6626 45.3164 18.6626 47.8536 18.684 50.3366C18.6969 51.8264 19.7728 52.9138 21.3055 52.9794C21.8006 53.0009 22.3115 53.0223 22.821 52.9723C23.1749 52.9381 23.2605 52.9723 23.3775 53.4076C24.0068 55.7707 26.1402 57.4132 28.5747 57.4132C28.5847 57.4132 28.5947 57.4132 28.6032 57.4132C31.0763 57.4004 33.1569 55.7678 33.7819 53.3519C33.8704 53.0094 33.9332 52.9652 34.3399 52.9723C35.7127 52.9909 37.1069 52.988 38.4568 52.9852C38.9705 52.9852 39.4843 52.9823 39.9966 52.9823H40.0037C40.5246 52.9823 41.0454 52.9852 41.5649 52.9866C42.8777 52.9923 44.2362 52.998 45.5748 52.9666C46.05 52.9552 46.1399 53.0251 46.2626 53.496C46.8134 55.6209 48.7784 57.2263 51.0403 57.4004C51.183 57.4118 51.3243 57.4161 51.4641 57.4161C53.6903 57.4161 55.7252 56.0789 56.2974 54.1796C56.6599 52.9794 57.1893 52.8425 58.3109 52.978C58.348 52.9823 58.3866 52.9823 58.4237 52.9809H58.4394C60.2688 52.9595 61.322 51.9092 61.3305 50.0969C61.3362 48.824 61.3348 47.5297 61.3334 46.2782V46.2839ZM20.6119 45.7801C20.6162 45.676 20.6119 45.5732 20.6091 45.4805C20.6048 45.3692 20.5977 45.1836 20.6234 45.1423C20.6234 45.1423 20.6861 45.0994 20.9159 45.1151C21.8492 45.1822 21.9733 45.5261 21.969 45.8872C21.9662 46.1026 21.959 46.6092 20.9045 46.6335C20.6819 46.6392 20.6134 46.5978 20.6091 46.5978C20.5891 46.555 20.6091 46.3995 20.6191 46.3067C20.639 46.1412 20.6619 45.9557 20.6119 45.7787V45.7801ZM23.8598 49.4105C23.7157 49.5617 23.6515 49.7458 23.593 49.9071C23.563 49.9927 23.5345 50.074 23.5002 50.1311C23.3861 50.3209 23.3632 50.5364 23.3432 50.7276C23.3361 50.8032 23.3233 50.9231 23.3047 50.9773C23.1263 50.9888 22.9465 51.0059 22.7724 51.0216C22.0818 51.0872 21.4296 51.15 20.8403 50.8461C20.6919 50.769 20.6305 50.5992 20.6176 50.2167C20.6105 50.0269 20.6105 49.8828 20.6148 49.7487C20.6191 49.5946 20.6105 49.4376 20.6005 49.2863C20.5834 49.0009 20.5663 48.707 20.6605 48.5443C20.6776 48.53 20.7247 48.5257 20.7832 48.5257C20.8745 48.5257 20.9929 48.5386 21.0629 48.5457C21.2412 48.5643 21.4439 48.5842 21.6394 48.5528C22.9465 48.3331 23.934 47.1729 23.9355 45.8558C23.9355 44.5829 22.9594 43.4627 21.6608 43.2515C21.6023 43.2415 21.5409 43.2358 21.481 43.2301C21.4096 43.2229 21.3426 43.2158 21.2898 43.2029C21.1328 43.1601 20.973 43.173 20.8346 43.183C20.7732 43.1872 20.6761 43.1944 20.6276 43.1887C20.6205 43.1658 20.6091 43.1159 20.6105 43.0217C20.6162 42.2996 20.8759 42.1327 21.2655 42.1056C21.8092 42.067 22.3714 42.0699 22.9166 42.0742C23.1763 42.0756 23.4374 42.0784 23.7 42.0742C24.0696 42.0713 24.4506 42.067 24.5205 42.1127C24.5719 42.1883 24.5719 42.5708 24.5719 42.9404V45.1508C24.5719 45.2778 24.5705 45.4048 24.569 45.5304C24.5648 45.813 24.5619 46.1041 24.5762 46.3966C24.6418 47.6538 24.6276 48.6056 23.8584 49.4148L23.8598 49.4105ZM39.7269 30.9149C39.7311 30.7864 39.7354 30.6266 39.7326 30.4354C39.7283 30.1899 39.724 29.8874 39.7583 29.8061C39.8396 29.7633 40.1578 29.7433 40.4646 29.7247L40.6644 29.7119C41.0725 29.6862 41.1696 29.7476 41.1896 29.7675C41.2752 29.8503 41.2623 30.2713 41.2566 30.4311L41.2523 30.6024C41.2466 30.8664 41.2395 31.1403 41.171 31.2031C41.1496 31.2217 41.054 31.283 40.6915 31.2588C40.5602 31.2502 40.4432 31.2431 40.3362 31.2374C40.0793 31.2217 39.8353 31.2074 39.724 31.1846C39.7197 31.1189 39.724 31.0133 39.7269 30.9149ZM36.2563 30.8949C36.2606 30.7565 36.2663 30.5909 36.2663 30.394C36.2663 30.2485 36.2635 30.1243 36.2606 30.0159C36.2578 29.9174 36.2563 29.8104 36.2578 29.7347C36.3405 29.7304 36.4661 29.7304 36.5903 29.7319C36.7187 29.7319 36.87 29.7333 37.0483 29.7319C37.2267 29.7347 37.3766 29.7347 37.5036 29.7319C37.6149 29.7319 37.7362 29.7304 37.8147 29.7347C37.8204 29.8189 37.8189 29.9531 37.8175 30.0843C37.8175 30.2028 37.8147 30.3426 37.8175 30.5039C37.8204 30.7864 37.8232 31.1061 37.7847 31.1917C37.6919 31.236 37.3295 31.2331 36.9799 31.2317H36.7758C36.5703 31.2302 36.3605 31.2288 36.2521 31.216C36.2478 31.1375 36.2521 31.0091 36.2563 30.8935V30.8949ZM46.2198 50.6506C46.137 50.9902 46.0785 51.0387 45.7446 51.0344C42.1028 51.0144 38.2428 51.013 34.2742 51.0344C33.8918 51.0373 33.8404 50.9702 33.7933 50.6891C33.7348 50.3366 33.5921 50.0155 33.4537 49.7059L33.4109 49.6088C33.2767 49.3049 33.0741 49.0951 32.8244 48.9995C32.666 48.9396 32.4091 48.8982 32.088 49.0437C31.7684 49.1893 31.6328 49.4062 31.5743 49.5632C31.5115 49.7358 31.473 50.0227 31.6556 50.4094C31.9881 51.1158 32.098 51.8036 31.991 52.5142C31.844 53.4889 31.3203 54.328 30.514 54.8774C29.7106 55.4254 28.7417 55.6052 27.7856 55.3868C26.8537 55.1728 26.0717 54.5991 25.5865 53.7686C25.0956 52.9309 24.9772 51.9577 25.2512 51.0259C25.5266 50.0897 26.1616 49.3334 27.0378 48.8982C27.5301 48.6542 28.0553 48.5314 28.5833 48.5314C28.9985 48.5314 29.4152 48.6071 29.8191 48.7598C29.8947 48.7883 29.9832 48.8325 30.0774 48.8796C30.3785 49.0309 30.7538 49.2193 31.1248 49.0723C31.356 48.9809 31.5301 48.7783 31.6428 48.4701C31.7527 48.169 31.7527 47.8993 31.6414 47.6695C31.4516 47.2785 31.012 47.1344 30.6581 47.0188C30.5754 46.9917 30.4955 46.966 30.4227 46.9374C29.1812 46.448 27.9111 46.4565 26.6482 46.9631C26.594 46.9845 26.5512 47.0002 26.5184 47.0088C26.5155 46.9746 26.5141 46.9289 26.5141 46.869C26.5255 45.0381 26.5255 43.1116 26.5141 40.8041C26.5141 40.5458 26.614 40.3246 26.7667 40.0706C27.0692 39.5669 27.3717 39.0632 27.6742 38.5594C28.5376 37.1224 29.4309 35.6369 30.2914 34.1642C30.701 33.4621 31.2275 33.1624 32.0466 33.1624C32.0523 33.1624 32.0581 33.1624 32.0638 33.1624C36.2563 33.1824 40.3633 33.1824 44.2719 33.1624C44.2776 33.1624 44.2833 33.1624 44.289 33.1624C45.0939 33.1624 45.6247 33.4621 46.0628 34.1599C46.4966 34.8492 46.9205 35.5641 47.3314 36.2548C48.2262 37.7603 49.1523 39.3172 50.2397 40.747C50.371 40.9197 50.361 41.1238 50.3368 41.4406C50.3225 41.6218 50.3068 41.8087 50.331 42.0057C50.341 42.0827 50.3382 42.1726 50.3353 42.2668C50.3339 42.331 50.331 42.3952 50.3325 42.4595V45.3777C50.1227 46.2582 49.7017 46.8033 48.8983 47.2428C47.4899 48.012 46.5908 49.1593 46.2255 50.6506H46.2198ZM51.4299 55.4568C51.4299 55.4568 51.4184 55.4568 51.4127 55.4568C49.5119 55.4468 47.9636 53.8985 47.9622 52.0034C47.9622 51.0758 48.3218 50.2096 48.9768 49.5603C49.6432 48.901 50.5422 48.5414 51.4898 48.5543C53.382 48.5757 54.9089 50.1397 54.8918 52.0433C54.8761 53.9284 53.3235 55.4568 51.4284 55.4568H51.4299ZM59.4012 48.4629C59.3669 48.8654 59.3712 49.2692 59.3769 49.6588C59.3798 49.8657 59.3826 50.0812 59.3798 50.2881C59.3769 50.4722 59.3355 50.9046 59.0116 50.9445C58.4037 51.0216 57.7615 51.0144 57.1422 51.0073C57.0052 51.0059 56.8682 51.0045 56.7298 51.003C56.727 50.9802 56.7241 50.9545 56.7212 50.9345C56.7141 50.8632 56.7041 50.7818 56.6798 50.6991C56.0491 48.55 54.6663 47.2186 52.5672 46.7405C52.2704 46.6734 52.2647 46.6321 52.2832 46.3952C52.2903 46.301 52.2946 46.2054 52.2975 46.1126C52.3574 44.7627 52.3018 42.7021 52.2789 42.4538C52.2589 42.2511 52.2646 42.1498 52.2718 42.0999C52.3246 42.0999 52.4345 42.1141 52.6471 42.1783C53.8886 42.5551 55.1629 42.8819 56.4016 43.1987C55.4597 43.2614 55.0202 43.7538 55.0231 44.7398C55.0274 46.3909 56.4401 47.8265 58.2424 48.0077C58.4679 48.0305 58.7219 48.0562 58.9759 48.0206C59.2613 47.9806 59.337 48.0363 59.3484 48.0477C59.3612 48.0605 59.4254 48.139 59.3983 48.4587L59.4012 48.4629ZM59.3883 46.0341C59.3783 46.0698 59.3669 46.0941 59.3598 46.1084C59.0944 46.2482 58.622 46.2225 58.1425 46.0384C57.5974 45.8301 57.1636 45.4648 57.0637 45.1323C57.3434 45.1437 57.6231 45.1408 57.8942 45.138C58.017 45.138 58.1397 45.1351 58.2624 45.1351H58.2639C58.4265 45.1351 58.5906 45.1351 58.7519 45.1351C59.0958 45.1351 59.3313 45.1965 59.414 45.3078C59.5011 45.4234 59.4911 45.6817 59.3883 46.0356V46.0341Z" fill="#FF6700"/>
<path d="M30.7913 29.8111C30.8142 29.8225 30.8455 29.8382 30.8812 29.8539C31.2266 30.0166 31.6375 30.0066 31.9586 29.7982C32.0828 29.7183 32.1869 29.6141 32.2497 29.4757C32.4467 29.0376 32.3653 28.6166 32.0385 28.3769C31.2808 27.8204 30.5459 27.3994 29.791 27.0926C29.4442 26.9513 29.0475 27.0812 28.8006 27.4151C28.5509 27.7547 28.4753 28.2585 28.8135 28.5638C29.4185 29.1104 30.1163 29.4657 30.7899 29.8096L30.7913 29.8111Z" fill="#FF6700"/>
<path d="M33.5359 26.9447C33.9312 27.4712 34.659 27.3956 35.0043 26.8419C35.411 26.2069 35 25.6789 34.7532 25.3264C34.4463 24.8512 34.2808 24.2633 33.8684 23.8609C33.5117 23.5112 32.9366 23.4613 32.5384 23.7624C32.2616 23.9707 32.1317 24.2804 32.2716 24.7299C32.5413 25.4748 32.9551 26.1998 33.5359 26.9461V26.9447Z" fill="#FF6700"/>
<path d="M42.9867 27.1963C44.0869 27.6229 44.6677 25.9391 45.1501 25.0015C45.4326 24.4535 45.1857 23.7586 44.6007 23.5631C44.2667 23.4518 43.8929 23.5203 43.6446 23.8956C43.3278 24.7232 41.9336 25.9248 42.55 26.8509C42.6542 27.0079 42.8098 27.1278 42.9853 27.1948L42.9867 27.1963Z" fill="#FF6700"/>
<path d="M45.2801 29.436C45.3686 29.6729 45.5456 29.8385 45.7753 29.9355C46.0536 30.0525 46.3718 30.014 46.6387 29.8741C47.3508 29.5003 48.0628 29.1592 48.705 28.5998C49.4214 27.9848 48.4439 26.6177 47.5962 27.14C46.9426 27.6751 44.7893 28.0989 45.2787 29.4375L45.2801 29.436Z" fill="#FF6700"/>
<path d="M38.7329 26.6865C38.7457 26.6865 38.76 26.6865 38.7729 26.6865C39.0369 26.6865 39.2637 26.6037 39.4307 26.4453C39.5563 26.3283 39.7061 26.11 39.7175 25.7432C39.7247 25.4907 39.7233 25.2367 39.7218 24.9912C39.7218 24.8842 39.7204 24.7757 39.7204 24.6687V24.3391C39.7233 24.095 39.7247 23.8425 39.7147 23.5913C39.6933 23.0576 39.3323 22.6866 38.8142 22.668C38.536 22.6566 38.2977 22.7408 38.1193 22.9092C37.9366 23.0819 37.8353 23.3287 37.8296 23.6227C37.8139 24.399 37.821 25.1739 37.8296 25.7632C37.8367 26.2998 38.2006 26.6708 38.7329 26.6879V26.6865Z" fill="#FF6700"/>
<path d="M48.7094 39.8083C48.3755 39.2575 48.0302 38.7024 47.6962 38.1658C47.0969 37.2011 46.4761 36.2051 45.9053 35.2047C45.3588 34.2458 44.6067 33.8234 43.4694 33.8348C39.4837 33.8733 36.1559 33.8719 32.9965 33.8305C32.156 33.8205 30.9787 33.9661 30.3794 35.3617C30.3665 35.3917 30.3494 35.4231 30.3323 35.4559C29.9541 36.0667 28.1304 39.1233 27.8535 39.5928L27.7208 39.8197C27.4697 40.2464 27.1671 40.8714 27.4497 41.3652C27.7294 41.8561 28.4115 41.9132 28.901 41.9132C32.1403 41.9146 35.2541 41.916 38.2822 41.916C41.3103 41.916 44.5368 41.916 47.5721 41.9132C48.0587 41.9132 48.738 41.8561 49.0119 41.368C49.2902 40.8729 48.9748 40.2407 48.7123 39.8069L48.7094 39.8083ZM37.6629 39.7726C37.6643 39.9111 37.6515 39.9667 37.6443 39.9853C37.6272 39.991 37.5772 40.0024 37.4745 40.0038C35.4809 39.991 33.5088 39.9924 31.4225 39.9938C30.9145 39.9938 30.4008 39.9938 29.8828 39.9938C30.0269 39.7455 31.1842 37.8019 31.7322 36.8772C31.7707 36.8159 31.8078 36.7545 31.8406 36.6931C31.9234 36.5519 31.9833 36.452 32.0062 36.4106C32.0104 36.4034 32.0133 36.3963 32.0161 36.3892C32.0233 36.3778 32.0304 36.3663 32.0376 36.3578C32.1018 36.2722 32.1546 36.1823 32.2002 36.1038C32.3501 35.8483 32.3972 35.7741 32.6183 35.7798C34.278 35.8155 35.9276 35.8027 37.4617 35.7841C37.5801 35.7827 37.63 35.7955 37.6486 35.8027C37.6557 35.8212 37.6686 35.874 37.6657 35.9939C37.6457 37.1241 37.6457 38.3599 37.6643 39.7712L37.6629 39.7726ZM46.5018 40.0024C45.7027 39.9895 44.8921 39.9924 44.1073 39.9953C43.4694 39.9967 42.8329 39.9967 42.1951 39.9953C41.4031 39.9924 40.584 39.9895 39.7763 40.0038C39.6493 40.0052 39.595 39.9924 39.5765 39.9853C39.5708 39.9681 39.5565 39.9182 39.5594 39.8055C39.5793 38.631 39.5808 37.3695 39.5608 35.9468C39.5608 35.864 39.5679 35.8212 39.5722 35.8012C39.5936 35.7955 39.6393 35.787 39.7306 35.7884C41.0107 35.8041 42.3249 35.8041 43.7505 35.7884C43.9289 35.7827 44.0031 35.8312 44.103 35.9967L44.3427 36.3906C45.0577 37.5693 45.7969 38.7894 46.5503 39.9738C46.5575 39.9838 46.5632 39.9938 46.5689 40.0024C46.5489 40.0024 46.5261 40.0024 46.5018 40.0024Z" fill="#FF6700"/>
<path d="M40.5435 45.3092C39.8985 45.295 39.4532 45.0524 39.2563 44.3902C39.1564 44.0549 38.9695 43.7138 38.5371 43.7081C38.1047 43.701 37.9106 44.0335 37.8079 44.3731C37.5995 45.0509 37.1529 45.3235 36.4708 45.3164C36.1226 45.3135 35.7958 45.4148 35.6674 45.7887C35.5375 46.1697 35.7558 46.4409 36.0341 46.6435C36.6106 47.063 36.7876 47.5739 36.5507 48.2632C36.4451 48.5714 36.4351 48.9296 36.7719 49.1665C37.1129 49.4062 37.424 49.2549 37.6966 49.0637C38.2517 48.6756 38.784 48.6099 39.3334 49.058C39.4133 49.1208 39.5146 49.1593 39.6116 49.1979C40.1311 49.4062 40.5364 49.1408 40.5478 48.4729C40.4036 47.8764 40.1839 47.1587 41.0044 46.6549C41.2884 46.4808 41.5124 46.194 41.3926 45.8087C41.2641 45.3977 40.9088 45.3178 40.5421 45.3092H40.5435Z" fill="#FF6700"/>
<path d="M28.6049 49.5302C27.9499 49.5188 27.3363 49.7699 26.8583 50.2351C26.3816 50.7004 26.1119 51.3168 26.1019 51.969C26.0905 52.6183 26.3403 53.2376 26.8026 53.7142C27.2678 54.1937 27.8843 54.4634 28.5379 54.472C28.5493 54.472 28.5607 54.472 28.5721 54.472C29.2128 54.472 29.8193 54.2237 30.2831 53.7713C30.7569 53.3089 31.0223 52.6925 31.0294 52.0346C31.0437 50.6761 29.9563 49.5516 28.6049 49.5273V49.5302ZM28.6006 52.8081C28.1469 52.8223 27.7801 52.487 27.7602 52.0446C27.7502 51.8191 27.8272 51.6079 27.977 51.4495C28.1283 51.2911 28.3366 51.2027 28.5635 51.1998C28.5664 51.1998 28.5678 51.1998 28.5707 51.1998C29.0259 51.1998 29.377 51.5366 29.3884 51.9861C29.3984 52.4328 29.0544 52.7938 28.6021 52.8081H28.6006Z" fill="#FF6700"/>
<path d="M44.1217 42.3191C43.8662 42.3063 43.6108 42.3092 43.3639 42.312C43.2569 42.312 43.1499 42.3149 43.0429 42.3149L42.8388 42.3177C42.7931 42.3177 42.746 42.3163 42.7004 42.3149C42.4321 42.3106 42.1538 42.3049 41.8727 42.3263C41.2933 42.3691 40.9394 42.7487 40.9494 43.3181C40.958 43.8489 41.3233 44.2199 41.857 44.2413C42.2537 44.257 42.6533 44.2656 43.0543 44.2656C43.4267 44.2656 43.8006 44.2585 44.1716 44.2442C44.4585 44.2328 44.7096 44.1257 44.878 43.9417C45.0435 43.7604 45.1235 43.5178 45.1078 43.241C45.0792 42.6916 44.7096 42.3477 44.1217 42.3191Z" fill="#FF6700"/>
<path d="M51.4343 49.5303H51.4229C50.0686 49.536 48.9698 50.6505 48.9727 52.0133C48.9741 52.6726 49.2338 53.2919 49.7019 53.7585C50.1671 54.2209 50.7807 54.4749 51.4314 54.4749H51.44C52.0936 54.472 52.71 54.2123 53.1781 53.74C53.6462 53.2691 53.9016 52.6483 53.9002 51.9962C53.8973 51.344 53.6362 50.7261 53.1638 50.2552C52.6943 49.7871 52.0807 49.5303 51.4343 49.5303ZM52.2434 52.0062C52.2434 52.4528 51.8909 52.8053 51.4414 52.8096C51.4386 52.8096 51.4357 52.8096 51.4328 52.8096C51.2045 52.8096 50.9948 52.7225 50.8392 52.5641C50.6865 52.4086 50.6066 52.2017 50.6137 51.9833C50.628 51.5352 50.9776 51.2027 51.4314 51.2027C51.4357 51.2027 51.44 51.2027 51.4428 51.2027C51.8924 51.2084 52.2434 51.5623 52.2434 52.0076V52.0062Z" fill="#FF6700"/>
</g>
</svg>
