<svg width="24" height="24" viewBox="0 0 24 24" fill="none" xmlns="http://www.w3.org/2000/svg">
<mask id="mask0_1353_5611" style="mask-type:alpha" maskUnits="userSpaceOnUse" x="0" y="0" width="24" height="24">
<rect width="24" height="24" fill="#D9D9D9"/>
</mask>
<g mask="url(#mask0_1353_5611)">
<path d="M21.1799 18.76C20.672 18.0994 20.0429 17.4781 19.1417 16.7453C18.1016 15.9008 16.9598 15.0404 15.6589 14.4745C15.1663 14.2601 14.7981 14.3356 14.4282 14.7249C14.102 15.0693 13.7588 15.4064 13.4269 15.7323C13.0982 16.055 12.7575 16.3897 12.4369 16.7284C12.1316 17.0487 11.8199 17.1185 11.392 16.9604C9.39819 16.2211 7.97534 14.8517 7.04185 12.7743C6.844 12.3329 7.03216 12.0672 7.24211 11.8641C7.72501 11.3993 8.20871 10.9169 8.67546 10.4497C8.85392 10.2715 9.03157 10.0933 9.21003 9.91676C10.0523 9.07954 10.0797 8.89171 9.50236 7.906C8.56886 6.31346 7.43349 4.87101 6.12773 3.62042C5.7264 3.23512 5.17809 2.75672 4.50058 2.47256C4.30355 2.38988 4.11944 2.34814 3.94501 2.34814C3.63654 2.34814 3.36117 2.47898 3.09954 2.74307C2.93319 2.91164 2.76523 3.08662 2.60291 3.25599C2.15474 3.72477 1.69042 4.20879 1.17926 4.63101C0.305523 5.35504 -0.0675506 6.27413 0.00997117 7.52392C0.0156238 7.62346 0.0204689 7.72379 0.0269291 7.82252C0.047117 8.21344 0.0689201 8.61639 0.144827 8.99366C1.43605 15.3012 4.91161 19.8188 10.4754 22.4195C12.6355 23.4293 14.6656 23.9158 17.0591 23.9952H17.0712C17.6761 24.0466 18.6168 23.7079 19.3533 22.8369C19.7094 22.4139 20.1148 22.0286 20.5072 21.6554C20.68 21.4916 20.8577 21.3214 21.0281 21.1529C21.9252 20.2611 21.9559 19.769 21.1799 18.76ZM20.328 19.9007C20.311 20.1945 20.0938 20.4056 19.9315 20.5396C19.5705 20.8358 19.2233 21.1665 18.8881 21.4868C18.8042 21.5671 18.7194 21.6473 18.6338 21.7276C17.9207 22.4019 17.1035 22.7278 16.1071 22.7278C15.8277 22.7278 15.5353 22.7021 15.2269 22.6515C11.7965 22.0896 8.51961 20.3719 5.99934 17.8153C3.47584 15.2563 1.81558 11.9604 1.3238 8.53532C1.28504 8.25839 1.26243 7.97985 1.23982 7.70934C1.23013 7.58332 1.21963 7.4573 1.20833 7.33208V7.32004C1.17764 6.65541 1.3981 6.12242 1.88342 5.69297C2.48744 5.15758 3.06078 4.55877 3.61393 3.98002C3.91998 3.66055 4.22038 3.64048 4.56276 3.91661C6.21898 5.24989 7.44238 6.65701 8.304 8.21986C8.52526 8.6204 8.48327 8.92222 8.16107 9.22644C7.72097 9.64304 7.28491 10.0789 6.86338 10.5019C6.57106 10.7949 6.26986 11.0975 5.96785 11.3913C5.58104 11.7678 5.48979 12.1547 5.67068 12.6451C6.7899 15.6841 8.91852 17.6347 11.9952 18.4422C12.2948 18.5216 12.5096 18.3852 12.7785 18.1219C13.5997 17.3184 14.2699 16.6522 14.8885 16.0237C15.0274 15.8824 15.3173 15.5878 15.7752 15.8736C17.4645 16.9267 18.8454 18.0184 19.9977 19.2088C20.1487 19.3653 20.3473 19.6061 20.3304 19.9023L20.328 19.9007Z" fill="#FF6700"/>
<path d="M24.0011 10.0313C24.0011 12.1753 24.0011 14.3185 24.0003 16.4625V16.5604C24.0019 16.6969 24.0027 16.8261 23.9841 16.9465C23.9357 17.2644 23.7572 17.4257 23.4375 17.4418C23.2315 17.4514 22.9651 17.3888 22.873 17.034C22.8229 16.843 22.8189 16.6198 22.8189 16.4264C22.8165 13.031 22.8165 9.63475 22.8165 6.23935V2.39525C22.8157 1.42238 22.575 1.18398 21.5882 1.18398C20.171 1.18318 18.7555 1.18318 17.3383 1.18318C15.9211 1.18318 14.5047 1.18318 13.0875 1.18398C12.2016 1.18478 11.9852 1.3983 11.9828 2.27645C11.9804 3.43393 11.9812 4.60747 11.9828 5.61566C11.9828 5.9865 11.8835 6.19922 11.6501 6.32685C11.4676 6.42638 11.2665 6.42799 11.0994 6.33086C10.9177 6.22651 10.8119 6.03065 10.8079 5.79386C10.7877 4.51918 10.7747 3.15139 10.8175 1.79082C10.849 0.788251 11.6356 0.0272963 12.6466 0.0200721C15.9574 -0.00641686 19.0284 -0.00641686 22.0372 0.0184667C23.1847 0.0272963 23.9906 0.870126 23.9971 2.06775C24.0059 3.75421 24.0035 5.46877 24.0019 7.12874C24.0011 7.85839 24.0011 8.58804 24.0011 9.31689V10.0313Z" fill="#FF6700"/>
<path d="M20.1297 4.05749C20.1321 4.48934 19.8406 4.77269 19.386 4.77911C18.9031 4.78553 18.4097 4.78393 17.9332 4.78232C17.7201 4.78232 17.5044 4.77911 17.2945 4.78152C17.0789 4.78152 16.8641 4.78232 16.6493 4.78232C16.1575 4.78393 15.6488 4.78553 15.1497 4.77911C14.6838 4.77349 14.3931 4.50057 14.3907 4.06792C14.389 3.85521 14.4561 3.6754 14.5845 3.54778C14.7161 3.41774 14.9059 3.3479 15.1336 3.3463C16.4797 3.33908 17.8662 3.33827 19.3739 3.3463C19.8374 3.34871 20.1257 3.62082 20.1297 4.05668V4.05749Z" fill="#FF6700"/>
<path d="M20.1291 7.81761C20.1307 8.17882 19.8747 8.39795 19.4451 8.40438C18.9364 8.4116 18.4172 8.41 17.9157 8.40839C17.6952 8.40759 17.4748 8.40678 17.2551 8.40678H17.2503C17.0355 8.40678 16.8207 8.40759 16.6059 8.40839C16.1141 8.41 15.6054 8.4116 15.1063 8.40518C14.8512 8.40197 14.6525 8.33294 14.5306 8.20691C14.4329 8.10658 14.3868 7.97092 14.3909 7.80316C14.3998 7.44355 14.6573 7.23565 15.0983 7.23405C16.6269 7.22602 18.0481 7.22602 19.4419 7.23405C19.8707 7.23646 20.1283 7.45399 20.1291 7.8168V7.81761Z" fill="#FF6700"/>
<path d="M20.1301 11.709C20.1341 12.1833 19.7344 12.2885 19.3977 12.2925C18.9011 12.2981 18.3955 12.2965 17.907 12.2949C17.4734 12.2941 17.0397 12.2941 16.6061 12.2957C16.1159 12.2965 15.6088 12.2981 15.1114 12.2917C14.7916 12.2877 14.4072 12.1882 14.3911 11.7378C14.3854 11.5693 14.4347 11.4256 14.534 11.3212C14.6575 11.1936 14.8513 11.1254 15.0968 11.1222C15.8058 11.1158 16.5197 11.1125 17.2351 11.1125C17.9506 11.1125 18.7056 11.1158 19.4364 11.123C19.8741 11.127 20.1261 11.3397 20.1293 11.7081L20.1301 11.709Z" fill="#FF6700"/>
</g>
</svg>
