<?xml version="1.0" encoding="utf-8"?>
<!-- Generator: Adobe Illustrator 28.3.0, SVG Export Plug-In . SVG Version: 6.00 Build 0)  -->
<svg version="1.1" id="Capa_1" xmlns="http://www.w3.org/2000/svg" xmlns:xlink="http://www.w3.org/1999/xlink" x="0px" y="0px"
	 viewBox="0 0 12 12" style="enable-background:new 0 0 12 12;" xml:space="preserve">
<style type="text/css">
	.st0{fill:#FFFFFF;}
</style>
<path class="st0" d="M9,7.5H8v1h1 M9,5.5H8v1h1 M10,9.5H6v-1h1v-1H6v-1h1v-1H6v-1h4 M5,3.5H4v-1h1 M5,5.5H4v-1h1 M5,7.5H4v-1h1
	 M5,9.5H4v-1h1 M3,3.5H2v-1h1 M3,5.5H2v-1h1 M3,7.5H2v-1h1 M3,9.5H2v-1h1 M6,3.5v-2H1v9h10v-7H6z"/>
</svg>
