<?xml version="1.0" encoding="utf-8"?>
<!-- Generator: Adobe Illustrator 16.0.0, SVG Export Plug-In . SVG Version: 6.00 Build 0)  -->
<!DOCTYPE svg PUBLIC "-//W3C//DTD SVG 1.1//EN" "http://www.w3.org/Graphics/SVG/1.1/DTD/svg11.dtd">
<svg version="1.1" id="Capa_1" xmlns="http://www.w3.org/2000/svg" xmlns:xlink="http://www.w3.org/1999/xlink" x="0px" y="0px"
	 width="40px" height="28px" viewBox="0 0 40 28" enable-background="new 0 0 40 28" xml:space="preserve">
<path fill="#FF6700" d="M18.907,27.535c-7.279-0.332-13.777-3.934-18.19-11.187c-0.961-1.58-0.943-3.114-0.019-4.723
	C9.23-3.229,30.705-3.265,39.285,11.56c0.943,1.629,0.961,3.168,0.016,4.803c-3.988,6.874-11.387,11.175-20.391,11.171
	L18.907,27.535z M19.997,24.988c7.392-0.291,13.093-3.492,17.035-9.814c0.506-0.812,0.509-1.531,0.021-2.366
	C29.46-0.195,10.641-0.231,2.999,12.74c-0.527,0.895-0.517,1.645,0.03,2.514C6.977,21.539,12.672,24.695,19.997,24.988
	L19.997,24.988z"/>
<path fill="#FF6700" d="M27.953,13.969c0.008,4.342-3.442,7.85-7.734,7.865c-4.352,0.016-7.839-3.477-7.836-7.847
	c0.003-4.33,3.472-7.818,7.775-7.821c4.307-0.003,7.784,3.479,7.793,7.804L27.953,13.969z M20.209,8.73
	c-2.865-0.015-5.245,2.321-5.276,5.186c-0.032,2.924,2.31,5.338,5.194,5.354c2.898,0.018,5.275-2.357,5.275-5.272
	C25.402,11.116,23.064,8.746,20.209,8.73z"/>
</svg>
