<svg width="480" height="215" viewBox="0 0 480 215" fill="none" xmlns="http://www.w3.org/2000/svg">
<path d="M35.0362 140.388C28.2476 140.388 22.2212 139.194 16.9572 136.806C11.7219 134.39 7.59405 131.068 4.57369 126.839C1.58209 122.611 0.0575306 117.749 0 112.255H23.2999C23.3862 115.304 24.5656 117.735 26.8381 119.547C29.1393 121.359 31.872 122.265 35.0362 122.265C37.4813 122.265 39.6387 121.748 41.5084 120.712C43.3782 119.648 44.8452 118.152 45.9095 116.225C46.9738 114.297 47.4916 112.054 47.4628 109.494C47.4916 106.905 46.9738 104.661 45.9095 102.763C44.8452 100.835 43.3782 99.3539 41.5084 98.3183C39.6387 97.254 37.4813 96.7219 35.0362 96.7219C32.5048 96.7219 30.1605 97.3403 28.0031 98.5772C25.8744 99.7854 24.3067 101.468 23.2999 103.626L2.2437 99.4833L5.69554 50.8124H65.0672V69.9701H25.371L23.6451 89.473H24.1629C25.5436 86.7978 27.9312 84.5829 31.3255 82.8282C34.7198 81.0447 38.6606 80.153 43.148 80.153C48.4121 80.153 53.1008 81.3755 57.2143 83.8206C61.3565 86.2657 64.6214 89.6456 67.0089 93.9604C69.4252 98.2464 70.6189 103.194 70.5902 108.803C70.6189 114.959 69.1519 120.425 66.1891 125.2C63.255 129.946 59.1272 133.671 53.8056 136.375C48.484 139.05 42.2275 140.388 35.0362 140.388Z" fill="#2D2D3A"/>
<path d="M119.423 141.596C111.397 141.567 104.465 139.712 98.6256 136.03C92.7862 132.348 88.2845 127.041 85.1203 120.108C81.9561 113.176 80.3884 104.862 80.4171 95.1685C80.4459 85.4458 82.028 77.1902 85.1634 70.4016C88.3276 63.6129 92.815 58.4496 98.6256 54.9114C104.465 51.3733 111.397 49.6042 119.423 49.6042C127.448 49.6042 134.381 51.3877 140.22 54.9546C146.06 58.4927 150.561 63.6561 153.726 70.4447C156.89 77.2333 158.458 85.4746 158.429 95.1685C158.429 104.92 156.847 113.262 153.682 120.194C150.518 127.127 146.017 132.434 140.177 136.116C134.367 139.769 127.448 141.596 119.423 141.596ZM119.423 122.093C123.565 122.093 126.959 119.935 129.606 115.621C132.281 111.277 133.604 104.46 133.576 95.1685C133.576 89.099 132.971 84.137 131.763 80.2825C130.555 76.4279 128.887 73.5801 126.758 71.7392C124.629 69.8694 122.184 68.9345 119.423 68.9345C115.281 68.9345 111.901 71.0344 109.283 75.2341C106.666 79.4339 105.328 86.0787 105.27 95.1685C105.242 101.353 105.831 106.445 107.039 110.443C108.248 114.413 109.916 117.347 112.045 119.245C114.202 121.144 116.661 122.093 119.423 122.093Z" fill="#2D2D3A"/>
<path d="M220.26 122.611V117.951C220.26 114.211 221.065 110.759 222.676 107.595C224.316 104.431 226.689 101.885 229.796 99.958C232.902 98.0307 236.685 97.067 241.144 97.067C245.717 97.067 249.557 98.0163 252.664 99.9148C255.799 101.813 258.173 104.345 259.783 107.509C261.394 110.673 262.2 114.154 262.2 117.951V122.611C262.2 126.35 261.38 129.802 259.74 132.966C258.129 136.13 255.756 138.676 252.621 140.603C249.485 142.531 245.66 143.494 241.144 143.494C236.627 143.494 232.816 142.531 229.709 140.603C226.603 138.676 224.244 136.13 222.633 132.966C221.051 129.802 220.26 126.35 220.26 122.611ZM235.275 117.951V122.611C235.275 124.25 235.678 125.876 236.484 127.486C237.318 129.068 238.871 129.86 241.144 129.86C243.531 129.86 245.099 129.083 245.847 127.53C246.623 125.976 247.012 124.337 247.012 122.611V117.951C247.012 116.225 246.652 114.556 245.933 112.946C245.214 111.335 243.617 110.529 241.144 110.529C238.871 110.529 237.318 111.335 236.484 112.946C235.678 114.556 235.275 116.225 235.275 117.951ZM174.005 72.0412V67.3812C174.005 63.5842 174.825 60.1036 176.465 56.9394C178.133 53.7752 180.521 51.2438 183.627 49.3453C186.734 47.4468 190.488 46.4976 194.889 46.4976C199.463 46.4976 203.303 47.4468 206.409 49.3453C209.545 51.2438 211.918 53.7752 213.529 56.9394C215.14 60.1036 215.945 63.5842 215.945 67.3812V72.0412C215.945 75.8382 215.125 79.3044 213.486 82.4399C211.875 85.5753 209.502 88.0779 206.366 89.9476C203.231 91.8174 199.405 92.7522 194.889 92.7522C190.373 92.7522 186.561 91.803 183.455 89.9045C180.348 88.006 177.989 85.489 176.378 82.3536C174.796 79.2181 174.005 75.7807 174.005 72.0412ZM189.193 67.3812V72.0412C189.193 73.7671 189.596 75.4067 190.401 76.9601C191.207 78.5134 192.703 79.2901 194.889 79.2901C197.276 79.2901 198.844 78.5134 199.592 76.9601C200.369 75.4067 200.757 73.7671 200.757 72.0412V67.3812C200.757 65.6553 200.397 63.9869 199.678 62.376C198.959 60.7652 197.363 59.9597 194.889 59.9597C192.616 59.9597 191.092 60.7939 190.315 62.4623C189.567 64.102 189.193 65.7416 189.193 67.3812ZM181.34 139.18L242.093 50.8124H254.347L193.594 139.18H181.34Z" fill="#2D2D3A"/>
<path d="M360.823 83.732C360.823 91.8018 359.242 98.6092 356.079 104.154C352.917 109.676 348.649 113.864 343.276 116.719C337.903 119.551 331.912 120.966 325.302 120.966C318.645 120.966 312.63 119.539 307.256 116.684C301.907 113.805 297.651 109.605 294.489 104.083C291.35 98.5384 289.781 91.7546 289.781 83.732C289.781 75.6621 291.35 68.8665 294.489 63.3451C297.651 57.8 301.907 53.6117 307.256 50.7802C312.63 47.9251 318.645 46.4976 325.302 46.4976C331.912 46.4976 337.903 47.9251 343.276 50.7802C348.649 53.6117 352.917 57.8 356.079 63.3451C359.242 68.8665 360.823 75.6621 360.823 83.732ZM340.423 83.732C340.423 79.3903 339.841 75.7329 338.676 72.7598C337.534 69.7632 335.834 67.4979 333.576 65.9642C331.341 64.4069 328.583 63.6282 325.302 63.6282C322.021 63.6282 319.251 64.4069 316.992 65.9642C314.757 67.4979 313.057 69.7632 311.892 72.7598C310.751 75.7329 310.181 79.3903 310.181 83.732C310.181 88.0736 310.751 91.7428 311.892 94.7395C313.057 97.7126 314.757 99.9778 316.992 101.535C319.251 103.069 322.021 103.836 325.302 103.836C328.583 103.836 331.341 103.069 333.576 101.535C335.834 99.9778 337.534 97.7126 338.676 94.7395C339.841 91.7428 340.423 88.0736 340.423 83.732Z" fill="#2D2D3A"/>
<path d="M369.997 119.975V47.4886H421.352V63.3451H389.826V75.8037H418.214V91.6602H389.826V119.975H369.997Z" fill="#2D2D3A"/>
<path d="M428.645 119.975V47.4886H480V63.3451H448.474V75.8037H476.862V91.6602H448.474V119.975H428.645Z" fill="#2D2D3A"/>
<line x1="170.793" y1="28.2245" x2="480" y2="28.2245" stroke="#2D2D3A" stroke-width="7.40641"/>
<line x1="289.781" y1="138.308" x2="480" y2="138.308" stroke="#2D2D3A" stroke-width="7.40641"/>
<path d="M15.8755 200.871C12.4911 200.871 9.68738 200.183 7.46452 198.806C5.24166 197.415 3.67848 195.45 2.77499 192.912C1.88585 190.359 1.73527 187.34 2.32325 183.855C2.89689 180.456 4.05135 177.474 5.78662 174.906C7.53622 172.339 9.73041 170.339 12.3692 168.905C15.0079 167.471 17.9478 166.754 21.1889 166.754C23.3687 166.754 25.3406 167.105 27.1046 167.808C28.8829 168.496 30.36 169.543 31.536 170.948C32.7119 172.339 33.515 174.082 33.9453 176.176C34.3898 178.269 34.3827 180.722 33.9238 183.533L33.515 186.049H5.63603L6.51801 180.37H25.7924C26.0075 179.051 25.9215 177.882 25.5342 176.864C25.147 175.846 24.5017 175.05 23.5982 174.476C22.6947 173.888 21.5833 173.594 20.2639 173.594C18.9159 173.594 17.6538 173.924 16.4779 174.584C15.3019 175.243 14.3124 176.111 13.5093 177.187C12.7205 178.248 12.2114 179.402 11.982 180.65L10.9709 186.286C10.6841 188.021 10.7415 189.463 11.143 190.61C11.5589 191.757 12.2759 192.618 13.2942 193.191C14.3124 193.751 15.6031 194.03 17.1662 194.03C18.1845 194.03 19.1381 193.887 20.0273 193.6C20.9308 193.313 21.7339 192.89 22.4366 192.331C23.1393 191.757 23.7129 191.047 24.1575 190.201L32.5255 190.76C31.7511 192.797 30.5751 194.575 28.9976 196.095C27.4201 197.601 25.5199 198.777 23.297 199.623C21.0885 200.455 18.6147 200.871 15.8755 200.871ZM49.5573 181.123L46.3736 200.226H37.2312L42.7381 167.184H51.4503L50.5038 173.013H50.8695C51.9164 171.077 53.3935 169.55 55.3009 168.431C57.2226 167.313 59.4096 166.754 61.8619 166.754C64.1565 166.754 66.071 167.256 67.6055 168.259C69.1544 169.263 70.2443 170.69 70.8753 172.54C71.5206 174.39 71.6282 176.606 71.198 179.187L67.6701 200.226H58.5061L61.7544 180.822C62.0842 178.8 61.8261 177.223 60.98 176.09C60.1482 174.942 58.8073 174.369 56.9573 174.369C55.724 174.369 54.591 174.634 53.5585 175.165C52.5259 175.695 51.6583 176.47 50.9556 177.488C50.2672 178.492 49.8011 179.704 49.5573 181.123ZM105.348 156.17L98.0337 200.226H88.8697L96.1837 156.17H105.348ZM114.711 200.849C112.617 200.849 110.803 200.484 109.268 199.752C107.748 199.007 106.629 197.902 105.912 196.44C105.195 194.977 105.016 193.163 105.374 190.997C105.69 189.161 106.285 187.627 107.16 186.394C108.049 185.146 109.132 184.142 110.408 183.382C111.685 182.622 113.097 182.041 114.646 181.64C116.209 181.238 117.823 180.966 119.486 180.822C121.408 180.621 122.971 180.428 124.176 180.241C125.395 180.055 126.305 179.79 126.908 179.445C127.51 179.087 127.876 178.556 128.005 177.854V177.724C128.22 176.376 127.969 175.33 127.252 174.584C126.549 173.824 125.423 173.444 123.874 173.444C122.24 173.444 120.848 173.802 119.701 174.519C118.568 175.236 117.758 176.147 117.27 177.251L108.924 176.563C109.67 174.555 110.795 172.82 112.301 171.357C113.821 169.88 115.65 168.747 117.787 167.958C119.923 167.155 122.318 166.754 124.972 166.754C126.807 166.754 128.521 166.969 130.113 167.399C131.719 167.829 133.103 168.496 134.265 169.399C135.441 170.303 136.287 171.465 136.803 172.884C137.334 174.29 137.441 175.975 137.126 177.94L133.404 200.226H124.713L125.488 195.644H125.23C124.527 196.676 123.667 197.587 122.648 198.376C121.63 199.15 120.461 199.76 119.142 200.204C117.823 200.634 116.345 200.849 114.711 200.849ZM118.389 194.525C119.723 194.525 120.949 194.26 122.067 193.729C123.2 193.184 124.133 192.453 124.864 191.535C125.61 190.617 126.083 189.577 126.284 188.416L126.843 184.909C126.556 185.096 126.14 185.261 125.595 185.404C125.065 185.548 124.484 185.684 123.853 185.813C123.236 185.928 122.612 186.035 121.981 186.135C121.35 186.222 120.784 186.308 120.282 186.394C119.178 186.551 118.188 186.802 117.313 187.147C116.439 187.491 115.729 187.957 115.184 188.545C114.639 189.118 114.302 189.835 114.173 190.696C113.972 191.944 114.266 192.897 115.055 193.557C115.858 194.202 116.969 194.525 118.389 194.525ZM154.534 200.226L160.041 167.184H169.205L163.698 200.226H154.534ZM165.569 162.881C164.207 162.881 163.081 162.43 162.192 161.526C161.317 160.608 160.959 159.518 161.116 158.256C161.274 156.966 161.891 155.876 162.966 154.987C164.042 154.083 165.261 153.631 166.623 153.631C167.986 153.631 169.097 154.083 169.958 154.987C170.818 155.876 171.177 156.966 171.033 158.256C170.89 159.518 170.28 160.608 169.205 161.526C168.143 162.43 166.932 162.881 165.569 162.881ZM183.429 181.123L180.246 200.226H171.103L176.61 167.184H185.322L184.376 173.013H184.741C185.788 171.077 187.265 169.55 189.173 168.431C191.095 167.313 193.282 166.754 195.734 166.754C198.028 166.754 199.943 167.256 201.477 168.259C203.026 169.263 204.116 170.69 204.747 172.54C205.393 174.39 205.5 176.606 205.07 179.187L201.542 200.226H192.378L195.626 180.822C195.956 178.8 195.698 177.223 194.852 176.09C194.02 174.942 192.679 174.369 190.829 174.369C189.596 174.369 188.463 174.634 187.43 175.165C186.398 175.695 185.53 176.47 184.828 177.488C184.139 178.492 183.673 179.704 183.429 181.123ZM240.107 176.606L231.782 177.122C231.739 176.391 231.538 175.738 231.18 175.165C230.835 174.577 230.326 174.111 229.652 173.766C228.993 173.422 228.161 173.25 227.157 173.25C225.651 173.25 224.31 173.594 223.134 174.283C221.958 174.971 221.291 175.853 221.134 176.929C221.005 177.617 221.184 178.198 221.671 178.671C222.159 179.144 223.141 179.546 224.619 179.876L230.427 181.08C233.524 181.74 235.762 182.837 237.138 184.372C238.529 185.906 239.024 187.914 238.623 190.395C238.264 192.503 237.339 194.346 235.848 195.923C234.356 197.486 232.463 198.705 230.169 199.58C227.874 200.441 225.328 200.871 222.532 200.871C218.043 200.871 214.63 199.953 212.292 198.117C209.955 196.282 208.829 193.794 208.915 190.653L217.864 190.18C217.936 191.528 218.409 192.546 219.284 193.234C220.158 193.908 221.356 194.253 222.876 194.267C224.583 194.296 226.031 193.944 227.221 193.213C228.426 192.467 229.107 191.564 229.265 190.502C229.38 189.757 229.165 189.154 228.62 188.695C228.089 188.236 227.114 187.856 225.694 187.555L220.187 186.415C217.061 185.77 214.816 184.615 213.454 182.952C212.092 181.288 211.626 179.173 212.056 176.606C212.4 174.555 213.253 172.798 214.616 171.336C215.992 169.858 217.764 168.725 219.929 167.937C222.109 167.148 224.568 166.754 227.308 166.754C231.595 166.754 234.822 167.636 236.988 169.399C239.168 171.163 240.207 173.566 240.107 176.606ZM265.819 167.184L264.679 174.068H244.759L245.92 167.184H265.819ZM251.729 159.268H260.892L255.773 190.072C255.629 190.918 255.651 191.578 255.837 192.051C256.024 192.51 256.332 192.833 256.762 193.019C257.207 193.206 257.737 193.299 258.354 193.299C258.784 193.299 259.222 193.263 259.666 193.191C260.111 193.105 260.448 193.041 260.677 192.998L261.022 199.817C260.505 199.975 259.81 200.147 258.935 200.333C258.074 200.52 257.056 200.634 255.88 200.677C253.643 200.763 251.75 200.469 250.201 199.795C248.652 199.107 247.541 198.053 246.867 196.633C246.193 195.213 246.049 193.428 246.437 191.277L251.729 159.268ZM275.617 200.849C273.523 200.849 271.709 200.484 270.175 199.752C268.655 199.007 267.536 197.902 266.819 196.44C266.102 194.977 265.923 193.163 266.281 190.997C266.597 189.161 267.192 187.627 268.067 186.394C268.956 185.146 270.038 184.142 271.315 183.382C272.591 182.622 274.004 182.041 275.553 181.64C277.116 181.238 278.729 180.966 280.393 180.822C282.314 180.621 283.878 180.428 285.082 180.241C286.301 180.055 287.212 179.79 287.814 179.445C288.417 179.087 288.782 178.556 288.911 177.854V177.724C289.126 176.376 288.875 175.33 288.158 174.584C287.456 173.824 286.33 173.444 284.781 173.444C283.146 173.444 281.755 173.802 280.608 174.519C279.475 175.236 278.665 176.147 278.177 177.251L269.831 176.563C270.576 174.555 271.702 172.82 273.208 171.357C274.728 169.88 276.556 168.747 278.693 167.958C280.83 167.155 283.225 166.754 285.878 166.754C287.714 166.754 289.428 166.969 291.019 167.399C292.626 167.829 294.01 168.496 295.171 169.399C296.347 170.303 297.193 171.465 297.71 172.884C298.24 174.29 298.348 175.975 298.032 177.94L294.311 200.226H285.62L286.394 195.644H286.136C285.434 196.676 284.573 197.587 283.555 198.376C282.537 199.15 281.368 199.76 280.049 200.204C278.729 200.634 277.252 200.849 275.617 200.849ZM279.296 194.525C280.629 194.525 281.855 194.26 282.974 193.729C284.107 193.184 285.039 192.453 285.771 191.535C286.516 190.617 286.99 189.577 287.19 188.416L287.75 184.909C287.463 185.096 287.047 185.261 286.502 185.404C285.971 185.548 285.391 185.684 284.76 185.813C284.143 185.928 283.519 186.035 282.888 186.135C282.257 186.222 281.691 186.308 281.189 186.394C280.084 186.551 279.095 186.802 278.22 187.147C277.345 187.491 276.635 187.957 276.09 188.545C275.545 189.118 275.208 189.835 275.079 190.696C274.879 191.944 275.173 192.897 275.961 193.557C276.764 194.202 277.876 194.525 279.296 194.525ZM317.898 156.17L310.584 200.226H301.42L308.734 156.17H317.898ZM327.261 200.849C325.167 200.849 323.353 200.484 321.819 199.752C320.298 199.007 319.18 197.902 318.463 196.44C317.746 194.977 317.567 193.163 317.925 190.997C318.241 189.161 318.836 187.627 319.71 186.394C320.6 185.146 321.682 184.142 322.959 183.382C324.235 182.622 325.648 182.041 327.197 181.64C328.76 181.238 330.373 180.966 332.037 180.822C333.958 180.621 335.522 180.428 336.726 180.241C337.945 180.055 338.856 179.79 339.458 179.445C340.06 179.087 340.426 178.556 340.555 177.854V177.724C340.77 176.376 340.519 175.33 339.802 174.584C339.1 173.824 337.974 173.444 336.425 173.444C334.79 173.444 333.399 173.802 332.252 174.519C331.119 175.236 330.309 176.147 329.821 177.251L321.474 176.563C322.22 174.555 323.346 172.82 324.852 171.357C326.372 169.88 328.2 168.747 330.337 167.958C332.474 167.155 334.869 166.754 337.522 166.754C339.358 166.754 341.071 166.969 342.663 167.399C344.27 167.829 345.653 168.496 346.815 169.399C347.991 170.303 348.837 171.465 349.353 172.884C349.884 174.29 349.992 175.975 349.676 177.94L345.955 200.226H337.264L338.038 195.644H337.78C337.078 196.676 336.217 197.587 335.199 198.376C334.181 199.15 333.012 199.76 331.692 200.204C330.373 200.634 328.896 200.849 327.261 200.849ZM330.94 194.525C332.273 194.525 333.499 194.26 334.618 193.729C335.751 193.184 336.683 192.453 337.415 191.535C338.16 190.617 338.634 189.577 338.834 188.416L339.394 184.909C339.107 185.096 338.691 185.261 338.146 185.404C337.615 185.548 337.034 185.684 336.403 185.813C335.787 185.928 335.163 186.035 334.532 186.135C333.901 186.222 333.334 186.308 332.833 186.394C331.728 186.551 330.739 186.802 329.864 187.147C328.989 187.491 328.279 187.957 327.734 188.545C327.189 189.118 326.852 189.835 326.723 190.696C326.522 191.944 326.816 192.897 327.605 193.557C328.408 194.202 329.52 194.525 330.94 194.525ZM367.907 200.871C364.508 200.871 361.712 200.154 359.518 198.72C357.338 197.271 355.811 195.264 354.936 192.697C354.075 190.129 353.925 187.175 354.484 183.834C355.029 180.449 356.169 177.481 357.904 174.928C359.64 172.361 361.841 170.36 364.508 168.926C367.19 167.478 370.202 166.754 373.543 166.754C376.426 166.754 378.864 167.277 380.857 168.324C382.851 169.371 384.313 170.841 385.246 172.734C386.178 174.627 386.493 176.85 386.192 179.402H377.566C377.58 177.767 377.157 176.441 376.297 175.423C375.436 174.405 374.174 173.895 372.511 173.895C371.077 173.895 369.757 174.283 368.553 175.057C367.362 175.817 366.351 176.929 365.519 178.391C364.702 179.854 364.128 181.625 363.799 183.705C363.454 185.813 363.447 187.605 363.777 189.083C364.107 190.56 364.738 191.685 365.67 192.46C366.602 193.234 367.778 193.622 369.198 193.622C370.259 193.622 371.242 193.406 372.145 192.976C373.063 192.546 373.866 191.922 374.554 191.105C375.243 190.273 375.773 189.276 376.146 188.115H384.794C384.206 190.653 383.137 192.876 381.589 194.783C380.054 196.691 378.125 198.182 375.802 199.258C373.479 200.333 370.847 200.871 367.907 200.871ZM388.617 200.226L394.124 167.184H403.288L397.781 200.226H388.617ZM399.653 162.881C398.291 162.881 397.165 162.43 396.276 161.526C395.401 160.608 395.042 159.518 395.2 158.256C395.358 156.966 395.974 155.876 397.05 154.987C398.126 154.083 399.345 153.631 400.707 153.631C402.069 153.631 403.181 154.083 404.041 154.987C404.902 155.876 405.26 156.966 405.117 158.256C404.973 159.518 404.364 160.608 403.288 161.526C402.227 162.43 401.015 162.881 399.653 162.881ZM420.094 200.871C416.724 200.871 413.935 200.154 411.726 198.72C409.518 197.271 407.962 195.264 407.058 192.697C406.169 190.115 406.004 187.111 406.564 183.683C407.108 180.299 408.241 177.337 409.962 174.799C411.683 172.261 413.87 170.289 416.523 168.883C419.176 167.463 422.167 166.754 425.494 166.754C428.85 166.754 431.632 167.478 433.84 168.926C436.049 170.36 437.605 172.368 438.508 174.949C439.412 177.531 439.584 180.535 439.024 183.963C438.465 187.333 437.318 190.287 435.583 192.826C433.847 195.364 431.66 197.343 429.022 198.763C426.383 200.168 423.407 200.871 420.094 200.871ZM420.998 193.772C422.547 193.772 423.916 193.335 425.106 192.46C426.311 191.571 427.308 190.366 428.097 188.846C428.9 187.311 429.459 185.576 429.775 183.64C430.09 181.733 430.112 180.041 429.839 178.563C429.567 177.072 428.993 175.896 428.118 175.036C427.258 174.175 426.075 173.745 424.569 173.745C423.02 173.745 421.643 174.189 420.438 175.079C419.234 175.953 418.237 177.158 417.448 178.692C416.66 180.227 416.107 181.969 415.792 183.92C415.491 185.813 415.469 187.505 415.727 188.997C415.986 190.474 416.552 191.642 417.427 192.503C418.302 193.349 419.492 193.772 420.998 193.772ZM422.912 162.925L429.129 153.137H437.605L429.409 162.925H422.912ZM454.663 181.123L451.48 200.226H442.337L447.844 167.184H456.556L455.61 173.013H455.976C457.023 171.077 458.5 169.55 460.407 168.431C462.329 167.313 464.516 166.754 466.968 166.754C469.263 166.754 471.177 167.256 472.712 168.259C474.26 169.263 475.35 170.69 475.981 172.54C476.627 174.39 476.734 176.606 476.304 179.187L472.776 200.226H463.612L466.86 180.822C467.19 178.8 466.932 177.223 466.086 176.09C465.254 174.942 463.913 174.369 462.063 174.369C460.83 174.369 459.697 174.634 458.665 175.165C457.632 175.695 456.764 176.47 456.062 177.488C455.373 178.492 454.907 179.704 454.663 181.123Z" fill="white"/>
<path d="M6.96578 40L13.5331 0.441633H21.8967L19.1926 16.7633H36.171L38.8752 0.441633H47.2195L40.6522 40H32.3079L35.012 23.659H18.0336L15.3294 40H6.96578ZM55.7763 40.5602C53.8963 40.5602 52.2673 40.2318 50.8895 39.5751C49.5245 38.9054 48.5201 37.9139 47.8762 36.6005C47.2324 35.287 47.0714 33.658 47.3933 31.7136C47.6766 30.0653 48.211 28.6875 48.9965 27.5801C49.7949 26.4598 50.7671 25.5584 51.9132 24.8759C53.0593 24.1934 54.3277 23.6719 55.7184 23.3113C57.122 22.9508 58.5706 22.7061 60.0644 22.5773C61.7899 22.397 63.1935 22.2232 64.2752 22.0558C65.3697 21.8884 66.1874 21.6502 66.7283 21.3411C67.2691 21.0192 67.5975 20.5427 67.7134 19.9118V19.7959C67.9065 18.5854 67.6812 17.6454 67.0373 16.9758C66.4063 16.2933 65.3955 15.9521 64.0048 15.9521C62.5368 15.9521 61.2877 16.274 60.2575 16.9178C59.2403 17.5617 58.5127 18.3794 58.0749 19.3709L50.5804 18.7528C51.25 16.95 52.2609 15.3919 53.613 14.0785C54.9779 12.7521 56.6198 11.7348 58.5385 11.0266C60.4571 10.3055 62.6076 9.94491 64.9899 9.94491C66.6381 9.94491 68.1769 10.1381 69.6063 10.5244C71.0485 10.9107 72.2912 11.5095 73.3342 12.3207C74.3901 13.132 75.1499 14.175 75.6135 15.4499C76.0899 16.7118 76.1865 18.2249 75.9032 19.989L72.5616 40H64.7581L65.4534 35.8858H65.2217C64.5907 36.8129 63.8181 37.6306 62.9038 38.3389C61.9895 39.0342 60.94 39.5815 59.7553 39.9807C58.5706 40.367 57.2443 40.5602 55.7763 40.5602ZM59.0793 34.8814C60.2769 34.8814 61.3778 34.6431 62.3823 34.1667C63.3995 33.6774 64.2366 33.0206 64.8933 32.1965C65.5629 31.3724 65.9878 30.4388 66.1681 29.3957L66.6703 26.2473C66.4128 26.4147 66.0393 26.5628 65.55 26.6915C65.0736 26.8203 64.552 26.9426 63.9855 27.0585C63.4317 27.1616 62.8716 27.2581 62.305 27.3483C61.7384 27.4255 61.2298 27.5028 60.7791 27.5801C59.7875 27.7217 58.899 27.9471 58.1135 28.2561C57.328 28.5652 56.6906 28.9837 56.2013 29.5116C55.7119 30.0267 55.4093 30.6706 55.2934 31.4432C55.1132 32.5635 55.3771 33.4198 56.0854 34.0122C56.8065 34.5916 57.8045 34.8814 59.0793 34.8814ZM107.127 18.7915L99.6517 19.255C99.6131 18.5983 99.4328 18.0124 99.1109 17.4973C98.8018 16.9694 98.3447 16.5509 97.7395 16.2418C97.1471 15.9328 96.4003 15.7782 95.4989 15.7782C94.1468 15.7782 92.9428 16.0873 91.8869 16.7054C90.8309 17.3235 90.2321 18.1154 90.0905 19.0812C89.9746 19.6993 90.1356 20.2208 90.5734 20.6458C91.0112 21.0707 91.8933 21.4313 93.2196 21.7274L98.4348 22.8091C101.216 23.4015 103.225 24.3865 104.461 25.7644C105.71 27.1422 106.155 28.945 105.794 31.1728C105.472 33.0657 104.642 34.7204 103.302 36.1369C101.963 37.5405 100.263 38.635 98.2031 39.4205C96.1427 40.1932 93.857 40.5795 91.346 40.5795C87.3155 40.5795 84.2507 39.7553 82.1518 38.1071C80.0528 36.4588 79.042 34.2246 79.1192 31.4046L87.1545 30.9796C87.2189 32.1901 87.6439 33.1043 88.4294 33.7224C89.2149 34.3276 90.2901 34.6367 91.6551 34.6496C93.1874 34.6753 94.488 34.3598 95.5568 33.7031C96.6385 33.0335 97.2502 32.2222 97.3918 31.2693C97.4948 30.5997 97.3017 30.0589 96.8123 29.6468C96.3359 29.2348 95.4602 28.8935 94.1854 28.6231L89.2406 27.5994C86.4334 27.0199 84.4182 25.9833 83.1948 24.4896C81.9715 22.9958 81.553 21.0965 81.9393 18.7915C82.2484 16.95 83.0146 15.3726 84.2379 14.0591C85.4741 12.7328 87.0644 11.7155 89.0088 11.0073C90.9661 10.299 93.1746 9.94491 95.6341 9.94491C99.4843 9.94491 102.382 10.7369 104.326 12.3207C106.283 13.9046 107.217 16.0615 107.127 18.7915ZM130.214 10.3312L129.19 16.5122H111.304L112.347 10.3312H130.214ZM117.562 3.22308H125.791L121.193 30.883C121.065 31.6428 121.084 32.2351 121.251 32.6601C121.419 33.0721 121.696 33.3619 122.082 33.5293C122.481 33.6967 122.958 33.7804 123.511 33.7804C123.898 33.7804 124.29 33.7482 124.69 33.6838C125.089 33.6065 125.391 33.5486 125.597 33.51L125.906 39.633C125.443 39.7747 124.818 39.9292 124.033 40.0966C123.26 40.264 122.346 40.367 121.29 40.4056C119.281 40.4829 117.581 40.2189 116.191 39.6137C114.8 38.9956 113.802 38.0491 113.197 36.7743C112.592 35.4995 112.463 33.8963 112.81 31.9647L117.562 3.22308ZM139.012 40.5602C137.132 40.5602 135.503 40.2318 134.125 39.5751C132.76 38.9054 131.756 37.9139 131.112 36.6005C130.468 35.287 130.307 33.658 130.629 31.7136C130.912 30.0653 131.447 28.6875 132.232 27.5801C133.031 26.4598 134.003 25.5584 135.149 24.8759C136.295 24.1934 137.563 23.6719 138.954 23.3113C140.358 22.9508 141.806 22.7061 143.3 22.5773C145.026 22.397 146.429 22.2232 147.511 22.0558C148.606 21.8884 149.423 21.6502 149.964 21.3411C150.505 21.0192 150.833 20.5427 150.949 19.9118V19.7959C151.142 18.5854 150.917 17.6454 150.273 16.9758C149.642 16.2933 148.631 15.9521 147.241 15.9521C145.773 15.9521 144.523 16.274 143.493 16.9178C142.476 17.5617 141.748 18.3794 141.311 19.3709L133.816 18.7528C134.486 16.95 135.497 15.3919 136.849 14.0785C138.214 12.7521 139.856 11.7348 141.774 11.0266C143.693 10.3055 145.843 9.94491 148.226 9.94491C149.874 9.94491 151.413 10.1381 152.842 10.5244C154.284 10.9107 155.527 11.5095 156.57 12.3207C157.626 13.132 158.386 14.175 158.849 15.4499C159.326 16.7118 159.422 18.2249 159.139 19.989L155.797 40H147.994L148.689 35.8858H148.457C147.826 36.8129 147.054 37.6306 146.14 38.3389C145.225 39.0342 144.176 39.5815 142.991 39.9807C141.806 40.367 140.48 40.5602 139.012 40.5602ZM142.315 34.8814C143.513 34.8814 144.614 34.6431 145.618 34.1667C146.635 33.6774 147.472 33.0206 148.129 32.1965C148.799 31.3724 149.224 30.4388 149.404 29.3957L149.906 26.2473C149.649 26.4147 149.275 26.5628 148.786 26.6915C148.309 26.8203 147.788 26.9426 147.221 27.0585C146.668 27.1616 146.107 27.2581 145.541 27.3483C144.974 27.4255 144.466 27.5028 144.015 27.5801C143.023 27.7217 142.135 27.9471 141.349 28.2561C140.564 28.5652 139.926 28.9837 139.437 29.5116C138.948 30.0267 138.645 30.6706 138.529 31.4432C138.349 32.5635 138.613 33.4198 139.321 34.0122C140.042 34.5916 141.04 34.8814 142.315 34.8814Z" fill="#FFF6EF"/>
</svg>
