<svg width="24" height="24" viewBox="0 0 24 24" fill="none" xmlns="http://www.w3.org/2000/svg">
<mask id="mask0_1377_5314" style="mask-type:alpha" maskUnits="userSpaceOnUse" x="0" y="0" width="24" height="24">
<rect width="24" height="24" fill="#D9D9D9"/>
</mask>
<g mask="url(#mask0_1377_5314)">
<path d="M11.9992 21C10.8992 21 9.95755 20.6083 9.17422 19.825C8.39089 19.0417 7.99922 18.1 7.99922 17C7.99922 15.9 8.39089 14.9583 9.17422 14.175C9.95755 13.3917 10.8992 13 11.9992 13C13.0992 13 14.0409 13.3917 14.8242 14.175C15.6076 14.9583 15.9992 15.9 15.9992 17C15.9992 18.1 15.6076 19.0417 14.8242 19.825C14.0409 20.6083 13.0992 21 11.9992 21ZM11.9992 19C12.5492 19 13.0201 18.8042 13.4117 18.4125C13.8034 18.0208 13.9992 17.55 13.9992 17C13.9992 16.45 13.8034 15.9792 13.4117 15.5875C13.0201 15.1958 12.5492 15 11.9992 15C11.4492 15 10.9784 15.1958 10.5867 15.5875C10.1951 15.9792 9.99922 16.45 9.99922 17C9.99922 17.55 10.1951 18.0208 10.5867 18.4125C10.9784 18.8042 11.4492 19 11.9992 19ZM3.04922 8.6L1.57422 7.225C2.92422 5.90833 4.49089 4.875 6.27422 4.125C8.05755 3.375 9.96589 3 11.9992 3C14.0326 3 15.9409 3.375 17.7242 4.125C19.5076 4.875 21.0742 5.90833 22.4242 7.225L20.9492 8.6C19.7659 7.48333 18.4159 6.60417 16.8992 5.9625C15.3826 5.32083 13.7492 5 11.9992 5C10.2492 5 8.61589 5.32083 7.09922 5.9625C5.58255 6.60417 4.23255 7.48333 3.04922 8.6ZM17.2992 12.025C16.5992 11.3917 15.7992 10.8958 14.8992 10.5375C13.9992 10.1792 13.0326 10 11.9992 10C10.9659 10 10.0034 10.1792 9.11172 10.5375C8.22005 10.8958 7.41589 11.3917 6.69922 12.025L5.22422 10.65C6.12422 9.81667 7.15339 9.16667 8.31172 8.7C9.47005 8.23333 10.6992 8 11.9992 8C13.2992 8 14.5242 8.23333 15.6742 8.7C16.8242 9.16667 17.8492 9.81667 18.7492 10.65L17.2992 12.025Z" fill="#FF6700"/>
</g>
</svg>
