<svg width="24" height="24" viewBox="0 0 24 24" fill="none" xmlns="http://www.w3.org/2000/svg">
<mask id="mask0_1377_5294" style="mask-type:alpha" maskUnits="userSpaceOnUse" x="0" y="0" width="24" height="24">
<rect width="24" height="24" fill="#D9D9D9"/>
</mask>
<g mask="url(#mask0_1377_5294)">
<path d="M11 16.5V11H13V16.5H11ZM12 9C11.7167 9 11.4792 8.90417 11.2875 8.7125C11.0958 8.52083 11 8.28333 11 8C11 7.71667 11.0958 7.47917 11.2875 7.2875C11.4792 7.09583 11.7167 7 12 7C12.2833 7 12.5208 7.09583 12.7125 7.2875C12.9042 7.47917 13 7.71667 13 8C13 8.28333 12.9042 8.52083 12.7125 8.7125C12.5208 8.90417 12.2833 9 12 9ZM7 23C6.45 23 5.97917 22.8042 5.5875 22.4125C5.19583 22.0208 5 21.55 5 21V3C5 2.45 5.19583 1.97917 5.5875 1.5875C5.97917 1.19583 6.45 1 7 1H17C17.55 1 18.0208 1.19583 18.4125 1.5875C18.8042 1.97917 19 2.45 19 3V21C19 21.55 18.8042 22.0208 18.4125 22.4125C18.0208 22.8042 17.55 23 17 23H7ZM7 20V21H17V20H7ZM7 18H17V6H7V18ZM7 4H17V3H7V4Z" fill="#FF6700"/>
</g>
</svg>
