<svg width="21" height="18" viewBox="0 0 21 18" fill="none" xmlns="http://www.w3.org/2000/svg">
<path d="M8 10C8.28333 10 8.52083 9.90417 8.7125 9.7125C8.90417 9.52083 9 9.28333 9 9C9 8.71667 8.90417 8.47917 8.7125 8.2875C8.52083 8.09583 8.28333 8 8 8C7.71667 8 7.47917 8.09583 7.2875 8.2875C7.09583 8.47917 7 8.71667 7 9C7 9.28333 7.09583 9.52083 7.2875 9.7125C7.47917 9.90417 7.71667 10 8 10ZM4 18V16L10 15V3.875C10 3.625 9.925 3.4 9.775 3.2C9.625 3 9.43333 2.88333 9.2 2.85L4 2V0L9.5 0.9C10.2333 1.03333 10.8333 1.375 11.3 1.925C11.7667 2.475 12 3.11667 12 3.85V16.65L4 18ZM0 18V16H2V2C2 1.43333 2.19583 0.958333 2.5875 0.575C2.97917 0.191667 3.45 0 4 0H14C14.5667 0 15.0417 0.191667 15.425 0.575C15.8083 0.958333 16 1.43333 16 2V16H18V18H0ZM4 16H14V2H4V16Z" fill="#FF6700"/>
<path d="M19.2875 7.7125C19.4792 7.90417 19.7167 8 20 8C20.2833 8 20.5208 7.90417 20.7125 7.7125C20.9042 7.52083 21 7.28333 21 7C21 6.71667 20.9042 6.47917 20.7125 6.2875C20.5208 6.09583 20.2833 6 20 6C19.7167 6 19.4792 6.09583 19.2875 6.2875C19.0958 6.47917 19 6.71667 19 7C19 7.28333 19.0958 7.52083 19.2875 7.7125Z" fill="#FF6700"/>
<path d="M19 0V5H21V0H19Z" fill="#FF6700"/>
</svg>
